<svg width="21" height="19" viewBox="0 0 21 19" fill="none" xmlns="http://www.w3.org/2000/svg">
<g clip-path="url(#clip0_1_2332)">
<path d="M19.9092 7.4868L9.23672 16.5045C7.46836 17.9988 4.601 17.9988 2.83264 16.5045C1.06428 15.0102 1.06428 12.5878 2.83264 11.0935L12.4384 2.97766C13.6176 1.98166 15.5284 1.98166 16.7076 2.97766C17.8867 3.97363 17.8867 5.58901 16.7076 6.58498L7.10177 14.7008C6.51257 15.1992 5.55679 15.1992 4.96683 14.7008C4.37763 14.2032 4.37763 13.3955 4.96683 12.8972L13.5051 5.68314L12.4376 4.78132L3.90013 11.996C2.72097 12.992 2.72097 14.6073 3.90013 15.6033C5.07929 16.5993 6.9901 16.5993 8.16926 15.6033L17.7751 7.48744C19.5434 5.99316 19.5434 3.57077 17.7751 2.07646C16.0067 0.58218 13.1393 0.58218 11.371 2.07646L1.23144 10.6432L1.26818 10.6746C-0.573667 12.6755 -0.411747 15.5681 1.76518 17.4069C3.94212 19.2458 7.36416 19.3835 9.73296 17.8264L9.76971 17.8578L20.9759 8.38926L19.9092 7.4868Z" fill="black"/>
</g>
<defs>
<clipPath id="clip0_1_2332">
<rect width="21" height="17.943" fill="white" transform="translate(0 0.955688)"/>
</clipPath>
</defs>
</svg>
