<svg width="29" height="30" viewBox="0 0 29 30" fill="none" xmlns="http://www.w3.org/2000/svg">
<path d="M7.58812 3.4665C7.19812 4.188 7.00012 4.8725 7.00062 5.5265L7.08312 7.094C6.36212 7.1935 5.41612 7.394 5.03812 8.3095C4.85912 8.742 4.97112 9.4055 5.00512 9.569C5.10412 10.292 5.31162 11.7975 6.58162 12.1935C6.85762 12.2795 7.12812 12.3465 7.36262 12.397L7.50012 15C7.50012 17.018 8.77012 18.0155 10.0121 18.7255L10.0376 18.739C10.0556 18.748 10.0736 18.7555 10.0926 18.7625L10.9986 19.089L10.9936 21.654L2.30312 25.033C2.19155 25.0818 2.10025 25.1677 2.04462 25.276L0.0346219 29.3C-0.0253781 29.454 -0.00387815 29.64 0.0891218 29.776C0.182122 29.912 0.348122 30 0.513122 30H14.9801C15.2566 30 15.4931 29.763 15.4931 29.487V29H29.0001V28H15.4931V27H28.0001V26H15.4931V25H24.5001V24H15.4931V23H20.0001V22H15.4931V21H18.5001V20H15.5001V19H19.0001V18H15.5001V17H22.0001V16H15.5001V15H22.0001V14H15.5001V13H22.5001V12H15.5001V11H24.5001V10H15.5001V9H24.5001V8H15.5001V7H22.5001V6H15.5001V5H22.5001V4H15.5001V3H21.5001V2H15.5001V1H19.5201V0H15.0131V0.00250006C15.0086 0.00250006 15.0046 0 15.0001 0H13.5786C11.0401 0 8.74462 1.328 7.58812 3.4665ZM7.30762 11.358C7.16383 11.3221 7.0211 11.2821 6.87962 11.238C6.32812 11.0665 6.12762 10.392 5.99062 9.402C5.93812 9.139 5.92412 8.7865 5.96212 8.691C6.11712 8.3165 6.57262 8.1835 7.13612 8.097L7.20262 9.355L7.30762 11.358ZM14.4931 29H1.30112L2.85462 25.891L11.6556 22.4695C11.7536 22.4322 11.8382 22.3664 11.8984 22.2805C11.9586 22.1947 11.9918 22.0928 11.9936 21.988L11.9986 19.452L14.4936 20.351L14.4931 29ZM13.5786 1H14.5001V19.288L10.4721 17.837C9.03562 17.008 8.50012 16.236 8.49962 14.9735L8.34062 11.9535L8.10662 7.5015L8.10562 7.4975L8.00012 5.5C8.00012 5.0465 8.16162 4.508 8.46812 3.942C9.44912 2.1275 11.4076 1 13.5786 1Z" fill="#060311"/>
</svg>
