<svg width="123" height="130" viewBox="0 0 123 130" fill="none" xmlns="http://www.w3.org/2000/svg">
<path d="M21.0899 29.5294L12.3838 19.7532L14.4824 17.8832L21.5158 25.7685L25.9416 21.8206L27.6246 23.7011L21.0899 29.5294Z" fill="white"/>
<path d="M30.4192 21.8417L24.2897 10.2787L32.1023 6.13342L33.2555 8.31513L27.8739 11.1721L31.6971 18.3718L37.1929 15.4524L38.3461 17.6342L30.4192 21.8417ZM29.0063 16.3875L27.8843 14.2681L33.7438 11.1617L34.8658 13.2811L29.0063 16.3875Z" fill="white"/>
<path d="M44.4445 15.7431L41.92 5.47864L38.2111 6.39288L37.6085 3.94106L47.8522 1.4165L48.4547 3.86833L44.6419 4.80335L47.1665 15.0678L44.4445 15.7431Z" fill="white"/>
<path d="M53.3273 5.79018L52.465 4.84477C52.9636 4.60582 53.3584 4.31493 53.6597 3.98247C53.961 3.65002 54.0961 3.36952 54.0857 3.14096C54.0753 2.99551 54.0129 2.85006 53.8987 2.73578C53.7844 2.61111 53.6493 2.50722 53.4727 2.41372C53.1714 2.20594 52.9636 2.01893 52.8494 1.84232C52.7351 1.6657 52.6727 1.4787 52.652 1.26053C52.6312 0.896912 52.7455 0.606017 52.9844 0.377457C53.2234 0.148896 53.5558 0.0242271 53.961 0.00344891C54.335 -0.0173293 54.6778 0.0553944 54.9791 0.232009C55.2804 0.408624 55.5297 0.657962 55.7271 0.990413C55.9245 1.32286 56.0284 1.70726 56.0596 2.16438C56.0804 2.53839 56.0284 2.90201 55.9038 3.26563C55.7791 3.62925 55.5921 3.97208 55.3427 4.30454C55.0934 4.6266 54.8025 4.92788 54.4597 5.17722C54.1168 5.43695 53.7428 5.63434 53.3273 5.79018Z" fill="white"/>
<path d="M64.3605 14.4759C63.5605 14.3824 62.8333 14.1954 62.1996 13.9149C61.5658 13.6344 61.0048 13.2708 60.5373 12.8344C60.0698 12.3981 59.6646 11.8682 59.3218 11.2761L61.3061 9.49953C61.8152 10.4138 62.345 11.0579 62.906 11.4319C63.467 11.8059 64.1008 12.0345 64.8072 12.1176C65.1916 12.1591 65.5448 12.1487 65.8565 12.076C66.1682 12.0033 66.4279 11.8786 66.6253 11.702C66.8227 11.5358 66.937 11.3072 66.9682 11.0371C66.9889 10.8397 66.9682 10.6527 66.9058 10.4761C66.8435 10.2995 66.7292 10.1333 66.5838 9.98782C66.4383 9.84237 66.2617 9.69692 66.0539 9.56186C65.8461 9.4268 65.6072 9.31252 65.3475 9.19824C65.0877 9.08396 64.7968 8.98007 64.4852 8.89696C63.8099 8.64762 63.2281 8.3879 62.7398 8.097C62.2515 7.80611 61.8463 7.47365 61.545 7.08926C61.2438 6.70486 61.0256 6.2893 60.9113 5.83218C60.797 5.37506 60.7763 4.87638 60.8386 4.32576C60.9009 3.76475 61.0879 3.26607 61.3996 2.81934C61.7009 2.37261 62.0957 1.9986 62.5736 1.7077C63.0515 1.41681 63.5917 1.20903 64.1943 1.09475C64.7968 0.980467 65.4098 0.959689 66.0539 1.03241C66.8435 1.1363 67.5292 1.30253 68.1006 1.55187C68.672 1.80121 69.1603 2.11288 69.555 2.50766C69.9498 2.90245 70.2719 3.35957 70.5108 3.87903L68.5369 5.37506C68.3187 5.00105 68.0694 4.6686 67.7993 4.39848C67.5292 4.12836 67.2175 3.91019 66.8747 3.75436C66.5318 3.59852 66.1786 3.49463 65.8046 3.45307C65.3994 3.40113 65.0358 3.41152 64.7241 3.48424C64.4124 3.55696 64.1631 3.68163 63.9761 3.86864C63.7891 4.05564 63.6748 4.2842 63.6436 4.55432C63.6125 4.77249 63.6436 4.98027 63.7371 5.16727C63.8306 5.35428 63.9657 5.5205 64.1631 5.67634C64.3605 5.83218 64.5994 5.97762 64.8799 6.11268C65.1605 6.24774 65.4825 6.37241 65.8357 6.48669C66.5006 6.70486 67.0928 6.9542 67.6123 7.24509C68.1317 7.53599 68.5681 7.85805 68.9213 8.22167C69.2745 8.58529 69.5239 8.99046 69.6901 9.44758C69.8459 9.9047 69.8979 10.393 69.8355 10.9228C69.7317 11.8059 69.4304 12.5228 68.9317 13.0942C68.433 13.6656 67.7993 14.0707 67.0201 14.3097C66.2409 14.5486 65.3578 14.5902 64.3605 14.4759Z" fill="white"/>
<path d="M82.6037 20.3248C81.8972 19.9404 81.2946 19.4936 80.796 19.0053C80.2973 18.5171 79.9233 17.9664 79.6532 17.3846C79.383 16.7925 79.196 16.1691 79.1025 15.4834L81.6063 14.5692C81.7414 15.6081 81.9907 16.4081 82.3751 16.9587C82.7595 17.5197 83.2686 17.9664 83.8919 18.3093C84.2348 18.4963 84.5568 18.6106 84.8893 18.6625C85.2113 18.7145 85.4918 18.6937 85.7412 18.6002C85.9905 18.5171 86.1775 18.3508 86.3022 18.1119C86.3957 17.9353 86.4476 17.7587 86.4476 17.5613C86.4476 17.3743 86.4165 17.1769 86.3334 16.9899C86.2502 16.7925 86.136 16.6055 85.9905 16.3977C85.8451 16.2003 85.6684 15.9925 85.4711 15.7951C85.2737 15.5977 85.0347 15.3899 84.775 15.1925C84.2348 14.7146 83.7984 14.2471 83.4452 13.8004C83.092 13.3433 82.853 12.8862 82.7076 12.4187C82.5621 11.9511 82.5206 11.4836 82.5829 11.0161C82.6452 10.5486 82.8011 10.0811 83.0712 9.60321C83.3413 9.11492 83.6945 8.70975 84.1516 8.40847C84.5984 8.10718 85.1074 7.90979 85.6581 7.81629C86.2087 7.72279 86.7905 7.73317 87.393 7.84745C87.9956 7.96173 88.5774 8.16952 89.1488 8.48119C89.8449 8.86559 90.4163 9.27076 90.863 9.71749C91.2993 10.1538 91.6422 10.6317 91.8604 11.1512C92.0889 11.6603 92.2136 12.2005 92.2448 12.7719L89.8656 13.4264C89.8033 12.9901 89.689 12.6057 89.5436 12.2524C89.3981 11.8992 89.18 11.5875 88.9306 11.307C88.6709 11.0369 88.38 10.8083 88.0579 10.6317C87.6943 10.4343 87.3619 10.3097 87.0502 10.2577C86.7385 10.2058 86.458 10.2369 86.2087 10.3304C85.9593 10.424 85.7723 10.6006 85.6477 10.8395C85.5438 11.0369 85.4918 11.2343 85.5126 11.4421C85.5334 11.6499 85.5957 11.8576 85.7204 12.0758C85.8451 12.294 86.0113 12.5122 86.2295 12.7511C86.4476 12.9797 86.697 13.2186 86.9775 13.4576C87.5177 13.9043 87.9748 14.3614 88.3488 14.8185C88.7228 15.2757 89.0034 15.7432 89.2007 16.2107C89.3877 16.6782 89.4813 17.1561 89.4605 17.634C89.4397 18.1119 89.3046 18.5898 89.0449 19.0573C88.619 19.8365 88.0787 20.3975 87.4034 20.7403C86.7281 21.0832 85.9905 21.2182 85.1698 21.1559C84.3283 21.0728 83.4764 20.8027 82.6037 20.3248Z" fill="white"/>
<path d="M91.7461 26.4233L98.8938 18.6418L96.0784 16.0653L97.7822 14.2057L105.553 21.343L103.849 23.2026L100.961 20.543L93.8135 28.3245L91.7461 26.4233Z" fill="white"/>
<path d="M97.2212 31.3788L110.956 28.366L112.348 30.4438L104.317 41.9757L102.717 39.5862L107.101 33.467C107.226 33.2904 107.392 33.0722 107.59 32.8125C107.787 32.5528 108.005 32.2723 108.234 31.9918C108.462 31.7009 108.68 31.4308 108.888 31.171C109.096 30.9113 109.273 30.7035 109.428 30.5477L109.709 30.9632C109.439 31.0567 109.148 31.1502 108.847 31.2334C108.545 31.3269 108.234 31.4204 107.912 31.5139C107.59 31.6074 107.278 31.6905 106.966 31.7632C106.654 31.8359 106.353 31.9086 106.062 31.9918L98.7899 33.6956L97.2212 31.3788ZM100.837 31.8359L103.216 31.3476L106.561 36.3344L105.221 38.3603L100.837 31.8359Z" fill="white"/>
<path d="M105.252 44.3237L117.667 40.1785L119.506 45.6743C119.766 46.4431 119.817 47.2015 119.682 47.9391C119.547 48.6768 119.236 49.3313 118.768 49.8923C118.301 50.4533 117.688 50.8585 116.929 51.1078C116.181 51.3571 115.444 51.3987 114.716 51.2429C113.989 51.087 113.345 50.7546 112.774 50.2455C112.202 49.7364 111.797 49.1027 111.537 48.3339L110.561 45.4042L106.104 46.8898L105.252 44.3237ZM107.6 51.3675L112.15 46.3392L113.511 48.9261L108.618 54.4635L107.6 51.3675ZM112.722 44.6873L113.657 47.4924C113.761 47.8145 113.927 48.0638 114.155 48.2612C114.384 48.4586 114.654 48.5729 114.966 48.6144C115.277 48.656 115.6 48.6248 115.922 48.5105C116.275 48.3962 116.555 48.2092 116.763 47.9703C116.971 47.7313 117.106 47.4404 117.147 47.0976C117.199 46.7548 117.158 46.3808 117.023 45.9964L116.202 43.5341L112.722 44.6873Z" fill="white"/>
<path d="M109.179 59.9801L119.714 59.2217L119.443 55.4193L121.958 55.2427L122.716 65.7668L120.202 65.9434L119.921 62.0268L109.387 62.7852L109.179 59.9801Z" fill="white"/>
<path d="M108.878 75.0339L119.724 83.9789L118.945 86.358L104.919 87.1476L105.813 84.4153L113.335 84.0932C113.542 84.0828 113.823 84.0724 114.145 84.0724C114.477 84.0724 114.82 84.0724 115.184 84.0724C115.547 84.0724 115.901 84.0725 116.233 84.0828C116.566 84.0828 116.836 84.0932 117.054 84.114L116.898 84.5919C116.659 84.4361 116.41 84.2698 116.15 84.0828C115.89 83.8958 115.62 83.7088 115.35 83.5218C115.08 83.3244 114.82 83.127 114.571 82.9296C114.322 82.7323 114.072 82.5349 113.833 82.3582L108.005 77.6832L108.878 75.0339ZM110.748 78.161L112.597 79.7298L110.737 85.4334L108.317 85.6308L110.748 78.161Z" fill="white"/>
<path d="M99.9535 95.1783L109.896 103.697L106.28 107.915C105.771 108.508 105.169 108.923 104.483 109.162C103.797 109.401 103.091 109.443 102.374 109.308C101.657 109.172 100.992 108.85 100.379 108.331C99.7665 107.801 99.3301 107.188 99.0808 106.492C98.8315 105.796 98.7587 105.079 98.873 104.362C98.9873 103.645 99.3094 102.981 99.8184 102.388L101.605 100.3L98.125 97.3185L99.9535 95.1783ZM103.548 101.9L101.938 103.77C101.74 103.999 101.626 104.248 101.595 104.529C101.553 104.809 101.595 105.09 101.699 105.37C101.803 105.651 101.979 105.9 102.239 106.118C102.499 106.336 102.759 106.471 103.049 106.523C103.34 106.575 103.61 106.565 103.87 106.482C104.13 106.399 104.369 106.243 104.566 106.014L106.177 104.144L103.548 101.9Z" fill="white"/>
<path d="M85.0867 108.871L91.1851 111.853L89.0761 113.868L82.3959 110.7L85.0867 108.871ZM91.1954 104.664L98.6236 115.437L93.855 118.731C93.1901 119.188 92.4733 119.458 91.7253 119.53C90.9773 119.603 90.2604 119.489 89.5955 119.188C88.9306 118.886 88.3696 118.408 87.9125 117.754C87.4658 117.11 87.2164 116.414 87.1645 115.666C87.1125 114.918 87.258 114.211 87.5904 113.526C87.9229 112.84 88.4216 112.269 89.0865 111.811L91.6318 110.056L88.9722 106.191L91.1954 104.664ZM92.9304 111.946L90.4994 113.619C90.2189 113.806 90.0215 114.045 89.8968 114.315C89.7721 114.585 89.741 114.876 89.7825 115.188C89.8241 115.5 89.9487 115.79 90.1461 116.081C90.3643 116.393 90.6137 116.611 90.8942 116.746C91.1747 116.881 91.4967 116.923 91.85 116.871C92.2032 116.819 92.5356 116.684 92.8785 116.445L95.0186 114.97L92.9304 111.946Z" fill="white"/>
<path d="M74.2197 113.671C75.1444 113.37 76.0378 113.245 76.9209 113.307C77.7936 113.37 78.6143 113.598 79.3831 113.983C80.1519 114.367 80.8168 114.897 81.3778 115.583C81.9492 116.268 82.3856 117.068 82.6869 117.993C82.9985 118.928 83.1232 119.842 83.0816 120.715C83.0297 121.598 82.8219 122.419 82.4375 123.187C82.0531 123.956 81.5337 124.621 80.8688 125.193C80.2039 125.764 79.4143 126.2 78.5104 126.512C77.5858 126.813 76.6923 126.938 75.8197 126.876C74.947 126.813 74.1366 126.585 73.3678 126.19C72.599 125.795 71.9341 125.265 71.3731 124.59C70.8121 123.915 70.3758 123.115 70.0641 122.19C69.7628 121.265 69.6278 120.362 69.6797 119.479C69.7316 118.595 69.9394 117.764 70.3238 116.996C70.7082 116.227 71.2277 115.551 71.8822 114.98C72.5263 114.409 73.3055 113.972 74.2197 113.671ZM75.0716 116.185C74.5418 116.362 74.0847 116.621 73.7107 116.964C73.3367 117.307 73.0458 117.702 72.8484 118.159C72.6406 118.616 72.5263 119.104 72.5055 119.645C72.4744 120.175 72.5575 120.725 72.7445 121.297C72.9315 121.868 73.2016 122.356 73.5341 122.772C73.8769 123.187 74.2613 123.509 74.6976 123.759C75.134 123.998 75.6015 124.154 76.1002 124.195C76.5988 124.247 77.1183 124.185 77.6585 124.008C78.178 123.832 78.6247 123.582 78.9987 123.239C79.3727 122.897 79.6636 122.502 79.8818 122.045C80.1 121.587 80.2143 121.089 80.2246 120.559C80.235 120.029 80.1519 119.479 79.9649 118.907C79.7779 118.336 79.5182 117.847 79.1857 117.432C78.8533 117.016 78.4689 116.684 78.0221 116.445C77.5754 116.206 77.0975 116.06 76.5988 116.009C76.1002 115.957 75.5911 116.019 75.0716 116.185Z" fill="white"/>
<path d="M61.8463 116.133C62.3242 116.112 62.7605 116.143 63.1761 116.237C63.5917 116.33 63.976 116.466 64.3189 116.653C64.6617 116.84 64.9838 117.068 65.2643 117.349C65.5552 117.629 65.7941 117.941 66.0019 118.294L64.4539 120.071C64.2254 119.79 64.0176 119.562 63.8306 119.385C63.6436 119.208 63.4566 119.063 63.2904 118.949C63.1241 118.834 62.9475 118.762 62.7709 118.73C62.5943 118.699 62.4073 118.678 62.2099 118.689C61.8671 118.71 61.5554 118.803 61.2957 118.98C61.0359 119.156 60.8385 119.385 60.7139 119.676C60.5892 119.967 60.5269 120.299 60.5476 120.673L60.8385 126.969L63.228 126.855L63.3423 129.338L56.1842 129.67L56.0699 127.187L58.0854 127.094L57.7841 120.476C57.753 119.852 57.8361 119.281 58.0231 118.762C58.2101 118.242 58.4906 117.785 58.8542 117.401C59.2178 117.016 59.6646 116.715 60.1736 116.486C60.6723 116.289 61.2333 116.164 61.8463 116.133Z" fill="white"/>
<path d="M51.9663 116.247L49.3378 129.068L40.6733 127.291L41.172 124.87L47.1457 126.096L48.7768 118.107L42.6784 116.86L43.1771 114.44L51.9663 116.247ZM49.5872 121.348L49.1093 123.696L42.6057 122.367L43.0836 120.019L49.5872 121.348Z" fill="white"/>
<path d="M34.6788 110.554C35.5411 110.98 36.258 111.52 36.8294 112.175C37.4008 112.829 37.8267 113.557 38.0864 114.357C38.3462 115.157 38.4397 116.009 38.3669 116.892C38.2942 117.775 38.0345 118.668 37.5981 119.551C37.1722 120.414 36.632 121.13 35.9671 121.712C35.3022 122.294 34.5645 122.72 33.7542 122.99C32.9438 123.26 32.0919 123.364 31.1985 123.302C30.3154 123.239 29.4427 123 28.5804 122.574C28.0194 122.294 27.5103 121.951 27.0428 121.536C26.5753 121.12 26.1909 120.652 25.8792 120.133C25.5676 119.614 25.3494 119.084 25.2247 118.523L27.6662 117.557C27.7908 117.951 27.9467 118.315 28.1441 118.658C28.3415 119.001 28.57 119.302 28.8297 119.562C29.0999 119.821 29.4115 120.05 29.7648 120.227C30.2427 120.465 30.7413 120.601 31.2504 120.621C31.7595 120.652 32.2478 120.58 32.7153 120.414C33.1828 120.247 33.6295 119.988 34.0347 119.624C34.4399 119.26 34.7827 118.803 35.0528 118.263C35.3333 117.702 35.4892 117.151 35.5307 116.611C35.5723 116.071 35.5099 115.562 35.3437 115.084C35.1775 114.606 34.9074 114.17 34.5438 113.775C34.1801 113.38 33.723 113.048 33.1724 112.778C32.8192 112.601 32.4452 112.476 32.0608 112.414C31.6764 112.352 31.292 112.331 30.9283 112.372C30.5543 112.414 30.2011 112.487 29.8583 112.611L29.5882 110.035C30.0141 109.869 30.5128 109.775 31.0946 109.754C31.6764 109.734 32.2685 109.785 32.9023 109.921C33.536 110.056 34.1074 110.274 34.6788 110.554Z" fill="white"/>
<path d="M25.7649 104.944L18.8562 112.944L21.7443 115.437L20.0925 117.349L12.1136 110.461L13.7655 108.549L16.7368 111.115L23.6455 103.116L25.7649 104.944Z" fill="white"/>
<path d="M6.81525 92.5086C2.35833 84.1558 0 74.7017 0 65.1749C0 55.8974 2.11938 47.0252 6.30618 38.8074L8.15544 39.7528C4.12447 47.6693 2.07782 56.2195 2.07782 65.1749C2.07782 74.3693 4.35303 83.4805 8.64373 91.5321L6.81525 92.5086Z" fill="white"/>
</svg>
