<svg width="22" height="22" viewBox="0 0 22 22" fill="none" xmlns="http://www.w3.org/2000/svg">
<path fill-rule="evenodd" clip-rule="evenodd" d="M11.3855 3.24504C11.2015 3.33777 11.0731 3.48443 11.0005 3.68504C10.9455 6.06809 10.9272 8.45143 10.9455 10.835C8.33856 10.8684 5.73522 10.8318 3.13548 10.725C3.13548 10.835 3.13548 10.945 3.13548 11.055C3.13548 11.0917 3.13548 11.1284 3.13548 11.165C2.98391 10.8933 3.02057 10.6367 3.24548 10.395C5.6195 8.18623 7.94784 5.91289 10.2305 3.57504C10.2816 3.50966 10.2999 3.43632 10.2855 3.35504C10.4821 3.17449 10.7204 3.06449 11.0005 3.02504C11.1874 3.01257 11.3157 3.08589 11.3855 3.24504Z" fill="#A79CD3"/>
<path fill-rule="evenodd" clip-rule="evenodd" d="M11.3853 3.245C13.921 5.67052 16.3776 8.16385 18.7553 10.725C18.5283 10.7456 18.3083 10.8006 18.0953 10.89C15.7123 10.945 13.3289 10.9633 10.9453 10.945C10.9453 10.9083 10.9453 10.8717 10.9453 10.835C10.927 8.45138 10.9453 6.06805 11.0003 3.685C11.0729 3.48439 11.2013 3.33773 11.3853 3.245Z" fill="#7561C1"/>
<path fill-rule="evenodd" clip-rule="evenodd" d="M10.2851 3.35498C10.2995 3.43626 10.2812 3.5096 10.2301 3.57498C7.94747 5.91283 5.61914 8.18617 3.24512 10.395C5.55512 8.01164 7.90178 5.66498 10.2851 3.35498Z" fill="#B8AFDB"/>
<path fill-rule="evenodd" clip-rule="evenodd" d="M10.9448 10.835C10.9448 10.8716 10.9448 10.9083 10.9448 10.945C8.33857 10.9127 5.73523 10.9494 3.13477 11.055C3.13477 10.945 3.13477 10.835 3.13477 10.725C5.73451 10.8317 8.33784 10.8683 10.9448 10.835Z" fill="#8D7EC6"/>
<path fill-rule="evenodd" clip-rule="evenodd" d="M10.9448 10.945C10.9448 13.2917 10.9448 15.6384 10.9448 17.985C10.8554 18.254 10.7454 18.5106 10.6148 18.755C8.0425 16.2929 5.54918 13.7629 3.13477 11.165C3.13477 11.1284 3.13477 11.0917 3.13477 11.055C5.73523 10.9495 8.33857 10.9128 10.9448 10.945Z" fill="#463586"/>
<path fill-rule="evenodd" clip-rule="evenodd" d="M18.6452 11.385C16.2475 13.8379 13.8275 16.2761 11.3852 18.7C11.1311 18.7547 10.8745 18.7729 10.6152 18.755C10.7459 18.5106 10.8559 18.2539 10.9452 17.985C11.0549 15.694 11.0916 13.384 11.0552 11.055C13.4388 11.0366 15.8222 11.055 18.2052 11.11C18.4054 11.132 18.5521 11.2237 18.6452 11.385Z" fill="#211940"/>
<path fill-rule="evenodd" clip-rule="evenodd" d="M18.7553 10.725C18.7878 10.9709 18.751 11.1908 18.6453 11.385C18.5521 11.2237 18.4055 11.132 18.2053 11.11C15.8223 11.055 13.4389 11.0366 11.0553 11.055C11.0917 13.384 11.055 15.694 10.9453 17.985C10.9453 15.6383 10.9453 13.2916 10.9453 10.945C13.3289 10.9633 15.7123 10.945 18.0953 10.89C18.3083 10.8005 18.5283 10.7455 18.7553 10.725Z" fill="#341B92"/>
</svg>
