<svg xmlns="http://www.w3.org/2000/svg" viewBox="0 0 29 28"><g fill="#ffffff" fill-rule="evenodd"><path fill-rule="nonzero" d="M19 0c1.7 0 3.1 1.3 3.4 2.9 1.6.3 2.9 1.7 2.9 3.4v10c2 1.1 3.4 3.2 3.4 5.4 0 3.4-2.8 6.2-6.2 6.2-1.7 0-3.3-.7-4.5-1.9H6.6c-1.7 0-3.2-1.2-3.4-2.9-1.6-.3-2.9-1.7-2.9-3.4V3.4C.3 1.5 1.9 0 3.7 0H19Zm3.5 17.1c-2.6 0-4.7 2.1-4.7 4.7s2.1 4.7 4.7 4.7 4.7-2.1 4.7-4.7c0-2.5-2.1-4.7-4.7-4.7Zm1.2-6.9h-19v12.5c0 1 .8 1.9 1.9 1.9h10.3c-.4-.8-.6-1.8-.6-2.7 0-3.4 2.8-6.2 6.2-6.2.32 0 .704 0 1.0496.0512l.1504.0288V10.2ZM19 1.5H3.7c-1 0-1.9.8-1.9 1.9v16.4c0 .8.6 1.6 1.4 1.8V6.3c0-1.9 1.5-3.4 3.4-3.4h14.2c-.2-.8-1-1.4-1.8-1.4Zm2.8 2.9H6.6c-1 0-1.9.8-1.9 1.9v2.4h19V6.3c0-1-.8-1.9-1.9-1.9Z"/><path d="M18.5 14h2.3c.4 0 .8-.3.8-.8s-.3-.8-.8-.8h-2.3c-.4 0-.8.3-.8.8s.4.8.8.8ZM12.8 14h2.3c.4 0 .8-.3.8-.8s-.3-.8-.8-.8h-2.3c-.4 0-.8.3-.8.8s.4.8.8.8ZM12.8 17.3h2.3c.4 0 .8-.3.8-.8s-.3-.8-.8-.8h-2.3c-.4 0-.8.3-.8.8s.4.8.8.8ZM12.8 20.7h2.3c.4 0 .8-.3.8-.8s-.3-.8-.8-.8h-2.3c-.4 0-.8.3-.8.8s.4.8.8.8ZM7.2 14h2.3c.4 0 .8-.3.8-.8s-.3-.8-.8-.8H7.2c-.4 0-.8.3-.8.8s.4.8.8.8ZM7.2 17.3h2.3c.4 0 .8-.3.8-.8s-.3-.8-.8-.8H7.2c-.4 0-.8.3-.8.8s.4.8.8.8ZM7.2 20.7h2.3c.4 0 .8-.3.8-.8s-.3-.8-.8-.8H7.2c-.4 0-.8.3-.8.8s.4.8.8.8ZM22.5 24.6c.4 0 .8-.3.8-.8v-1.2h1.2c.4 0 .8-.3.8-.8s-.3-.8-.8-.8h-1.2v-1c0-.4-.3-.8-.8-.8s-.8.3-.8.8v1.2h-1.2c-.4 0-.8.3-.8.8s.3.8.8.8h1.2V24c0 .3.4.6.8.6Z"/></g></svg>