<svg width="49" height="49" viewBox="0 0 49 49" fill="none" xmlns="http://www.w3.org/2000/svg">
<g clip-path="url(#clip0_529_221)">
<path d="M38.111 49H10.8889C7.98052 49 5.24611 47.8673 3.18934 45.8106C1.13266 43.7541 0 41.0196 0 38.111V35.3887C0 33.8852 1.21872 32.6664 2.72224 32.6664C4.22576 32.6664 5.44448 33.8852 5.44448 35.3887V38.111C5.44448 39.5653 6.01085 40.9325 7.039 41.9607C8.06744 42.989 9.43459 43.5555 10.8889 43.5555H38.111C39.5652 43.5555 40.9324 42.989 41.9607 41.9607C42.989 40.9323 43.5555 39.5651 43.5555 38.111V35.3887C43.5555 33.8852 44.7742 32.6664 46.2777 32.6664C47.7811 32.6664 49 33.8852 49 35.3887V38.111C49 41.0194 47.8673 43.7537 45.8106 45.8106C43.7538 47.8673 41.0194 49 38.111 49ZM24.5 38.111C23.7891 38.1119 23.1063 37.8339 22.5983 37.3367L22.5981 37.3365L22.5927 37.3312L22.5911 37.3297C22.5896 37.3283 22.5883 37.3269 22.5869 37.3255L22.5841 37.3227C22.5831 37.3217 22.5821 37.3207 22.5811 37.3198L22.5752 37.3139L11.6862 26.4248C10.6232 25.3618 10.6232 23.6381 11.6862 22.575C12.7493 21.5119 14.473 21.5118 15.5361 22.575L21.7778 28.8167V2.72224C21.7777 1.21872 22.9964 0 24.5 0C26.0035 0 27.2223 1.21872 27.2223 2.72224V28.8166L33.4639 22.575C34.5269 21.5119 36.2508 21.5119 37.3138 22.575C38.3768 23.638 38.3768 25.3618 37.3138 26.4248L26.4248 37.3137L26.4189 37.3196L26.4159 37.3225L26.4131 37.3253C26.4118 37.3268 26.4103 37.3281 26.409 37.3295L26.4073 37.331C26.4056 37.3328 26.4038 37.3346 26.402 37.3363L26.4018 37.3365C26.3719 37.3657 26.3415 37.394 26.3105 37.4216C26.0883 37.6202 25.8348 37.7807 25.5602 37.8966L25.5576 37.8978C25.5565 37.8981 25.5557 37.8987 25.5546 37.899C25.2208 38.0394 24.8621 38.1115 24.5 38.111Z" fill="url(#paint0_linear_529_221)"/>
</g>
<defs>
<linearGradient id="paint0_linear_529_221" x1="24.5" y1="0" x2="24.5" y2="49" gradientUnits="userSpaceOnUse">
<stop stop-color="#3812A0"/>
<stop offset="1" stop-color="#9D8CDC"/>
</linearGradient>
<clipPath id="clip0_529_221">
<rect width="49" height="49" fill="white"/>
</clipPath>
</defs>
</svg>
