<svg width="51" height="52" viewBox="0 0 51 52" fill="none" xmlns="http://www.w3.org/2000/svg">
<path d="M33.046 28.1168L28.7746 32.4026C27.0425 34.1408 23.9949 34.1783 22.2253 32.4026L17.9537 28.1168L2.6123 43.5081C3.18337 43.7721 3.813 43.9297 4.48237 43.9297H46.5175C47.1869 43.9297 47.8163 43.7723 48.3872 43.5082L33.046 28.1168Z" fill="#7561C1"/>
<path d="M46.5176 8.07031H4.48242C3.81305 8.07031 3.18342 8.22789 2.61255 8.49196L19.006 24.9398C19.0071 24.9409 19.0084 24.9411 19.0095 24.9421C19.0101 24.9429 19.0106 24.9438 19.0107 24.9447L24.3411 30.2928C24.9073 30.8589 26.0929 30.8589 26.6591 30.2928L31.9884 24.9456C31.9884 24.9456 31.9896 24.9432 31.9907 24.9421C31.9907 24.9421 31.9931 24.9409 31.9942 24.9398L48.3872 8.49186C47.8164 8.2277 47.187 8.07031 46.5176 8.07031ZM0.47673 10.5817C0.181289 11.1791 0 11.8423 0 12.5527V39.4473C0 40.1577 0.18109 40.8209 0.476631 41.4183L15.8447 26.0005L0.47673 10.5817ZM50.5233 10.5815L35.1554 26.0005L50.5233 41.4185C50.8187 40.8211 51 40.1579 51 39.4473V12.5527C51 11.8421 50.8187 11.1789 50.5233 10.5815Z" fill="#7561C1"/>
</svg>
