<svg width="154" height="46" viewBox="0 0 154 46" fill="none" xmlns="http://www.w3.org/2000/svg">
<path d="M92.5948 17.3916H88.2648V37.888H92.5948V17.3916Z" fill="white"/>
<path d="M92.5948 17.3916H88.2648V37.888H92.5948V17.3916Z" fill="white"/>
<path d="M92.5948 17.3916H88.2648V37.888H92.5948V17.3916Z" stroke="white" stroke-width="0.617698" stroke-miterlimit="10"/>
<path d="M92.5948 17.3916H88.2648V37.888H92.5948V17.3916Z" stroke="white" stroke-width="0.617698" stroke-miterlimit="10"/>
<path d="M92.3715 14.9549H88.4939C88.4716 14.9551 88.4502 14.951 88.4298 14.9427C88.4093 14.9345 88.3908 14.9223 88.3751 14.9068C88.3594 14.8914 88.3471 14.873 88.3385 14.8527C88.33 14.8324 88.3257 14.8107 88.3257 14.7886V10.9073C88.3257 10.8627 88.3433 10.82 88.3751 10.7885C88.4065 10.7569 88.4493 10.7393 88.4939 10.7393H92.3715C92.4162 10.7392 92.459 10.7569 92.4903 10.7885C92.5217 10.82 92.5393 10.8627 92.5393 10.9073V14.785C92.5402 14.8073 92.5364 14.8296 92.5284 14.8504C92.5203 14.8713 92.5079 14.8902 92.4922 14.9061C92.4766 14.922 92.4575 14.9346 92.4366 14.9429C92.4162 14.9513 92.3938 14.9554 92.3715 14.9549Z" fill="#7561C1" stroke="#7561C1" stroke-width="0.617698" stroke-miterlimit="10"/>
<path fill-rule="evenodd" clip-rule="evenodd" d="M5.0697 21.6279C5.0697 18.7385 6.21753 15.9675 8.26064 13.9243C10.3038 11.8812 13.0748 10.7334 15.9642 10.7334H33.8126L28.1345 15.9443H9.63248V21.6279H5.0697Z" fill="white"/>
<path fill-rule="evenodd" clip-rule="evenodd" d="M5.0697 30.0941C5.0697 28.9824 5.28867 27.8816 5.71417 26.8544C6.13962 25.8273 6.76328 24.8938 7.54944 24.1076C8.3356 23.3215 9.26891 22.6979 10.2961 22.2724C11.3233 21.847 12.4242 21.6279 13.536 21.6279H26.325V26.8387H9.63248V30.0941H5.0697Z" fill="white"/>
<path d="M81.2241 17.3496H81.1984C80.4246 17.3643 79.4312 17.7189 78.3028 18.9986C78.1184 19.3771 77.9468 19.7556 77.7657 20.134C77.7657 20.134 77.7529 19.1019 77.7491 19.1093V17.4788H73.4229V37.8387H77.7491V24.6694C77.7491 24.4607 77.8176 22.915 79.1247 21.9439C79.7435 21.4934 80.4921 21.2562 81.2574 21.2681H84.9006L84.9543 17.3496H81.2241Z" fill="white" stroke="white" stroke-width="0.617698" stroke-miterlimit="10"/>
<path fill-rule="evenodd" clip-rule="evenodd" d="M5.0697 29.9258C5.0697 32.0613 5.91813 34.1099 7.42828 35.62C8.17603 36.3676 9.06377 36.9608 10.0408 37.3653C11.0178 37.7703 12.0649 37.9785 13.1224 37.9785H33.9181V32.7581H9.63248V29.9258H5.0697Z" fill="white"/>
<path d="M44.0312 17.3916H51.6276C52.2455 17.3914 52.8567 17.5128 53.4276 17.7489C53.998 17.9851 54.5165 18.3313 54.9533 18.768C55.3901 19.2045 55.7366 19.7231 55.9729 20.2935C56.2091 20.8638 56.3308 21.4756 56.3308 22.093V37.8361H51.9988V21.7717H41.4555V37.8361H37.1288V17.3916H41.3871V20.4403L44.0312 17.3916Z" fill="white" stroke="white" stroke-width="0.617698" stroke-miterlimit="10"/>
<path d="M59.5571 17.5306V10.7354H64.007V17.5306H70.2116V21.4969H64.007V33.1058C64.007 34.5427 65.2295 34.3782 65.2295 34.3782H69.5557V37.9863H64.2584C63.0112 37.9863 61.8158 37.491 60.9341 36.6093C60.0524 35.7276 59.5571 34.5317 59.5571 33.285V17.5306Z" fill="white"/>
<path d="M95.7671 38.05L103.707 27.5362L95.9373 17.2324H101.046L106.494 24.7072H107.17L112.617 17.2324H117.769L109.952 27.5248L117.892 38.05H112.7L107.16 30.4076H106.484L100.945 38.05H95.7671Z" fill="white"/>
<path d="M120.794 16.3881V6.79395H122.274V15.0449H126.893V16.3881H120.794ZM129.976 16.58C129.492 16.58 129.058 16.4977 128.674 16.3333C128.3 16.1688 127.998 15.9267 127.77 15.6069C127.55 15.287 127.441 14.8987 127.441 14.4418C127.441 13.9759 127.55 13.5921 127.77 13.2906C127.998 12.9799 128.304 12.7469 128.688 12.5916C129.081 12.4362 129.524 12.3586 130.017 12.3586H132.073V11.92C132.073 11.5271 131.955 11.2118 131.717 10.9742C131.479 10.7367 131.114 10.6179 130.62 10.6179C130.136 10.6179 129.766 10.7321 129.51 10.9605C129.254 11.189 129.085 11.486 129.003 11.8514L127.687 11.4265C127.797 11.0611 127.971 10.7321 128.208 10.4397C128.455 10.1382 128.779 9.89605 129.181 9.71329C129.583 9.53058 130.068 9.43918 130.634 9.43918C131.511 9.43918 132.201 9.66305 132.704 10.1108C133.206 10.5585 133.458 11.1935 133.458 12.0159V14.7982C133.458 15.0723 133.585 15.2094 133.841 15.2094H134.417V16.3881H133.362C133.042 16.3881 132.781 16.3059 132.58 16.1414C132.38 15.9769 132.279 15.7531 132.279 15.4698V15.4287H132.073C132 15.5658 131.891 15.7257 131.745 15.9084C131.598 16.0911 131.383 16.2511 131.1 16.3881C130.817 16.5161 130.442 16.58 129.976 16.58ZM130.182 15.415C130.748 15.415 131.205 15.2551 131.553 14.9353C131.9 14.6064 132.073 14.1586 132.073 13.5921V13.455H130.1C129.725 13.455 129.424 13.5373 129.195 13.7017C128.966 13.8571 128.852 14.0901 128.852 14.4007C128.852 14.7114 128.971 14.9581 129.209 15.1409C129.446 15.3236 129.771 15.415 130.182 15.415ZM139.285 16.58C138.627 16.58 138.119 16.4612 137.763 16.2236C137.416 15.9861 137.156 15.7211 136.982 15.4287H136.763V16.3881H135.378V6.79395H136.79V10.5494H137.01C137.119 10.3666 137.265 10.193 137.448 10.0286C137.631 9.85493 137.873 9.71329 138.175 9.60368C138.476 9.49403 138.846 9.43918 139.285 9.43918C139.851 9.43918 140.372 9.57626 140.847 9.85037C141.322 10.1245 141.701 10.522 141.985 11.0428C142.268 11.5636 142.41 12.1849 142.41 12.9068V13.1124C142.41 13.8434 142.264 14.4693 141.971 14.9901C141.688 15.5018 141.309 15.8947 140.833 16.1688C140.368 16.4429 139.851 16.58 139.285 16.58ZM138.873 15.3465C139.485 15.3465 139.988 15.15 140.381 14.7571C140.783 14.3642 140.984 13.8022 140.984 13.0712V12.9479C140.984 12.2261 140.788 11.6687 140.395 11.2758C140.002 10.8829 139.495 10.6864 138.873 10.6864C138.271 10.6864 137.768 10.8829 137.366 11.2758C136.973 11.6687 136.777 12.2261 136.777 12.9479V13.0712C136.777 13.8022 136.973 14.3642 137.366 14.7571C137.768 15.15 138.271 15.3465 138.873 15.3465ZM146.516 16.58C145.657 16.58 144.945 16.3881 144.378 16.0043C143.812 15.6206 143.464 15.0404 143.336 14.2637L144.652 13.9484C144.725 14.3231 144.849 14.62 145.022 14.8394C145.196 15.0586 145.411 15.2139 145.666 15.3053C145.932 15.3967 146.215 15.4424 146.516 15.4424C146.964 15.4424 147.307 15.3556 147.544 15.182C147.791 15.0084 147.914 14.7845 147.914 14.5104C147.914 14.2363 147.8 14.0353 147.571 13.9073C147.343 13.7794 147.005 13.6743 146.558 13.5921L146.091 13.5099C145.635 13.4276 145.219 13.3089 144.844 13.1535C144.47 12.9981 144.172 12.7835 143.953 12.5093C143.734 12.2352 143.624 11.8834 143.624 11.454C143.624 10.8143 143.862 10.3209 144.337 9.97371C144.812 9.61737 145.442 9.43918 146.228 9.43918C146.987 9.43918 147.608 9.61281 148.092 9.96002C148.586 10.2981 148.906 10.7595 149.052 11.3443L147.736 11.7144C147.654 11.3032 147.48 11.0154 147.215 10.8509C146.95 10.6773 146.621 10.5905 146.228 10.5905C145.845 10.5905 145.543 10.6636 145.324 10.8098C145.105 10.9469 144.995 11.1433 144.995 11.3992C144.995 11.6733 145.1 11.8743 145.31 12.0022C145.529 12.1301 145.822 12.2261 146.187 12.29L146.667 12.3723C147.151 12.4545 147.594 12.5687 147.996 12.7149C148.398 12.8611 148.714 13.0713 148.942 13.3454C149.18 13.6195 149.299 13.985 149.299 14.4418C149.299 15.118 149.047 15.6434 148.545 16.018C148.042 16.3927 147.366 16.58 146.516 16.58Z" fill="#7561C1"/>
</svg>
