<svg width="51" height="52" viewBox="0 0 51 52" fill="none" xmlns="http://www.w3.org/2000/svg">
<g clip-path="url(#clip0_529_284)">
<path d="M40.1019 15.4622C39.6139 16.1786 38.9401 16.7488 38.1528 17.1117C38.1644 17.3146 38.1719 17.5246 38.1783 17.7397C39.1617 17.8748 39.9878 18.0938 40.6496 18.3258C40.6871 17.0674 40.4694 16.1425 40.1019 15.4622ZM31.5272 23.7677C31.8546 24.9438 32.0835 26.148 32.0064 27.0536H40.3421C40.2653 26.1478 40.4942 24.9436 40.8218 23.7673L41.4482 27.0534H44.0884L42.8224 20.4133C42.7824 20.2034 42.6912 20.0066 42.5567 19.8406C42.4223 19.6745 42.2489 19.5442 42.0519 19.4614C41.3666 19.058 39.3534 18.0625 36.1745 18.0625C33.001 18.0625 30.9896 19.0544 30.3009 19.459C30.1029 19.5416 29.9286 19.672 29.7935 19.8386C29.6583 20.0051 29.5666 20.2026 29.5266 20.4133L28.2607 27.0534H30.9008L31.5272 23.7677ZM32.891 22.5288H35.4607V23.2865H32.891V22.5288Z" fill="#7561C1"/>
<path d="M36.1741 17.0864C38.5431 17.0864 40.4635 15.166 40.4635 12.797C40.4635 10.4281 38.5431 8.50769 36.1741 8.50769C33.8052 8.50769 31.8848 10.4281 31.8848 12.797C31.8848 15.166 33.8052 17.0864 36.1741 17.0864Z" fill="#7561C1"/>
<path d="M4.269 27.6519H0V28.8265H1.01029V46.7604H4.28656C4.27506 46.6546 4.2692 46.5483 4.269 46.4418V27.6519ZM16.098 27.6519V46.4418C16.098 46.5495 16.0915 46.6557 16.0803 46.7604H49.9899V28.8265H51.0002V27.6521H16.0978L16.098 27.6519Z" fill="#7561C1"/>
<path d="M6.66127 16.6703L4.85535 25.5912C4.84092 25.665 4.83199 25.7397 4.82862 25.8148C4.80348 25.9559 4.78812 26.1001 4.78812 26.2482V46.442C4.78812 47.8047 5.89278 48.9085 7.2546 48.9085C8.61701 48.9085 9.72167 47.8047 9.72167 46.442V28.1499L10.6462 28.337V46.442C10.6462 47.8047 11.751 48.9085 13.1129 48.9085C14.4751 48.9085 15.5797 47.8047 15.5797 46.442V27.0043L17.4908 17.5651C17.7438 18.5407 17.8874 19.9662 17.74 22.0085C17.7185 22.3049 17.7803 22.6014 17.9182 22.8646C18.0562 23.1278 18.2649 23.3472 18.5209 23.4982C18.7768 23.6492 19.0698 23.7258 19.3669 23.7193C19.664 23.7127 19.9534 23.6234 20.2025 23.4613L27.0297 19.0179C27.3845 18.7871 27.633 18.4247 27.7206 18.0106C27.8082 17.5965 27.7278 17.1646 27.497 16.8098C27.2661 16.455 26.9037 16.2065 26.4897 16.1189C26.0756 16.0313 25.6436 16.1117 25.2888 16.3426L20.9472 19.1677C20.5809 13.829 17.9746 12.7696 17.0046 12.56C16.9811 12.554 16.9585 12.5468 16.9346 12.542L9.37992 11.0124L9.37673 11.012C9.25663 10.9881 9.13732 10.9801 9.02001 10.9841C8.63178 10.9737 8.08892 11.0461 7.46906 11.3811C5.76689 12.3014 4.37474 14.6494 3.21263 18.5593C3.11657 18.8825 3.12533 19.2278 3.23766 19.5457C3.34998 19.8636 3.5601 20.1378 3.83788 20.3289L5.20149 21.2669L6.15612 16.5522L6.66127 16.6703ZM19.3757 8.4721C19.8677 6.04213 18.297 3.67381 15.867 3.18183C13.4372 2.68985 11.0685 4.26075 10.5765 6.69072C10.2372 8.36716 10.88 10.0141 12.1091 11.0359L16.2736 11.8792C17.8036 11.416 19.0362 10.1487 19.3757 8.4721Z" fill="#7561C1"/>
</g>
<defs>
<clipPath id="clip0_529_284">
<rect width="51" height="51" fill="white" transform="translate(0 0.5)"/>
</clipPath>
</defs>
</svg>
