<svg width="19" height="31" viewBox="0 0 19 31" fill="none" xmlns="http://www.w3.org/2000/svg">
<path d="M9.05025 0.186157C4.05188 0.186157 0 4.238 0 9.23616C0 14.2343 5.76762 23.2654 9.05025 27.1373C12.3257 23.2648 18.1002 14.2343 18.1002 9.23612C18.1002 4.238 14.0484 0.186157 9.05025 0.186157ZM9.05025 14.3075C6.23619 14.3075 3.95506 12.0264 3.95506 9.21234C3.95506 6.39825 6.23619 4.11716 9.05025 4.11716C11.8641 4.11716 14.1455 6.39825 14.1455 9.21234C14.1455 12.0264 11.8641 14.3075 9.05025 14.3075Z" fill="white"/>
<path d="M13.8094 24.3746C14.1863 24.5495 14.5492 24.7512 14.8875 24.993C14.9404 25.0308 15.0837 25.144 14.8484 24.9616C14.885 24.99 14.9208 25.0195 14.9565 25.0489C15.0258 25.1061 15.0924 25.1666 15.1577 25.2282C15.2809 25.3443 15.3941 25.4706 15.4982 25.6038L15.349 25.412C15.4748 25.5777 15.5823 25.7537 15.6658 25.9444L15.5689 25.7123C15.6397 25.8819 15.6884 26.0565 15.7123 26.2388L15.6801 25.9894C15.6973 26.1418 15.6962 26.2957 15.6769 26.4478L15.7102 26.207C15.6897 26.3507 15.6536 26.49 15.6032 26.626C15.5387 26.8005 15.6987 26.407 15.6426 26.5326C15.6271 26.5667 15.6107 26.6004 15.5935 26.6337C15.5543 26.7107 15.5093 26.7846 15.4622 26.8569C15.4404 26.8899 15.4179 26.9223 15.3947 26.9543C15.3128 27.0685 15.5707 26.7303 15.4481 26.8835C15.3895 26.9567 15.3265 27.0263 15.2617 27.0942C15.1312 27.2311 14.988 27.3556 14.8395 27.4726L15.0314 27.3234C14.5709 27.6808 14.0533 27.9553 13.5167 28.1797L13.7488 28.0828C12.7926 28.4772 11.7776 28.7124 10.7537 28.8453L11.0031 28.8131C9.66093 28.9823 8.2959 28.9763 6.95559 28.7925L7.19637 28.8258C6.65553 28.7496 6.11975 28.6438 5.59221 28.502C5.3549 28.4382 5.12009 28.3655 4.88771 28.2857C4.77639 28.2472 4.66577 28.2067 4.55593 28.1642C4.50224 28.1434 4.44875 28.1221 4.39546 28.1002C4.70512 28.2262 4.45231 28.1236 4.38303 28.093C3.99112 27.9199 3.61306 27.7135 3.26171 27.4679C3.22277 27.4405 3.18423 27.4126 3.14609 27.3841C3.28971 27.4943 3.3254 27.5215 3.25315 27.4655C3.23496 27.4512 3.21687 27.4368 3.1989 27.4223C3.11993 27.3591 3.0439 27.2923 2.96971 27.2236C2.83845 27.1018 2.71709 26.9697 2.60678 26.8286L2.75603 27.0204C2.62662 26.8517 2.516 26.6711 2.43165 26.4757L2.5285 26.7077C2.46209 26.5481 2.41518 26.3831 2.39075 26.2118L2.4229 26.4612C2.40208 26.2971 2.40257 26.131 2.42437 25.9671L2.39106 26.2078C2.41296 26.063 2.45021 25.9232 2.50168 25.7861C2.55734 25.6378 2.40134 26.0151 2.46775 25.8702C2.48353 25.8357 2.50106 25.8022 2.51853 25.7686C2.55437 25.6999 2.59528 25.6338 2.63746 25.5689C2.65912 25.5355 2.68228 25.5032 2.7054 25.4708C2.80178 25.336 2.55434 25.6632 2.65924 25.5327C2.71187 25.4672 2.76843 25.4051 2.82599 25.3439C2.95903 25.2027 3.10603 25.075 3.25806 24.9546L3.06621 25.1039C3.43034 24.8216 3.82918 24.5916 4.24518 24.3949C4.70756 24.1763 4.82003 23.5223 4.57918 23.1115C4.30384 22.6418 3.75731 22.5593 3.29578 22.7775C2.45196 23.1765 1.69634 23.7224 1.13 24.4686C0.898183 24.774 0.726152 25.1301 0.625183 25.5C0.512089 25.9143 0.52387 26.3061 0.583401 26.7237C0.670995 27.3379 1.04025 27.8996 1.44696 28.3506C1.88637 28.8378 2.46103 29.221 3.04 29.5223C4.56362 30.3151 6.29553 30.6592 7.99643 30.7756C9.78337 30.8979 11.6401 30.7315 13.3566 30.2082C14.7573 29.7813 16.1355 29.0951 17.0185 27.8916C17.374 27.4072 17.5742 26.7836 17.5682 26.1831C17.5595 25.3127 17.1151 24.5245 16.5082 23.9253C16.0062 23.4297 15.3839 23.0462 14.7469 22.7506C14.5132 22.6421 14.2925 22.5881 14.0355 22.6569C13.7955 22.7217 13.5908 22.8787 13.4662 23.0937C13.2279 23.5068 13.3454 24.1592 13.8094 24.3746Z" fill="white"/>
</svg>
