<svg width="36" height="19" viewBox="0 0 36 19" fill="none" xmlns="http://www.w3.org/2000/svg">
<path d="M35.7621 8.92321L27.5804 0.741506C27.2865 0.398317 26.77 0.35831 26.4268 0.652282C26.0836 0.946183 26.0436 1.46269 26.3376 1.80588C26.365 1.83787 26.3948 1.86775 26.4268 1.8951L33.2094 8.68591H0.818142C0.366322 8.68591 0 9.05223 0 9.50412C0 9.95601 0.366322 10.3223 0.818142 10.3223H33.2094L26.4268 17.1048C26.0836 17.3987 26.0436 17.9152 26.3376 18.2584C26.6316 18.6016 27.148 18.6416 27.4912 18.3477C27.5232 18.3202 27.5531 18.2904 27.5804 18.2584L35.7621 10.0767C36.0793 9.75773 36.0793 9.24235 35.7621 8.92321Z" fill="black"/>
</svg>
