<svg width="36" height="37" viewBox="0 0 36 37" fill="none" xmlns="http://www.w3.org/2000/svg">
<g clip-path="url(#clip0_529_497)">
<path d="M35.7621 17.9233L27.5804 9.74157C27.2865 9.39838 26.77 9.35837 26.4268 9.65234C26.0836 9.94624 26.0436 10.4628 26.3376 10.8059C26.365 10.8379 26.3948 10.8678 26.4268 10.8952L33.2094 17.686H0.818142C0.366322 17.686 0 18.0523 0 18.5042C0 18.9561 0.366322 19.3223 0.818142 19.3223H33.2094L26.4268 26.1049C26.0836 26.3988 26.0436 26.9153 26.3376 27.2585C26.6316 27.6017 27.148 27.6417 27.4912 27.3477C27.5232 27.3203 27.5531 27.2905 27.5804 27.2585L35.7621 19.0768C36.0793 18.7578 36.0793 18.2424 35.7621 17.9233Z" fill="white" fill-opacity="0.69"/>
</g>
<defs>
<clipPath id="clip0_529_497">
<rect width="36" height="36" fill="white" transform="translate(0 0.5)"/>
</clipPath>
</defs>
</svg>
