<svg width="1409" height="1197" viewBox="0 0 1409 1197" fill="none" xmlns="http://www.w3.org/2000/svg">
<path d="M1270.87 532.645C1281.08 612.969 1223.06 694.379 1120.67 761.052C1018.3 827.704 871.743 879.52 705.244 900.673C538.746 921.827 383.883 908.307 268.107 869.37C152.294 830.42 75.7601 766.105 65.555 685.781C55.3498 605.457 113.37 524.047 215.763 457.374C318.124 390.722 464.686 338.906 631.184 317.752C797.683 296.599 952.545 310.119 1068.32 349.056C1184.13 388.006 1260.67 452.321 1270.87 532.645Z" stroke="#BAB3D6" stroke-opacity="0.29"/>
<path d="M1348.49 772.117C1325.02 849.326 1239.16 899.734 1119.01 918.663C998.904 937.586 844.71 925.012 684.911 876.43C525.111 827.848 390.01 752.471 300.759 669.899C211.479 587.301 168.202 497.633 191.675 420.423C215.148 343.214 301.01 292.807 421.156 273.878C541.264 254.955 695.459 267.529 855.258 316.11C1015.06 364.692 1150.16 440.069 1239.41 522.641C1328.69 605.24 1371.97 694.908 1348.49 772.117Z" stroke="#BAB3D6" stroke-opacity="0.29"/>
<path d="M1234.37 336.606C1274.37 406.111 1260.16 498.173 1204.63 590.912C1149.12 683.634 1052.36 776.925 927.495 848.778C802.633 920.631 673.355 957.417 565.293 958.827C457.212 960.237 370.474 926.267 330.477 856.762C290.479 787.256 304.69 695.194 360.215 602.456C415.731 509.733 512.492 416.442 637.354 344.589C762.216 272.736 891.494 235.951 999.556 234.54C1107.64 233.13 1194.37 267.1 1234.37 336.606Z" stroke="#BAB3D6" stroke-opacity="0.29"/>
</svg>
