<svg width="31" height="31" viewBox="0 0 31 31" fill="none" xmlns="http://www.w3.org/2000/svg">
<path d="M21.5 11.5C23.1569 11.5 24.5 10.1569 24.5 8.5C24.5 6.84315 23.1569 5.5 21.5 5.5C19.8431 5.5 18.5 6.84315 18.5 8.5C18.5 10.1569 19.8431 11.5 21.5 11.5Z" stroke="#4B5563" stroke-width="2" stroke-linecap="round" stroke-linejoin="round"/>
<path d="M21.5 25.5C23.1569 25.5 24.5 24.1569 24.5 22.5C24.5 20.8431 23.1569 19.5 21.5 19.5C19.8431 19.5 18.5 20.8431 18.5 22.5C18.5 24.1569 19.8431 25.5 21.5 25.5Z" stroke="#4B5563" stroke-width="2" stroke-linecap="round" stroke-linejoin="round"/>
<path d="M11.5 14.5L18.5 10.5M11.5 16.5L18.5 20.5" stroke="#4B5563" stroke-width="2" stroke-linecap="round" stroke-linejoin="round"/>
<path d="M8.5 18.5C10.1569 18.5 11.5 17.1569 11.5 15.5C11.5 13.8431 10.1569 12.5 8.5 12.5C6.84315 12.5 5.5 13.8431 5.5 15.5C5.5 17.1569 6.84315 18.5 8.5 18.5Z" stroke="#4B5563" stroke-width="2" stroke-linecap="round" stroke-linejoin="round"/>
</svg>
