<svg width="39" height="40" viewBox="0 0 39 40" fill="none" xmlns="http://www.w3.org/2000/svg">
<path d="M28.4981 15.0077C27.3835 15.0077 26.3551 14.629 25.5292 13.9901C24.5822 13.2578 23.9016 12.1835 23.6613 10.9452C23.6018 10.6393 23.5698 10.3235 23.5667 10H20.3829V18.9232L20.379 23.8108C20.379 25.1175 19.5494 26.2255 18.3992 26.6152C18.0655 26.7282 17.705 26.7818 17.3297 26.7607C16.8506 26.7337 16.4016 26.5853 16.0114 26.346C15.181 25.8365 14.618 24.9125 14.6027 23.8553C14.5787 22.2032 15.881 20.8562 17.4907 20.8562C17.8084 20.8562 18.1136 20.9093 18.3992 21.006V18.5672V17.6903C18.098 17.6447 17.7913 17.6207 17.4811 17.6207C15.7192 17.6207 14.0714 18.3718 12.8935 19.7252C12.0031 20.7478 11.4691 22.0525 11.3867 23.4207C11.2788 25.218 11.92 26.9265 13.1635 28.187C13.3462 28.3722 13.5381 28.5438 13.7387 28.7023C14.8049 29.5438 16.1083 30 17.4811 30C17.7913 30 18.098 29.9765 18.3992 29.9308C19.6817 29.736 20.865 29.1338 21.7987 28.187C22.9461 27.024 23.5801 25.4797 23.5869 23.8362L23.5706 16.5374C24.1179 16.9705 24.7164 17.3288 25.3588 17.607C26.3578 18.0393 27.417 18.2585 28.5072 18.258V15.8868V15.007L28.4981 15.0077Z" fill="white"/>
</svg>
