<svg width="40" height="40" viewBox="0 0 40 40" fill="none" xmlns="http://www.w3.org/2000/svg">
<path d="M20 30C14.4844 30 10 25.5182 10 20.0038C10 14.4818 14.4844 10 20 10C25.5157 10 30 14.4818 30 19.9962C30 25.5103 25.5157 30 20 30ZM28.4297 21.3648C28.1407 21.271 25.789 20.5748 23.1093 20.9973C24.2265 24.0633 24.6797 26.5663 24.7657 27.0825C26.6875 25.792 28.0547 23.7427 28.4297 21.3648ZM23.336 27.8725C23.211 27.1217 22.711 24.5092 21.5157 21.3962C21.5 21.404 21.4765 21.4118 21.461 21.4118C16.6406 23.0935 14.9141 26.4333 14.7578 26.7462C16.2031 27.8725 18.0235 28.5452 20 28.5452C21.1797 28.553 22.3125 28.3105 23.336 27.8725ZM13.6563 25.7215C13.8516 25.393 16.1953 21.5135 20.6015 20.0822C20.711 20.043 20.8282 20.0117 20.9375 19.9805C20.7265 19.4955 20.4922 19.0105 20.2422 18.5335C15.9766 19.8083 11.8359 19.7537 11.4609 19.7458C11.4609 19.8318 11.4531 19.9178 11.4531 20.0038C11.4609 22.2018 12.2891 24.2042 13.6563 25.7215ZM11.6406 18.2597C12.0234 18.2675 15.5391 18.2832 19.539 17.2193C18.125 14.7008 16.5937 12.589 16.375 12.2839C13.9766 13.4102 12.1953 15.616 11.6406 18.2597ZM18 11.7051C18.2343 12.018 19.789 14.1298 21.1875 16.7032C24.2265 15.5612 25.5078 13.8404 25.664 13.6214C24.1563 12.2839 22.1718 11.4705 20 11.4705C19.3125 11.4705 18.6407 11.5565 18 11.7051ZM26.6093 14.607C26.4297 14.8494 25 16.6875 21.8438 17.9782C22.039 18.3848 22.2343 18.7993 22.414 19.214C22.4765 19.3625 22.539 19.5112 22.6015 19.652C25.4453 19.2922 28.2657 19.871 28.5468 19.9257C28.5235 17.9155 27.8047 16.0618 26.6093 14.607Z" fill="white"/>
</svg>
