<svg width="40" height="40" viewBox="0 0 40 40" fill="none" xmlns="http://www.w3.org/2000/svg">
<path fill-rule="evenodd" clip-rule="evenodd" d="M15.5731 29.878C17.0508 29.9678 18.5268 30.0032 20 29.9998C21.473 30.0032 22.9492 29.9678 24.427 29.878C25.6715 29.8023 26.8522 29.3902 27.8365 28.5873C28.7847 27.8142 29.3795 26.7785 29.6755 25.6183C29.9492 24.5467 29.9638 23.4693 29.9772 22.4962L29.9775 22.477C29.9887 21.654 29.998 20.8283 30 20.0018V20V19.9982C29.998 19.1717 29.9887 18.346 29.9775 17.523L29.9772 17.5038C29.9638 16.5307 29.949 15.4534 29.6755 14.3816C29.3795 13.2214 28.7847 12.1858 27.8365 11.4127C26.8522 10.6099 25.6715 10.1977 24.427 10.1221C22.9492 10.0322 21.473 9.99678 20 10.0002C18.5268 9.99678 17.0508 10.0322 15.5731 10.1221C14.3285 10.1977 13.1479 10.6099 12.1634 11.4127C11.2152 12.1858 10.6204 13.2214 10.3244 14.3815C10.0508 15.4535 10.0361 16.531 10.0228 17.5042L10.0226 17.523C10.0113 18.346 10.0019 19.1717 10 19.9982V20V20.0018C10.0019 20.8283 10.0113 21.654 10.0226 22.477L10.0228 22.4958C10.0361 23.469 10.0508 24.5465 10.3244 25.6185C10.6204 26.7785 11.2152 27.8142 12.1634 28.5873C13.1479 29.3902 14.3285 29.8023 15.5731 29.878ZM19.9982 28.4373C18.5517 28.4407 17.1083 28.406 15.6679 28.3183C14.7117 28.2602 13.8534 27.9493 13.1509 27.3765C12.4983 26.8442 12.0641 26.1165 11.8384 25.2322C11.6162 24.3613 11.5987 23.4612 11.585 22.4557C11.5738 21.6352 11.5645 20.817 11.5626 20C11.5645 19.183 11.5738 18.3648 11.585 17.5443C11.5987 16.5388 11.6162 15.6387 11.8384 14.7679C12.0641 13.8835 12.4983 13.1558 13.1509 12.6236C13.8534 12.0507 14.7117 11.7398 15.6679 11.6817C17.1083 11.5941 18.5517 11.5593 19.9982 11.5627H20H20.0018C21.4482 11.5593 22.8917 11.5941 24.332 11.6817C25.2883 11.7398 26.1465 12.0507 26.849 12.6236C27.5017 13.1558 27.9358 13.8835 28.1615 14.7679C28.3837 15.6387 28.4012 16.5388 28.415 17.5443C28.4262 18.3648 28.4355 19.1828 28.4375 20C28.4355 20.8172 28.4262 21.6352 28.415 22.4557C28.4012 23.4612 28.3837 24.3613 28.1615 25.2322C27.9358 26.1165 27.5017 26.8442 26.849 27.3765C26.1465 27.9493 25.2883 28.2602 24.332 28.3183C22.8917 28.406 21.4482 28.4407 20.0018 28.4373H20H19.9982Z" fill="white"/>
<path fill-rule="evenodd" clip-rule="evenodd" d="M15.1428 19.9997C15.1428 22.6822 17.3175 24.8569 20 24.8569C22.6825 24.8569 24.8572 22.6822 24.8572 19.9997C24.8572 17.3172 22.6825 15.1426 20 15.1426C17.3175 15.1426 15.1428 17.3172 15.1428 19.9997ZM20 23.3026C18.1758 23.3026 16.6972 21.8239 16.6972 19.9997C16.6972 18.1756 18.1758 16.6969 20 16.6969C21.8242 16.6969 23.3028 18.1756 23.3028 19.9997C23.3028 21.8239 21.8242 23.3026 20 23.3026Z" fill="white"/>
<path d="M26.5714 14.5725C26.5714 15.2037 26.0598 15.7154 25.4286 15.7154C24.7974 15.7154 24.2858 15.2037 24.2858 14.5725C24.2858 13.9414 24.7974 13.4297 25.4286 13.4297C26.0598 13.4297 26.5714 13.9414 26.5714 14.5725Z" fill="white"/>
</svg>
