<svg width="39" height="40" viewBox="0 0 39 40" fill="none" xmlns="http://www.w3.org/2000/svg">
<path d="M27.95 28.6668V22.4405C27.95 19.3805 27.3078 17.043 23.827 17.043C22.1487 17.043 21.0299 17.978 20.5741 18.8705H20.5327V17.3193H17.2385V28.6668H20.6778V23.0355C20.6778 21.548 20.947 20.1243 22.7289 20.1243C24.49 20.1243 24.5107 21.803 24.5107 23.1205V28.6455H27.95V28.6668Z" fill="white"/>
<path d="M11.6443 17.3193H15.0836V28.6668H11.6443V17.3193Z" fill="white"/>
<path d="M13.364 11.667C12.2659 11.667 11.375 12.5807 11.375 13.707C11.375 14.8332 12.2659 15.7682 13.364 15.7682C14.4621 15.7682 15.353 14.8332 15.353 13.707C15.353 12.5807 14.4621 11.667 13.364 11.667Z" fill="white"/>
</svg>
