<svg width="202" height="202" viewBox="0 0 202 202" fill="none" xmlns="http://www.w3.org/2000/svg">
<g filter="url(#filter0_dd_440_327)">
<rect x="60" y="46" width="82" height="82" rx="27" fill="white"/>
</g>
<g clip-path="url(#clip0_440_327)">
<path d="M100.76 59.0158C86.5791 59.0158 87.4646 65.1901 87.4646 65.1901L87.4803 71.5868H101.013V73.5073H82.1055C82.1055 73.5073 73.0312 72.474 73.0312 86.8397C73.0312 101.206 80.9514 100.696 80.9514 100.696H85.6782V94.0299C85.6782 94.0299 85.4234 86.0779 93.472 86.0779H106.894C106.894 86.0779 114.434 86.2002 114.434 78.7607V66.4601C114.434 66.4601 115.58 59.0158 100.76 59.0158ZM93.2981 63.3175C93.6178 63.3172 93.9345 63.3802 94.23 63.503C94.5255 63.6257 94.794 63.8057 95.0201 64.0327C95.2462 64.2598 95.4256 64.5293 95.5478 64.826C95.67 65.1227 95.7328 65.4407 95.7325 65.7617C95.7328 66.0828 95.67 66.4008 95.5478 66.6974C95.4256 66.9941 95.2462 67.2637 95.0201 67.4907C94.794 67.7177 94.5255 67.8978 94.23 68.0205C93.9345 68.1432 93.6178 68.2062 93.2981 68.206C92.9783 68.2062 92.6616 68.1432 92.3661 68.0205C92.0706 67.8978 91.8021 67.7177 91.576 67.4907C91.3499 67.2637 91.1706 66.9941 91.0483 66.6974C90.9261 66.4008 90.8633 66.0828 90.8636 65.7617C90.8633 65.4407 90.9261 65.1227 91.0483 64.826C91.1706 64.5293 91.3499 64.2598 91.576 64.0327C91.8021 63.8057 92.0706 63.6257 92.3661 63.503C92.6616 63.3802 92.9783 63.3172 93.2981 63.3175Z" fill="url(#paint0_linear_440_327)"/>
<path d="M101.163 114.808C115.344 114.808 114.458 108.634 114.458 108.634L114.443 102.237H100.91V100.317H119.817C119.817 100.317 128.891 101.35 128.891 86.984C128.891 72.6181 120.971 73.1276 120.971 73.1276H116.244V79.7938C116.244 79.7938 116.499 87.7458 108.451 87.7458H95.029C95.029 87.7458 87.4883 87.6235 87.4883 95.0631V107.364C87.4883 107.364 86.3432 114.808 101.163 114.808H101.163ZM108.625 110.507C108.305 110.507 107.988 110.444 107.693 110.321C107.397 110.199 107.129 110.019 106.903 109.792C106.677 109.565 106.497 109.295 106.375 108.998C106.253 108.702 106.19 108.384 106.19 108.063C106.19 107.742 106.253 107.424 106.375 107.127C106.497 106.83 106.677 106.561 106.903 106.333C107.129 106.106 107.397 105.926 107.693 105.804C107.988 105.681 108.305 105.618 108.625 105.618C108.945 105.618 109.261 105.681 109.557 105.804C109.852 105.926 110.121 106.106 110.347 106.333C110.573 106.56 110.752 106.83 110.875 107.127C110.997 107.423 111.06 107.741 111.059 108.062C111.06 108.383 110.997 108.701 110.875 108.998C110.752 109.295 110.573 109.564 110.347 109.791C110.121 110.018 109.852 110.198 109.557 110.321C109.261 110.444 108.945 110.507 108.625 110.507Z" fill="url(#paint1_linear_440_327)"/>
</g>
<defs>
<filter id="filter0_dd_440_327" x="0" y="0" width="202" height="202" filterUnits="userSpaceOnUse" color-interpolation-filters="sRGB">
<feFlood flood-opacity="0" result="BackgroundImageFix"/>
<feColorMatrix in="SourceAlpha" type="matrix" values="0 0 0 0 0 0 0 0 0 0 0 0 0 0 0 0 0 0 127 0" result="hardAlpha"/>
<feMorphology radius="4" operator="erode" in="SourceAlpha" result="effect1_dropShadow_440_327"/>
<feOffset dy="14"/>
<feGaussianBlur stdDeviation="32"/>
<feColorMatrix type="matrix" values="0 0 0 0 0.0941176 0 0 0 0 0.152941 0 0 0 0 0.294118 0 0 0 0.12 0"/>
<feBlend mode="normal" in2="BackgroundImageFix" result="effect1_dropShadow_440_327"/>
<feColorMatrix in="SourceAlpha" type="matrix" values="0 0 0 0 0 0 0 0 0 0 0 0 0 0 0 0 0 0 127 0" result="hardAlpha"/>
<feMorphology radius="6" operator="erode" in="SourceAlpha" result="effect2_dropShadow_440_327"/>
<feOffset dy="8"/>
<feGaussianBlur stdDeviation="11"/>
<feColorMatrix type="matrix" values="0 0 0 0 0.0941176 0 0 0 0 0.152941 0 0 0 0 0.294118 0 0 0 0.12 0"/>
<feBlend mode="normal" in2="effect1_dropShadow_440_327" result="effect2_dropShadow_440_327"/>
<feBlend mode="normal" in="SourceGraphic" in2="effect2_dropShadow_440_327" result="shape"/>
</filter>
<linearGradient id="paint0_linear_440_327" x1="609.84" y1="560.834" x2="3389.05" y2="3301.32" gradientUnits="userSpaceOnUse">
<stop stop-color="#387EB8"/>
<stop offset="1" stop-color="#366994"/>
</linearGradient>
<linearGradient id="paint1_linear_440_327" x1="879.818" y1="930.914" x2="3863.82" y2="3740.5" gradientUnits="userSpaceOnUse">
<stop stop-color="#FFE052"/>
<stop offset="1" stop-color="#FFC331"/>
</linearGradient>
<clipPath id="clip0_440_327">
<rect width="56" height="56" fill="white" transform="translate(73 59)"/>
</clipPath>
</defs>
</svg>
