<svg width="1419" height="1197" viewBox="0 0 1419 1197" fill="none" xmlns="http://www.w3.org/2000/svg">
  <path d="M1280.87 532.645C1291.08 612.969 1233.06 694.379 1130.67 761.052C1028.3 827.704 881.743 879.52 715.244 900.673C548.746 921.827 393.883 908.307 278.107 869.37C162.294 830.42 85.7601 766.105 75.555 685.781C65.3498 605.457 123.37 524.047 225.763 457.374C328.124 390.722 474.686 338.906 641.184 317.752C807.683 296.599 962.545 310.119 1078.32 349.056C1194.13 388.006 1270.67 452.321 1280.87 532.645Z" stroke="#BAB3D6" stroke-opacity="0.29" />
  <path d="M1358.49 772.117C1335.02 849.326 1249.16 899.734 1129.01 918.663C1008.9 937.586 854.71 925.012 694.911 876.43C535.111 827.848 400.01 752.471 310.759 669.899C221.479 587.301 178.202 497.633 201.675 420.423C225.148 343.214 311.01 292.807 431.156 273.878C551.264 254.955 705.459 267.529 865.258 316.11C1025.06 364.692 1160.16 440.069 1249.41 522.641C1338.69 605.24 1381.97 694.908 1358.49 772.117Z" stroke="#BAB3D6" stroke-opacity="0.29" />
  <path d="M1244.37 336.606C1284.37 406.111 1270.16 498.173 1214.63 590.912C1159.12 683.634 1062.36 776.925 937.495 848.778C812.633 920.631 683.355 957.417 575.293 958.827C467.212 960.237 380.474 926.267 340.477 856.762C300.479 787.256 314.69 695.194 370.215 602.456C425.731 509.733 522.492 416.442 647.354 344.589C772.216 272.736 901.494 235.951 1009.56 234.54C1117.64 233.13 1204.37 267.1 1244.37 336.606Z" stroke="#BAB3D6" stroke-opacity="0.29" />
  <g id="anim1" filter="url(#filter0_dd_3320_212)">
    <rect x="60" y="606" width="82" height="82" rx="27" fill="black" />
  </g>
  <path id="anim2" d="M126.972 633.311C126.99 633.378 127 633.447 127 633.516V644.248C127 644.386 126.963 644.521 126.892 644.64C126.82 644.76 126.718 644.858 126.595 644.927L117.322 650.113V660.393C117.322 660.672 117.169 660.931 116.919 661.071L97.5623 671.896C97.518 671.92 97.4697 671.936 97.4213 671.953C97.4032 671.958 97.3861 671.969 97.3669 671.974C97.2316 672.009 97.0894 672.009 96.9541 671.974C96.9319 671.968 96.9118 671.956 96.8906 671.949C96.8463 671.933 96.8 671.919 96.7577 671.896L77.4048 661.071C77.2819 661.003 77.1797 660.904 77.1086 660.785C77.0376 660.666 77.0001 660.53 77 660.393V628.196C77 628.125 77.0101 628.057 77.0282 627.99C77.0342 627.968 77.0483 627.947 77.0564 627.925C77.0715 627.884 77.0856 627.841 77.1077 627.803C77.1229 627.778 77.145 627.757 77.1631 627.734C77.1863 627.703 77.2074 627.67 77.2346 627.643C77.2578 627.62 77.288 627.604 77.3142 627.584C77.3434 627.561 77.3696 627.535 77.4028 627.517L87.0808 622.105C87.2033 622.036 87.3422 622 87.4835 622C87.6249 622 87.7638 622.036 87.8863 622.105L97.5633 627.517H97.5653C97.5975 627.536 97.6247 627.561 97.6539 627.583C97.6801 627.603 97.7093 627.62 97.7325 627.642C97.7607 627.67 97.7808 627.703 97.805 627.734C97.8221 627.757 97.8452 627.778 97.8593 627.803C97.8825 627.842 97.8956 627.884 97.9117 627.925C97.9198 627.947 97.9339 627.968 97.9399 627.991C97.9584 628.058 97.9679 628.126 97.9681 628.196V648.306L106.032 643.795V633.515C106.032 633.446 106.042 633.377 106.06 633.311C106.067 633.288 106.08 633.267 106.088 633.245C106.104 633.204 106.118 633.162 106.141 633.124C106.156 633.098 106.178 633.078 106.195 633.054C106.219 633.023 106.239 632.99 106.268 632.963C106.291 632.941 106.32 632.924 106.346 632.904C106.376 632.881 106.402 632.855 106.435 632.837L116.114 627.425C116.236 627.356 116.375 627.32 116.516 627.32C116.658 627.32 116.797 627.356 116.919 627.425L126.596 632.837C126.63 632.856 126.657 632.881 126.687 632.903C126.712 632.923 126.741 632.941 126.764 632.962C126.793 632.99 126.813 633.023 126.837 633.054C126.855 633.078 126.877 633.098 126.891 633.124C126.914 633.162 126.928 633.204 126.944 633.245C126.953 633.267 126.966 633.288 126.972 633.311ZM125.387 643.795V634.87L122 636.764L117.322 639.381V648.306L125.388 643.795H125.387ZM115.71 659.94V651.009L111.108 653.562L97.9671 660.847V669.862L115.71 659.94ZM78.6132 629.55V659.94L96.3539 669.861V660.848L87.0858 655.753L87.0828 655.751L87.0787 655.749C87.0475 655.732 87.0213 655.706 86.9921 655.685C86.967 655.665 86.9378 655.65 86.9156 655.628L86.9136 655.625C86.8874 655.601 86.8693 655.57 86.8471 655.543C86.827 655.517 86.8028 655.494 86.7867 655.467L86.7857 655.464C86.7676 655.434 86.7565 655.399 86.7434 655.366C86.7303 655.337 86.7132 655.309 86.7052 655.278C86.6951 655.241 86.6931 655.201 86.689 655.162C86.685 655.133 86.677 655.104 86.677 655.074V634.061L81.9996 631.443L78.6132 629.55ZM87.4846 623.687L79.4218 628.196L87.4825 632.704L95.5443 628.195L87.4825 623.687H87.4846ZM91.6776 651.823L96.3549 649.207V629.55L92.9685 631.444L88.2901 634.061V653.718L91.6776 651.823ZM116.516 629.007L108.455 633.516L116.516 638.024L124.577 633.515L116.516 629.007ZM115.71 639.381L111.032 636.764L107.645 634.87V643.795L112.322 646.411L115.71 648.306V639.381ZM97.1595 659.493L108.984 652.935L114.895 649.658L106.839 645.153L97.5643 650.34L89.1108 655.068L97.1595 659.493Z" fill="#FF2D20" />
  <g id="anim3" filter="url(#filter1_dd_3320_212)">
    <rect x="164" y="426" width="82" height="82" rx="27" fill="white" />
  </g>
  <path id="anim4" d="M236 467.006C236 462.937 230.857 459.08 222.971 456.688C224.79 448.724 223.982 442.388 220.418 440.36C219.596 439.884 218.636 439.659 217.587 439.659V442.451C218.168 442.451 218.636 442.564 219.028 442.777C220.746 443.753 221.492 447.472 220.911 452.256C220.772 453.433 220.544 454.672 220.266 455.937C217.789 455.336 215.085 454.873 212.241 454.572C210.535 452.256 208.766 450.152 206.984 448.311C211.104 444.517 214.971 442.438 217.6 442.438V439.646C214.124 439.646 209.575 442.1 204.975 446.358C200.375 442.125 195.825 439.696 192.35 439.696V442.489C194.966 442.489 198.845 444.555 202.965 448.324C201.196 450.164 199.427 452.256 197.746 454.572C194.89 454.873 192.185 455.336 189.709 455.95C189.418 454.697 189.203 453.483 189.051 452.318C188.457 447.535 189.19 443.816 190.896 442.827C191.276 442.601 191.768 442.501 192.35 442.501V439.709C191.288 439.709 190.328 439.934 189.494 440.41C185.943 442.438 185.146 448.762 186.979 456.701C179.118 459.105 174 462.949 174 467.006C174 471.076 179.143 474.933 187.029 477.324C185.21 485.288 186.018 491.624 189.582 493.653C190.404 494.129 191.364 494.354 192.426 494.354C195.901 494.354 200.45 491.9 205.051 487.642C209.651 491.875 214.2 494.304 217.675 494.304C218.737 494.304 219.698 494.078 220.532 493.603C224.083 491.574 224.879 485.251 223.046 477.312C230.882 474.92 236 471.063 236 467.006ZM219.546 458.654C219.078 460.27 218.497 461.935 217.84 463.6C217.322 462.599 216.778 461.597 216.184 460.595C215.603 459.593 214.984 458.617 214.364 457.665C216.159 457.928 217.89 458.254 219.546 458.654ZM213.758 471.99C212.772 473.68 211.761 475.283 210.712 476.773C208.829 476.936 206.921 477.024 205 477.024C203.092 477.024 201.183 476.936 199.313 476.786C198.264 475.296 197.241 473.705 196.255 472.028C195.294 470.387 194.422 468.722 193.626 467.044C194.41 465.366 195.294 463.688 196.242 462.048C197.228 460.357 198.239 458.754 199.288 457.264C201.171 457.102 203.079 457.014 205 457.014C206.908 457.014 208.817 457.102 210.687 457.252C211.736 458.742 212.759 460.332 213.745 462.01C214.706 463.65 215.578 465.316 216.374 466.994C215.578 468.672 214.706 470.35 213.758 471.99ZM217.84 470.362C218.522 472.04 219.104 473.718 219.584 475.346C217.928 475.746 216.184 476.085 214.377 476.348C214.996 475.383 215.616 474.394 216.197 473.38C216.778 472.378 217.322 471.364 217.84 470.362ZM205.025 483.723C203.85 482.521 202.675 481.181 201.512 479.716C202.649 479.766 203.812 479.804 204.987 479.804C206.175 479.804 207.351 479.779 208.501 479.716C207.363 481.181 206.188 482.521 205.025 483.723ZM195.623 476.348C193.828 476.085 192.097 475.759 190.441 475.358C190.909 473.743 191.49 472.078 192.148 470.412C192.666 471.414 193.209 472.416 193.803 473.417C194.397 474.419 195.004 475.396 195.623 476.348ZM204.962 450.29C206.137 451.492 207.313 452.832 208.475 454.297C207.338 454.247 206.175 454.209 205 454.209C203.812 454.209 202.637 454.234 201.487 454.297C202.624 452.832 203.799 451.492 204.962 450.29ZM195.61 457.665C194.991 458.629 194.372 459.618 193.79 460.633C193.209 461.634 192.666 462.636 192.148 463.638C191.465 461.96 190.884 460.282 190.404 458.654C192.059 458.266 193.803 457.928 195.61 457.665ZM184.173 473.342C179.7 471.452 176.806 468.972 176.806 467.006C176.806 465.04 179.7 462.549 184.173 460.67C185.26 460.207 186.448 459.794 187.674 459.406C188.394 461.86 189.342 464.414 190.517 467.031C189.355 469.636 188.419 472.178 187.712 474.62C186.461 474.231 185.273 473.806 184.173 473.342ZM190.972 491.236C189.254 490.259 188.508 486.54 189.089 481.757C189.228 480.58 189.456 479.34 189.734 478.076C192.211 478.677 194.915 479.14 197.759 479.44C199.465 481.757 201.234 483.861 203.016 485.701C198.896 489.495 195.029 491.574 192.4 491.574C191.832 491.562 191.351 491.449 190.972 491.236ZM220.949 481.694C221.543 486.478 220.81 490.197 219.104 491.186C218.724 491.411 218.232 491.511 217.65 491.511C215.034 491.511 211.155 489.445 207.035 485.676C208.804 483.836 210.573 481.744 212.254 479.428C215.11 479.127 217.815 478.664 220.291 478.051C220.582 479.315 220.81 480.53 220.949 481.694ZM225.814 473.342C224.727 473.806 223.539 474.219 222.313 474.607C221.593 472.153 220.645 469.598 219.47 466.981C220.633 464.377 221.568 461.835 222.276 459.393C223.527 459.781 224.715 460.207 225.827 460.67C230.3 462.561 233.194 465.04 233.194 467.006C233.182 468.972 230.288 471.464 225.814 473.342Z" fill="#61DAFB" />
  <path id="anim5" d="M204.987 472.729C208.177 472.729 210.763 470.167 210.763 467.006C210.763 463.846 208.177 461.284 204.987 461.284C201.798 461.284 199.212 463.846 199.212 467.006C199.212 470.167 201.798 472.729 204.987 472.729Z" fill="#61DAFB" />
  <rect id="anim6" x="346" y="848" width="82" height="82" rx="23" fill="black" />
  <g id="anim7" clip-path="url(#clip0_3320_212)">
    <rect x="353" y="853" width="68" height="68" rx="34" fill="white" />
    <path d="M384.775 853.053C384.629 853.066 384.164 853.113 383.746 853.146C374.098 854.016 365.061 859.222 359.337 867.223C356.15 871.672 354.112 876.718 353.342 882.063C353.069 883.929 353.036 884.48 353.036 887.01C353.036 889.54 353.069 890.091 353.342 891.957C355.187 904.712 364.264 915.429 376.575 919.4C378.779 920.11 381.103 920.595 383.746 920.887C384.775 921 389.224 921 390.253 920.887C394.815 920.382 398.679 919.254 402.491 917.308C403.075 917.009 403.188 916.93 403.108 916.863C403.055 916.823 400.565 913.484 397.577 909.446L392.146 902.109L385.34 892.036C381.595 886.499 378.514 881.97 378.487 881.97C378.461 881.964 378.434 886.439 378.421 891.904C378.401 901.472 378.394 901.857 378.275 902.083C378.102 902.408 377.969 902.541 377.69 902.687C377.478 902.793 377.292 902.813 376.289 902.813H375.141L374.835 902.621C374.636 902.494 374.49 902.328 374.39 902.136L374.251 901.837L374.264 888.524L374.284 875.204L374.49 874.945C374.596 874.806 374.822 874.626 374.981 874.54C375.253 874.407 375.36 874.394 376.508 874.394C377.863 874.394 378.089 874.447 378.441 874.832C378.54 874.938 382.225 880.49 386.634 887.176C391.043 893.862 397.072 902.992 400.034 907.474L405.412 915.622L405.685 915.442C408.095 913.875 410.645 911.644 412.663 909.32C416.959 904.387 419.728 898.371 420.658 891.957C420.93 890.091 420.963 889.54 420.963 887.01C420.963 884.48 420.93 883.929 420.658 882.063C418.812 869.308 409.735 858.591 397.424 854.62C395.253 853.916 392.942 853.432 390.353 853.139C389.715 853.073 385.326 853 384.775 853.053ZM398.679 873.597C398.998 873.757 399.257 874.062 399.35 874.381C399.403 874.553 399.416 878.245 399.403 886.565L399.383 898.504L397.278 895.277L395.167 892.05V883.371C395.167 877.76 395.193 874.606 395.233 874.454C395.339 874.082 395.572 873.79 395.891 873.617C396.163 873.478 396.262 873.464 397.305 873.464C398.288 873.464 398.46 873.478 398.679 873.597Z" fill="black" />
    <path d="M405.081 915.768C404.849 915.914 404.776 916.013 404.981 915.901C405.127 915.814 405.367 915.635 405.327 915.628C405.307 915.628 405.194 915.695 405.081 915.768ZM404.623 916.067C404.503 916.159 404.503 916.166 404.649 916.093C404.729 916.053 404.795 916.007 404.795 915.993C404.795 915.94 404.762 915.954 404.623 916.067ZM404.291 916.266C404.171 916.359 404.171 916.365 404.317 916.292C404.397 916.252 404.463 916.206 404.463 916.193C404.463 916.14 404.43 916.153 404.291 916.266ZM403.959 916.465C403.839 916.558 403.839 916.565 403.985 916.491C404.065 916.452 404.131 916.405 404.131 916.392C404.131 916.339 404.098 916.352 403.959 916.465ZM403.454 916.731C403.202 916.863 403.215 916.916 403.467 916.79C403.58 916.731 403.667 916.671 403.667 916.657C403.667 916.611 403.66 916.618 403.454 916.731Z" fill="black" />
  </g>
  <rect id="anim8" x="353.5" y="853.5" width="67" height="67" rx="33.5" stroke="black" />
  <rect id="anim9" x="289" y="679" width="82" height="82" rx="23" fill="black" />
  <g id="anim10" clip-path="url(#clip1_3320_212)">
    <path d="M354 743.997H305V695.004H354L328.995 719.136L354 743.997Z" fill="url(#paint0_radial_3320_212)" />
  </g>
  <g id="anim11" clip-path="url(#clip2_3320_212)">
    <g filter="url(#filter2_dd_3320_212)">
      <path d="M485.226 301H530.646C532.856 301 535.002 301.352 537.084 302.089C540.095 303.178 542.818 305.1 544.868 307.598C546.95 310.097 548.327 313.172 548.808 316.375C549 317.56 549.032 318.745 549.032 319.93V364.23C549.032 365.639 548.968 367.08 548.679 368.458C548.039 371.629 546.533 374.608 544.355 377.01C542.209 379.412 539.39 381.206 536.347 382.167C534.49 382.744 532.568 383 530.614 383C529.749 383 485.097 383 484.425 382.968C481.158 382.808 477.922 381.751 475.2 379.925C472.541 378.131 470.363 375.633 468.954 372.75C467.736 370.284 467.128 367.529 467.128 364.774V319.226C467.064 316.503 467.64 313.812 468.826 311.378C470.203 308.495 472.349 305.965 475.008 304.171C477.445 302.508 480.267 301.461 483.175 301.145C483.856 301.071 484.541 301 485.226 301Z" fill="#E09037" />
    </g>
    <path d="M536.188 368.073C535.899 367.625 535.579 367.177 535.227 366.76C534.426 365.799 533.497 364.966 532.472 364.262C531.191 363.397 529.685 362.852 528.148 362.788C527.059 362.724 525.97 362.916 524.945 363.301C523.92 363.653 522.927 364.166 521.966 364.678C520.845 365.255 519.723 365.831 518.538 366.312C517.129 366.888 515.655 367.337 514.15 367.657C512.26 368.009 510.338 368.137 508.448 368.105C505.021 368.041 501.594 367.529 498.327 366.568C495.444 365.703 492.689 364.518 490.095 363.013C487.82 361.699 485.706 360.194 483.72 358.496C482.087 357.087 480.581 355.581 479.172 353.98C478.211 352.859 477.282 351.673 476.417 350.456C476.065 349.976 475.745 349.463 475.456 348.951L467 339.822V319.162C467 309.136 475.104 301 485.13 301H501.305L513.285 313.172C540.32 331.558 531.575 351.834 531.575 351.834C531.575 351.834 539.263 360.482 536.188 368.073Z" fill="url(#paint1_linear_3320_212)" />
    <path d="M513.349 313.172C540.383 331.558 531.639 351.834 531.639 351.834C531.639 351.834 539.326 360.514 536.219 368.105C536.219 368.105 533.048 362.788 527.731 362.788C522.606 362.788 519.595 368.105 509.281 368.105C486.315 368.105 475.456 348.919 475.456 348.919C496.148 362.532 510.274 352.891 510.274 352.891C500.953 347.477 481.126 321.596 481.126 321.596C498.39 336.298 505.854 340.174 505.854 340.174C501.401 336.491 488.909 318.489 488.909 318.489C498.903 328.611 518.762 342.737 518.762 342.737C524.4 327.105 513.349 313.172 513.349 313.172Z" fill="white" />
  </g>
  <g id="anim12" filter="url(#filter3_dd_3320_212)">
    <rect x="1066" y="875" width="82" height="82" rx="27" fill="white" />
  </g>
  <g id="anim13" clip-path="url(#clip3_3320_212)">
    <path d="M1086.1 924.659L1076 916.498L1108.8 890H1129M1129 914.452H1108.8L1101.23 920.566L1111.33 928.727" fill="#42A5F5" fill-opacity="0.8" />
    <path d="M1101.23 936.886L1108.8 943H1129L1111.33 928.727" fill="#0D47A1" />
    <path d="M1091.16 928.731L1101.24 920.581L1111.33 928.729L1101.24 936.88L1091.16 928.731Z" fill="#42A5F5" />
    <path d="M1101.24 936.88L1111.33 928.731L1112.73 929.869L1102.65 938.017L1101.24 936.88Z" fill="url(#paint2_linear_3320_212)" />
    <path d="M1101.23 936.886L1116.22 932.703L1111.33 928.725" fill="url(#paint3_linear_3320_212)" />
  </g>
  <g id="anim14" filter="url(#filter4_dd_3320_212)">
    <rect x="1222" y="458" width="82" height="82" rx="27" fill="#341B92" />
  </g>
  <g id="anim15" clip-path="url(#clip4_3320_212)">
    <path d="M1266.2 499.002L1274.78 483.9L1278.93 499.01L1274.78 514.115L1266.2 499.01V499.002ZM1262.01 501.454L1270.6 516.567L1255.65 512.658L1244.85 501.454H1262.01ZM1270.6 481.437L1262.01 496.548H1244.85L1255.65 485.344L1270.59 481.437H1270.6ZM1282.86 493.86L1277.61 474L1258.07 479.323L1255.18 484.508L1249.3 484.465L1235 499.002L1249.3 513.537L1255.17 513.492L1258.07 518.677L1277.61 523.998L1282.84 504.142L1279.87 499L1282.86 493.86Z" fill="white" />
  </g>
  <g id="anim16" filter="url(#filter5_dd_3320_212)">
    <rect x="984" y="312" width="82" height="82" rx="27" fill="white" />
  </g>
  <g id="anim17" clip-path="url(#clip5_3320_212)">
    <path d="M1025.52 383.011L1036.74 345.545H1014.29L1025.52 383.011Z" fill="#E24329" />
    <path d="M1025.52 383.011L1014.29 345.545H998.563L1025.52 383.011Z" fill="#FC6D26" />
    <path d="M998.564 345.545L995.153 356.931C995.001 357.437 995.001 357.982 995.153 358.488C995.304 358.995 995.6 359.436 995.997 359.749L1025.52 383.011L998.563 345.545L998.564 345.545Z" fill="#FCA326" />
    <path d="M998.563 345.545H1014.29L1007.53 322.979C1007.19 321.818 1005.67 321.819 1005.32 322.979L998.563 345.545Z" fill="#E24329" />
    <path d="M1025.52 383.011L1036.74 345.545H1052.47L1025.52 383.011Z" fill="#FC6D26" />
    <path d="M1052.47 345.545L1055.88 356.931C1056.03 357.437 1056.03 357.982 1055.88 358.488C1055.73 358.995 1055.44 359.436 1055.04 359.749L1025.52 383.011L1052.47 345.545V345.545Z" fill="#FCA326" />
    <path d="M1052.47 345.545H1036.74L1043.5 322.979C1043.85 321.818 1045.36 321.819 1045.71 322.979L1052.47 345.545Z" fill="#E24329" />
  </g>
  <g id="anim18" filter="url(#filter6_dd_3320_212)">
    <rect x="1235" y="821" width="82" height="82" rx="27" fill="white" />
  </g>
  <g id="anim19" clip-path="url(#clip6_3320_212)">
    <path d="M1275.76 834.016C1261.58 834.016 1262.46 840.19 1262.46 840.19L1262.48 846.587H1276.01V848.507H1257.11C1257.11 848.507 1248.03 847.474 1248.03 861.84C1248.03 876.206 1255.95 875.696 1255.95 875.696H1260.68V869.03C1260.68 869.03 1260.42 861.078 1268.47 861.078H1281.89C1281.89 861.078 1289.43 861.2 1289.43 853.761V841.46C1289.43 841.46 1290.58 834.016 1275.76 834.016ZM1268.3 838.317C1268.62 838.317 1268.93 838.38 1269.23 838.503C1269.53 838.626 1269.79 838.806 1270.02 839.033C1270.25 839.26 1270.43 839.529 1270.55 839.826C1270.67 840.123 1270.73 840.441 1270.73 840.762C1270.73 841.083 1270.67 841.401 1270.55 841.697C1270.43 841.994 1270.25 842.264 1270.02 842.491C1269.79 842.718 1269.53 842.898 1269.23 843.02C1268.93 843.143 1268.62 843.206 1268.3 843.206C1267.98 843.206 1267.66 843.143 1267.37 843.02C1267.07 842.898 1266.8 842.718 1266.58 842.491C1266.35 842.264 1266.17 841.994 1266.05 841.697C1265.93 841.401 1265.86 841.083 1265.86 840.762C1265.86 840.441 1265.93 840.123 1266.05 839.826C1266.17 839.529 1266.35 839.26 1266.58 839.033C1266.8 838.806 1267.07 838.626 1267.37 838.503C1267.66 838.38 1267.98 838.317 1268.3 838.317Z" fill="url(#paint4_linear_3320_212)" />
    <path d="M1276.16 889.808C1290.34 889.808 1289.46 883.634 1289.46 883.634L1289.44 877.237H1275.91V875.317H1294.82C1294.82 875.317 1303.89 876.35 1303.89 861.984C1303.89 847.618 1295.97 848.128 1295.97 848.128H1291.24V854.794C1291.24 854.794 1291.5 862.746 1283.45 862.746H1270.03C1270.03 862.746 1262.49 862.623 1262.49 870.063V882.364C1262.49 882.364 1261.34 889.808 1276.16 889.808H1276.16ZM1283.62 885.507C1283.3 885.507 1282.99 885.444 1282.69 885.321C1282.4 885.199 1282.13 885.019 1281.9 884.792C1281.68 884.565 1281.5 884.295 1281.38 883.998C1281.25 883.702 1281.19 883.384 1281.19 883.063C1281.19 882.742 1281.25 882.424 1281.37 882.127C1281.5 881.83 1281.68 881.561 1281.9 881.333C1282.13 881.106 1282.4 880.926 1282.69 880.804C1282.99 880.681 1283.3 880.618 1283.62 880.618C1283.94 880.618 1284.26 880.681 1284.56 880.804C1284.85 880.926 1285.12 881.106 1285.35 881.333C1285.57 881.56 1285.75 881.83 1285.87 882.127C1286 882.423 1286.06 882.741 1286.06 883.062C1286.06 883.383 1286 883.701 1285.87 883.998C1285.75 884.295 1285.57 884.564 1285.35 884.791C1285.12 885.018 1284.85 885.198 1284.56 885.321C1284.26 885.444 1283.94 885.507 1283.62 885.507Z" fill="url(#paint5_linear_3320_212)" />
  </g>
  <rect id="anim20" x="757" y="849" width="82" height="82" rx="23" fill="#006A82" />
  <g id="anim21" clip-path="url(#clip7_3320_212)">
    <path d="M811.592 895.331C810.186 895.331 809.042 894.194 809.042 892.797C809.042 891.4 810.186 890.264 811.592 890.264C812.998 890.264 814.142 891.4 814.142 892.797C814.142 894.194 812.998 895.331 811.592 895.331ZM783.407 895.331C782.001 895.331 780.858 894.194 780.858 892.797C780.858 891.4 782.001 890.264 783.407 890.264C784.813 890.264 785.957 891.4 785.957 892.797C785.957 894.194 784.814 895.331 783.407 895.331ZM812.507 880.071L817.603 871.302C817.743 871.06 817.781 870.773 817.708 870.503C817.636 870.233 817.458 870.003 817.215 869.863C816.971 869.724 816.682 869.686 816.411 869.759C816.139 869.831 815.908 870.007 815.767 870.249L810.607 879.129C806.66 877.34 802.229 876.343 797.5 876.343C792.771 876.343 788.339 877.34 784.393 879.129L779.233 870.249C779.092 870.007 778.86 869.831 778.589 869.759C778.317 869.686 778.028 869.724 777.785 869.863C777.541 870.003 777.363 870.233 777.291 870.503C777.218 870.773 777.256 871.06 777.396 871.302L782.493 880.071C773.742 884.8 767.756 893.601 766.881 904H828.119C827.242 893.602 821.257 884.8 812.507 880.071" fill="#3DDB85" />
  </g>
  <g id="anim22" filter="url(#filter7_dd_3320_212)">
    <rect x="724" y="248" width="82" height="82" rx="27" fill="black" />
  </g>
  <g id="anim23" clip-path="url(#clip8_3320_212)">
    <path d="M765 288.5C765 283.99 768.581 280.333 772.998 280.333C777.416 280.333 780.997 283.99 780.997 288.5C780.997 293.01 777.416 296.667 772.998 296.667C768.581 296.667 765 293.01 765 288.5Z" fill="#1ABCFE" />
    <path d="M749.003 304.833C749.003 300.323 752.584 296.667 757.001 296.667H765V304.833C765 309.344 761.419 313 757.001 313C752.584 313 749.003 309.344 749.003 304.833Z" fill="#0ACF83" />
    <path d="M765 264V280.333H772.998C777.416 280.333 780.997 276.677 780.997 272.167C780.997 267.656 777.416 264 772.998 264H765Z" fill="#FF7262" />
    <path d="M749.003 272.167C749.003 276.677 752.584 280.333 757.001 280.333H765V264H757.001C752.584 264 749.003 267.656 749.003 272.167Z" fill="#F24E1E" />
    <path d="M749.003 288.5C749.003 293.01 752.584 296.667 757.001 296.667H765V280.333H757.001C752.584 280.333 749.003 283.99 749.003 288.5Z" fill="#A259FF" />
  </g>
  <g id="anim24" filter="url(#filter8_dd_3320_212)">
    <rect x="1132" y="654" width="82" height="82" rx="27" fill="white" />
    <rect x="1132.5" y="654.5" width="81" height="81" rx="26.5" stroke="#E9E7F2" />
  </g>
  <g id="anim25" clip-path="url(#clip9_3320_212)">
    <path d="M1196.81 693.251C1197.36 694.484 1197.7 695.802 1197.84 697.146C1197.98 698.491 1197.91 699.851 1197.63 701.174C1197.35 702.497 1196.87 703.767 1196.19 704.936C1195.75 705.717 1195.23 706.45 1194.63 707.125C1194.03 707.795 1193.37 708.4 1192.65 708.932C1191.92 709.463 1191.15 709.909 1190.33 710.276C1189.51 710.637 1188.66 710.914 1187.78 711.094C1187.37 712.38 1186.76 713.597 1185.97 714.692C1185.19 715.786 1184.24 716.748 1183.15 717.54C1182.07 718.337 1180.87 718.953 1179.59 719.368C1178.32 719.787 1176.99 719.995 1175.65 719.995C1174.76 720 1173.86 719.904 1172.99 719.724C1172.12 719.538 1171.27 719.256 1170.45 718.889C1169.63 718.523 1168.86 718.066 1168.14 717.535C1167.42 717.003 1166.76 716.392 1166.17 715.717C1164.85 716.004 1163.51 716.073 1162.17 715.935C1160.84 715.792 1159.54 715.441 1158.31 714.888C1157.09 714.341 1155.96 713.597 1154.96 712.689C1153.97 711.78 1153.12 710.717 1152.45 709.548C1152 708.767 1151.64 707.943 1151.36 707.088C1151.08 706.232 1150.89 705.35 1150.8 704.452C1150.7 703.56 1150.71 702.656 1150.8 701.758C1150.9 700.866 1151.09 699.984 1151.37 699.128C1150.48 698.124 1149.74 696.981 1149.19 695.749C1148.65 694.511 1148.3 693.198 1148.16 691.854C1148.02 690.51 1148.09 689.149 1148.37 687.826C1148.65 686.503 1149.14 685.233 1149.81 684.064C1150.25 683.283 1150.77 682.544 1151.37 681.875C1151.96 681.205 1152.63 680.6 1153.35 680.068C1154.07 679.537 1154.85 679.085 1155.67 678.724C1156.49 678.357 1157.34 678.086 1158.22 677.906C1158.63 676.614 1159.24 675.403 1160.02 674.308C1160.81 673.214 1161.76 672.252 1162.85 671.455C1163.93 670.663 1165.13 670.047 1166.41 669.627C1167.68 669.213 1169.01 669 1170.36 669.005C1171.24 669 1172.14 669.09 1173.01 669.276C1173.89 669.462 1174.74 669.739 1175.56 670.105C1176.37 670.477 1177.15 670.929 1177.87 671.46C1178.59 671.997 1179.25 672.603 1179.84 673.277C1181.15 672.996 1182.5 672.927 1183.83 673.065C1185.16 673.203 1186.46 673.559 1187.69 674.106C1188.91 674.659 1190.04 675.398 1191.04 676.306C1192.03 677.21 1192.88 678.267 1193.55 679.441C1194 680.217 1194.36 681.041 1194.64 681.901C1194.92 682.757 1195.11 683.639 1195.2 684.537C1195.3 685.435 1195.3 686.338 1195.2 687.236C1195.1 688.134 1194.91 689.016 1194.63 689.872C1195.53 690.876 1196.26 692.013 1196.81 693.251ZM1179.27 715.935C1180.41 715.457 1181.46 714.75 1182.34 713.863C1183.22 712.975 1183.92 711.923 1184.39 710.76C1184.86 709.601 1185.11 708.358 1185.11 707.104V695.255C1185.11 695.244 1185.1 695.232 1185.1 695.217C1185.1 695.207 1185.09 695.196 1185.08 695.185C1185.08 695.175 1185.07 695.166 1185.06 695.159C1185.05 695.148 1185.04 695.141 1185.03 695.138L1180.78 692.662V706.976C1180.78 707.12 1180.76 707.269 1180.72 707.407C1180.68 707.55 1180.63 707.683 1180.56 707.811C1180.48 707.938 1180.4 708.055 1180.29 708.156C1180.19 708.259 1180.08 708.348 1179.95 708.422L1169.89 714.283C1169.81 714.336 1169.67 714.41 1169.59 714.453C1170.01 714.809 1170.46 715.122 1170.93 715.398C1171.41 715.675 1171.91 715.909 1172.42 716.1C1172.94 716.286 1173.47 716.429 1174.01 716.525C1174.55 716.621 1175.1 716.668 1175.65 716.668C1176.89 716.668 1178.12 716.419 1179.27 715.935ZM1155.31 707.89C1155.94 708.98 1156.76 709.925 1157.75 710.691C1158.74 711.456 1159.86 712.014 1161.06 712.338C1162.26 712.662 1163.51 712.747 1164.74 712.582C1165.98 712.418 1167.16 712.014 1168.24 711.387L1178.41 705.462L1178.44 705.435C1178.44 705.428 1178.45 705.418 1178.45 705.404C1178.46 705.393 1178.46 705.382 1178.47 705.372V700.377L1166.19 707.545C1166.06 707.619 1165.93 707.672 1165.8 707.715C1165.65 707.752 1165.51 707.768 1165.36 707.768C1165.22 707.768 1165.08 707.752 1164.94 707.715C1164.8 707.672 1164.66 707.619 1164.54 707.545L1154.48 701.679C1154.39 701.626 1154.26 701.546 1154.18 701.498C1154.09 702.045 1154.04 702.598 1154.04 703.151C1154.04 703.703 1154.09 704.256 1154.19 704.803C1154.28 705.345 1154.43 705.882 1154.62 706.403C1154.8 706.923 1155.04 707.423 1155.31 707.901V707.89ZM1152.67 685.733C1152.05 686.822 1151.65 688.023 1151.48 689.266C1151.32 690.51 1151.4 691.769 1151.73 692.986C1152.05 694.197 1152.6 695.329 1153.36 696.328C1154.12 697.322 1155.06 698.156 1156.13 698.783L1166.3 704.713C1166.31 704.716 1166.32 704.72 1166.33 704.723H1166.37C1166.38 704.723 1166.4 704.72 1166.41 704.713C1166.42 704.709 1166.43 704.704 1166.44 704.697L1170.7 702.21L1158.43 695.058C1158.31 694.984 1158.19 694.893 1158.08 694.792C1157.98 694.689 1157.89 694.573 1157.82 694.447C1157.75 694.319 1157.69 694.187 1157.66 694.043C1157.62 693.905 1157.6 693.761 1157.61 693.613V681.545C1157.09 681.737 1156.59 681.971 1156.12 682.247C1155.64 682.528 1155.19 682.847 1154.77 683.203C1154.36 683.559 1153.97 683.953 1153.62 684.378C1153.26 684.797 1152.95 685.254 1152.68 685.733H1152.67ZM1187.58 693.937C1187.71 694.011 1187.83 694.096 1187.93 694.202C1188.03 694.303 1188.12 694.42 1188.2 694.548C1188.26 694.675 1188.32 694.814 1188.36 694.952C1188.39 695.095 1188.41 695.239 1188.41 695.387V707.455C1190.1 706.828 1191.57 705.728 1192.66 704.282C1193.75 702.837 1194.41 701.11 1194.57 699.304C1194.72 697.497 1194.36 695.68 1193.53 694.07C1192.7 692.46 1191.43 691.121 1189.87 690.217L1179.7 684.287C1179.69 684.284 1179.68 684.28 1179.67 684.277H1179.63C1179.62 684.28 1179.61 684.284 1179.59 684.287C1179.58 684.291 1179.57 684.296 1179.56 684.303L1175.32 686.779L1187.6 693.937H1187.58ZM1191.82 687.507H1191.82V687.513L1191.82 687.507ZM1191.82 687.502C1192.12 685.717 1191.92 683.878 1191.22 682.204C1190.53 680.531 1189.38 679.091 1187.91 678.049C1186.43 677.013 1184.69 676.418 1182.9 676.338C1181.1 676.264 1179.32 676.705 1177.76 677.608L1167.6 683.533C1167.59 683.54 1167.58 683.549 1167.57 683.559L1167.55 683.591C1167.55 683.602 1167.54 683.614 1167.54 683.628C1167.54 683.639 1167.53 683.651 1167.53 683.666V688.618L1179.81 681.46C1179.94 681.386 1180.07 681.333 1180.21 681.29C1180.35 681.253 1180.49 681.237 1180.64 681.237C1180.78 681.237 1180.93 681.253 1181.07 681.29C1181.2 681.333 1181.34 681.386 1181.46 681.46L1191.52 687.327C1191.61 687.38 1191.74 687.454 1191.82 687.502ZM1165.22 682.018C1165.22 681.875 1165.24 681.731 1165.28 681.588C1165.31 681.45 1165.36 681.312 1165.44 681.184C1165.51 681.062 1165.6 680.945 1165.7 680.839C1165.8 680.738 1165.92 680.647 1166.04 680.578L1176.1 674.717C1176.2 674.659 1176.33 674.585 1176.4 674.547C1175.02 673.384 1173.34 672.64 1171.56 672.411C1169.77 672.178 1167.96 672.465 1166.33 673.235C1164.7 674.005 1163.32 675.233 1162.36 676.763C1161.4 678.299 1160.88 680.074 1160.88 681.891V693.74C1160.89 693.754 1160.89 693.767 1160.9 693.777C1160.9 693.788 1160.9 693.799 1160.91 693.809C1160.92 693.82 1160.93 693.831 1160.94 693.841C1160.94 693.848 1160.96 693.855 1160.97 693.862L1165.22 696.339V682.018ZM1167.52 697.678L1172.99 700.866L1178.46 697.678V691.307L1173 688.118L1167.53 691.307L1167.52 697.678Z" fill="black" />
  </g>
  <defs id="cus-flot">
    <filter id="filter0_dd_3320_212" x="0" y="560" width="202" height="202" filterUnits="userSpaceOnUse" color-interpolation-filters="sRGB">
      <feFlood flood-opacity="0" result="BackgroundImageFix" />
      <feColorMatrix in="SourceAlpha" type="matrix" values="0 0 0 0 0 0 0 0 0 0 0 0 0 0 0 0 0 0 127 0" result="hardAlpha" />
      <feMorphology radius="4" operator="erode" in="SourceAlpha" result="effect1_dropShadow_3320_212" />
      <feOffset dy="14" />
      <feGaussianBlur stdDeviation="32" />
      <feColorMatrix type="matrix" values="0 0 0 0 0.0941176 0 0 0 0 0.152941 0 0 0 0 0.294118 0 0 0 0.12 0" />
      <feBlend mode="normal" in2="BackgroundImageFix" result="effect1_dropShadow_3320_212" />
      <feColorMatrix in="SourceAlpha" type="matrix" values="0 0 0 0 0 0 0 0 0 0 0 0 0 0 0 0 0 0 127 0" result="hardAlpha" />
      <feMorphology radius="6" operator="erode" in="SourceAlpha" result="effect2_dropShadow_3320_212" />
      <feOffset dy="8" />
      <feGaussianBlur stdDeviation="11" />
      <feColorMatrix type="matrix" values="0 0 0 0 0.0941176 0 0 0 0 0.152941 0 0 0 0 0.294118 0 0 0 0.12 0" />
      <feBlend mode="normal" in2="effect1_dropShadow_3320_212" result="effect2_dropShadow_3320_212" />
      <feBlend mode="normal" in="SourceGraphic" in2="effect2_dropShadow_3320_212" result="shape" />
    </filter>
    <filter id="filter1_dd_3320_212" x="104" y="380" width="202" height="202" filterUnits="userSpaceOnUse" color-interpolation-filters="sRGB">
      <feFlood flood-opacity="0" result="BackgroundImageFix" />
      <feColorMatrix in="SourceAlpha" type="matrix" values="0 0 0 0 0 0 0 0 0 0 0 0 0 0 0 0 0 0 127 0" result="hardAlpha" />
      <feMorphology radius="4" operator="erode" in="SourceAlpha" result="effect1_dropShadow_3320_212" />
      <feOffset dy="14" />
      <feGaussianBlur stdDeviation="32" />
      <feColorMatrix type="matrix" values="0 0 0 0 0.0941176 0 0 0 0 0.152941 0 0 0 0 0.294118 0 0 0 0.12 0" />
      <feBlend mode="normal" in2="BackgroundImageFix" result="effect1_dropShadow_3320_212" />
      <feColorMatrix in="SourceAlpha" type="matrix" values="0 0 0 0 0 0 0 0 0 0 0 0 0 0 0 0 0 0 127 0" result="hardAlpha" />
      <feMorphology radius="6" operator="erode" in="SourceAlpha" result="effect2_dropShadow_3320_212" />
      <feOffset dy="8" />
      <feGaussianBlur stdDeviation="11" />
      <feColorMatrix type="matrix" values="0 0 0 0 0.0941176 0 0 0 0 0.152941 0 0 0 0 0.294118 0 0 0 0.12 0" />
      <feBlend mode="normal" in2="effect1_dropShadow_3320_212" result="effect2_dropShadow_3320_212" />
      <feBlend mode="normal" in="SourceGraphic" in2="effect2_dropShadow_3320_212" result="shape" />
    </filter>
    <filter id="filter2_dd_3320_212" x="407.123" y="255" width="201.909" height="202" filterUnits="userSpaceOnUse" color-interpolation-filters="sRGB">
      <feFlood flood-opacity="0" result="BackgroundImageFix" />
      <feColorMatrix in="SourceAlpha" type="matrix" values="0 0 0 0 0 0 0 0 0 0 0 0 0 0 0 0 0 0 127 0" result="hardAlpha" />
      <feMorphology radius="4" operator="erode" in="SourceAlpha" result="effect1_dropShadow_3320_212" />
      <feOffset dy="14" />
      <feGaussianBlur stdDeviation="32" />
      <feColorMatrix type="matrix" values="0 0 0 0 0.0941176 0 0 0 0 0.152941 0 0 0 0 0.294118 0 0 0 0.12 0" />
      <feBlend mode="normal" in2="BackgroundImageFix" result="effect1_dropShadow_3320_212" />
      <feColorMatrix in="SourceAlpha" type="matrix" values="0 0 0 0 0 0 0 0 0 0 0 0 0 0 0 0 0 0 127 0" result="hardAlpha" />
      <feMorphology radius="6" operator="erode" in="SourceAlpha" result="effect2_dropShadow_3320_212" />
      <feOffset dy="8" />
      <feGaussianBlur stdDeviation="11" />
      <feColorMatrix type="matrix" values="0 0 0 0 0.0941176 0 0 0 0 0.152941 0 0 0 0 0.294118 0 0 0 0.12 0" />
      <feBlend mode="normal" in2="effect1_dropShadow_3320_212" result="effect2_dropShadow_3320_212" />
      <feBlend mode="normal" in="SourceGraphic" in2="effect2_dropShadow_3320_212" result="shape" />
    </filter>
    <filter id="filter3_dd_3320_212" x="1006" y="829" width="202" height="202" filterUnits="userSpaceOnUse" color-interpolation-filters="sRGB">
      <feFlood flood-opacity="0" result="BackgroundImageFix" />
      <feColorMatrix in="SourceAlpha" type="matrix" values="0 0 0 0 0 0 0 0 0 0 0 0 0 0 0 0 0 0 127 0" result="hardAlpha" />
      <feMorphology radius="4" operator="erode" in="SourceAlpha" result="effect1_dropShadow_3320_212" />
      <feOffset dy="14" />
      <feGaussianBlur stdDeviation="32" />
      <feColorMatrix type="matrix" values="0 0 0 0 0.0941176 0 0 0 0 0.152941 0 0 0 0 0.294118 0 0 0 0.12 0" />
      <feBlend mode="normal" in2="BackgroundImageFix" result="effect1_dropShadow_3320_212" />
      <feColorMatrix in="SourceAlpha" type="matrix" values="0 0 0 0 0 0 0 0 0 0 0 0 0 0 0 0 0 0 127 0" result="hardAlpha" />
      <feMorphology radius="6" operator="erode" in="SourceAlpha" result="effect2_dropShadow_3320_212" />
      <feOffset dy="8" />
      <feGaussianBlur stdDeviation="11" />
      <feColorMatrix type="matrix" values="0 0 0 0 0.0941176 0 0 0 0 0.152941 0 0 0 0 0.294118 0 0 0 0.12 0" />
      <feBlend mode="normal" in2="effect1_dropShadow_3320_212" result="effect2_dropShadow_3320_212" />
      <feBlend mode="normal" in="SourceGraphic" in2="effect2_dropShadow_3320_212" result="shape" />
    </filter>
    <filter id="filter4_dd_3320_212" x="1162" y="412" width="202" height="202" filterUnits="userSpaceOnUse" color-interpolation-filters="sRGB">
      <feFlood flood-opacity="0" result="BackgroundImageFix" />
      <feColorMatrix in="SourceAlpha" type="matrix" values="0 0 0 0 0 0 0 0 0 0 0 0 0 0 0 0 0 0 127 0" result="hardAlpha" />
      <feMorphology radius="4" operator="erode" in="SourceAlpha" result="effect1_dropShadow_3320_212" />
      <feOffset dy="14" />
      <feGaussianBlur stdDeviation="32" />
      <feColorMatrix type="matrix" values="0 0 0 0 0.0941176 0 0 0 0 0.152941 0 0 0 0 0.294118 0 0 0 0.12 0" />
      <feBlend mode="normal" in2="BackgroundImageFix" result="effect1_dropShadow_3320_212" />
      <feColorMatrix in="SourceAlpha" type="matrix" values="0 0 0 0 0 0 0 0 0 0 0 0 0 0 0 0 0 0 127 0" result="hardAlpha" />
      <feMorphology radius="6" operator="erode" in="SourceAlpha" result="effect2_dropShadow_3320_212" />
      <feOffset dy="8" />
      <feGaussianBlur stdDeviation="11" />
      <feColorMatrix type="matrix" values="0 0 0 0 0.0941176 0 0 0 0 0.152941 0 0 0 0 0.294118 0 0 0 0.12 0" />
      <feBlend mode="normal" in2="effect1_dropShadow_3320_212" result="effect2_dropShadow_3320_212" />
      <feBlend mode="normal" in="SourceGraphic" in2="effect2_dropShadow_3320_212" result="shape" />
    </filter>
    <filter id="filter5_dd_3320_212" x="924" y="266" width="202" height="202" filterUnits="userSpaceOnUse" color-interpolation-filters="sRGB">
      <feFlood flood-opacity="0" result="BackgroundImageFix" />
      <feColorMatrix in="SourceAlpha" type="matrix" values="0 0 0 0 0 0 0 0 0 0 0 0 0 0 0 0 0 0 127 0" result="hardAlpha" />
      <feMorphology radius="4" operator="erode" in="SourceAlpha" result="effect1_dropShadow_3320_212" />
      <feOffset dy="14" />
      <feGaussianBlur stdDeviation="32" />
      <feColorMatrix type="matrix" values="0 0 0 0 0.0941176 0 0 0 0 0.152941 0 0 0 0 0.294118 0 0 0 0.12 0" />
      <feBlend mode="normal" in2="BackgroundImageFix" result="effect1_dropShadow_3320_212" />
      <feColorMatrix in="SourceAlpha" type="matrix" values="0 0 0 0 0 0 0 0 0 0 0 0 0 0 0 0 0 0 127 0" result="hardAlpha" />
      <feMorphology radius="6" operator="erode" in="SourceAlpha" result="effect2_dropShadow_3320_212" />
      <feOffset dy="8" />
      <feGaussianBlur stdDeviation="11" />
      <feColorMatrix type="matrix" values="0 0 0 0 0.0941176 0 0 0 0 0.152941 0 0 0 0 0.294118 0 0 0 0.12 0" />
      <feBlend mode="normal" in2="effect1_dropShadow_3320_212" result="effect2_dropShadow_3320_212" />
      <feBlend mode="normal" in="SourceGraphic" in2="effect2_dropShadow_3320_212" result="shape" />
    </filter>
    <filter id="filter6_dd_3320_212" x="1175" y="775" width="202" height="202" filterUnits="userSpaceOnUse" color-interpolation-filters="sRGB">
      <feFlood flood-opacity="0" result="BackgroundImageFix" />
      <feColorMatrix in="SourceAlpha" type="matrix" values="0 0 0 0 0 0 0 0 0 0 0 0 0 0 0 0 0 0 127 0" result="hardAlpha" />
      <feMorphology radius="4" operator="erode" in="SourceAlpha" result="effect1_dropShadow_3320_212" />
      <feOffset dy="14" />
      <feGaussianBlur stdDeviation="32" />
      <feColorMatrix type="matrix" values="0 0 0 0 0.0941176 0 0 0 0 0.152941 0 0 0 0 0.294118 0 0 0 0.12 0" />
      <feBlend mode="normal" in2="BackgroundImageFix" result="effect1_dropShadow_3320_212" />
      <feColorMatrix in="SourceAlpha" type="matrix" values="0 0 0 0 0 0 0 0 0 0 0 0 0 0 0 0 0 0 127 0" result="hardAlpha" />
      <feMorphology radius="6" operator="erode" in="SourceAlpha" result="effect2_dropShadow_3320_212" />
      <feOffset dy="8" />
      <feGaussianBlur stdDeviation="11" />
      <feColorMatrix type="matrix" values="0 0 0 0 0.0941176 0 0 0 0 0.152941 0 0 0 0 0.294118 0 0 0 0.12 0" />
      <feBlend mode="normal" in2="effect1_dropShadow_3320_212" result="effect2_dropShadow_3320_212" />
      <feBlend mode="normal" in="SourceGraphic" in2="effect2_dropShadow_3320_212" result="shape" />
    </filter>
    <filter id="filter7_dd_3320_212" x="664" y="202" width="202" height="202" filterUnits="userSpaceOnUse" color-interpolation-filters="sRGB">
      <feFlood flood-opacity="0" result="BackgroundImageFix" />
      <feColorMatrix in="SourceAlpha" type="matrix" values="0 0 0 0 0 0 0 0 0 0 0 0 0 0 0 0 0 0 127 0" result="hardAlpha" />
      <feMorphology radius="4" operator="erode" in="SourceAlpha" result="effect1_dropShadow_3320_212" />
      <feOffset dy="14" />
      <feGaussianBlur stdDeviation="32" />
      <feColorMatrix type="matrix" values="0 0 0 0 0.0941176 0 0 0 0 0.152941 0 0 0 0 0.294118 0 0 0 0.12 0" />
      <feBlend mode="normal" in2="BackgroundImageFix" result="effect1_dropShadow_3320_212" />
      <feColorMatrix in="SourceAlpha" type="matrix" values="0 0 0 0 0 0 0 0 0 0 0 0 0 0 0 0 0 0 127 0" result="hardAlpha" />
      <feMorphology radius="6" operator="erode" in="SourceAlpha" result="effect2_dropShadow_3320_212" />
      <feOffset dy="8" />
      <feGaussianBlur stdDeviation="11" />
      <feColorMatrix type="matrix" values="0 0 0 0 0.0941176 0 0 0 0 0.152941 0 0 0 0 0.294118 0 0 0 0.12 0" />
      <feBlend mode="normal" in2="effect1_dropShadow_3320_212" result="effect2_dropShadow_3320_212" />
      <feBlend mode="normal" in="SourceGraphic" in2="effect2_dropShadow_3320_212" result="shape" />
    </filter>
    <filter id="filter8_dd_3320_212" x="1072" y="608" width="202" height="202" filterUnits="userSpaceOnUse" color-interpolation-filters="sRGB">
      <feFlood flood-opacity="0" result="BackgroundImageFix" />
      <feColorMatrix in="SourceAlpha" type="matrix" values="0 0 0 0 0 0 0 0 0 0 0 0 0 0 0 0 0 0 127 0" result="hardAlpha" />
      <feMorphology radius="4" operator="erode" in="SourceAlpha" result="effect1_dropShadow_3320_212" />
      <feOffset dy="14" />
      <feGaussianBlur stdDeviation="32" />
      <feColorMatrix type="matrix" values="0 0 0 0 0.0941176 0 0 0 0 0.152941 0 0 0 0 0.294118 0 0 0 0.12 0" />
      <feBlend mode="normal" in2="BackgroundImageFix" result="effect1_dropShadow_3320_212" />
      <feColorMatrix in="SourceAlpha" type="matrix" values="0 0 0 0 0 0 0 0 0 0 0 0 0 0 0 0 0 0 127 0" result="hardAlpha" />
      <feMorphology radius="6" operator="erode" in="SourceAlpha" result="effect2_dropShadow_3320_212" />
      <feOffset dy="8" />
      <feGaussianBlur stdDeviation="11" />
      <feColorMatrix type="matrix" values="0 0 0 0 0.0941176 0 0 0 0 0.152941 0 0 0 0 0.294118 0 0 0 0.12 0" />
      <feBlend mode="normal" in2="effect1_dropShadow_3320_212" result="effect2_dropShadow_3320_212" />
      <feBlend mode="normal" in="SourceGraphic" in2="effect2_dropShadow_3320_212" result="shape" />
    </filter>
    <radialGradient id="paint0_radial_3320_212" cx="0" cy="0" r="1" gradientUnits="userSpaceOnUse" gradientTransform="translate(352.565 696.811) scale(56.3334 56.3559)">
      <stop stop-color="#E44857" />
      <stop offset="0.47" stop-color="#C711E1" />
      <stop offset="1" stop-color="#7F52FF" />
    </radialGradient>
    <linearGradient id="paint1_linear_3320_212" x1="508.837" y1="302.325" x2="497.498" y2="366.63" gradientUnits="userSpaceOnUse">
      <stop stop-color="#E39F3A" />
      <stop offset="1" stop-color="#D33929" />
    </linearGradient>
    <linearGradient id="paint2_linear_3320_212" x1="1106.28" y1="932.804" x2="1107.4" y2="934.181" gradientUnits="userSpaceOnUse">
      <stop offset="0.2" stop-opacity="0.15" />
      <stop offset="0.85" stop-color="#616161" stop-opacity="0.01" />
    </linearGradient>
    <linearGradient id="paint3_linear_3320_212" x1="1101.24" y1="932.806" x2="1116.22" y2="932.806" gradientUnits="userSpaceOnUse">
      <stop offset="0.2" stop-opacity="0.55" />
      <stop offset="0.85" stop-color="#616161" stop-opacity="0.01" />
    </linearGradient>
    <linearGradient id="paint4_linear_3320_212" x1="1784.84" y1="1335.83" x2="4564.05" y2="4076.32" gradientUnits="userSpaceOnUse">
      <stop stop-color="#387EB8" />
      <stop offset="1" stop-color="#366994" />
    </linearGradient>
    <linearGradient id="paint5_linear_3320_212" x1="2054.82" y1="1705.91" x2="5038.82" y2="4515.5" gradientUnits="userSpaceOnUse">
      <stop stop-color="#FFE052" />
      <stop offset="1" stop-color="#FFC331" />
    </linearGradient>
    <clipPath id="clip0_3320_212">
      <rect x="353" y="853" width="68" height="68" rx="34" fill="white" />
    </clipPath>
    <clipPath id="clip1_3320_212">
      <rect width="49" height="49" fill="white" transform="translate(305 695)" />
    </clipPath>
    <clipPath id="clip2_3320_212">
      <rect x="467" y="301" width="82" height="82" rx="23" fill="white" />
    </clipPath>
    <clipPath id="clip3_3320_212">
      <rect width="53" height="53" fill="white" transform="translate(1076 890)" />
    </clipPath>
    <clipPath id="clip4_3320_212">
      <rect width="47" height="50" fill="white" transform="translate(1235 474)" />
    </clipPath>
    <clipPath id="clip5_3320_212">
      <rect width="61" height="61" fill="white" transform="translate(995 322)" />
    </clipPath>
    <clipPath id="clip6_3320_212">
      <rect width="56" height="56" fill="white" transform="translate(1248 834)" />
    </clipPath>
    <clipPath id="clip7_3320_212">
      <rect width="61" height="45" fill="white" transform="translate(767 859)" />
    </clipPath>
    <clipPath id="clip8_3320_212">
      <rect width="32" height="49" fill="white" transform="translate(749 264)" />
    </clipPath>
    <clipPath id="clip9_3320_212">
      <rect width="50" height="51" fill="white" transform="translate(1148 669)" />
    </clipPath>
  </defs>
<style>
    
    #anim1, #anim2{
        animation: anim1 1.5s ease-in-out 1, float-wavy1 6s ease-in-out 1.5s infinite;
    }
    #anim3, #anim4, #anim5{ 
        animation: anim3 1.5s ease-in-out 1, float-wavy2 6s ease-in-out 1.5s infinite;
    }
    #anim6, #anim7, #anim8{ 
        animation: anim6 1.5s ease-in-out 1, float-wavy3 6s ease-in-out 1.5s infinite;
    }
    #anim9, #anim10{ 
        animation: anim9 1.5s ease-in-out 1, float-wavy4 6s ease-in-out 1.5s infinite;
    }
    #anim11{ 
        animation: anim11 1.5s ease-in-out 1, float-wavy5 6s ease-in-out 1.5s infinite;
    }
    #anim12, #anim13{ 
        animation: anim12 1.5s ease-in-out 1, float-wavy1 6s ease-in-out 1.5s infinite;
    }
    #anim14, #anim15{ 
        animation: anim14 1.5s ease-in-out 1, float-wavy2 6s ease-in-out 1.5s infinite;
    }
    #anim16, #anim17{ 
        animation: anim16 1.5s ease-in-out 1, float-wavy3 6s ease-in-out 1.5s infinite;
    }
    #anim18, #anim19{ 
        animation: anim18 1.5s ease-in-out 1, float-wavy4 6s ease-in-out 1.5s infinite;
    }
    #anim20, #anim21{ 
        animation: anim20 1.5s ease-in-out 1, float-wavy5 6s ease-in-out 1.5s infinite;
    }
    #anim22, #anim23{ 
        animation: anim22 1.5s ease-in-out 1, float-wavy1 6s ease-in-out 1.5s infinite;
    }
    #anim24, #anim25{ 
        animation: anim24 1.5s ease-in-out 1, float-wavy2 6s ease-in-out 1.5s infinite;
    }
    #anim26, #anim27{ 
        animation: anim26 1.5s ease-in-out 1, float-wavy3 6s ease-in-out 1.5s infinite;
    }

@keyframes anim1 {
  0% {
       transform: translate(45%, -1%);
  }
  100% {
        transform: translate(0vw, 0vw);
  }
}
@keyframes anim3 {
  0% {
       transform: translate(38%, 13%);
  }
  100% {
        transform: translate(0vw, 0vw);
  }
}
@keyframes anim6 {
  0% {
       transform: translate(25%, -23%);
  }
  100% {
        transform: translate(0vw, 0vw);
  }
}
@keyframes anim9 {
  0% {
       transform: translate(31%, -10%);
  }
  100% {
        transform: translate(0vw, 0vw);
  }
}
@keyframes anim11 {
  0% {
       transform: translate(20%, 26%);
  }
  100% {
        transform: translate(0vw, 0vw);
  }
}
@keyframes anim12 {
  0% {
       transform: translate(-25%, -20%);
  }
  100% {
        transform: translate(0vw, 0vw);
  }
}
@keyframes anim14 {
  0% {
       transform: translate(-38%, 10%);
  }
  100% {
        transform: translate(0vw, 0vw);
  }
}
@keyframes anim16 {
  0% {
       transform: translate(-18%, 20%);
  }
  100% {
        transform: translate(0vw, 0vw);
  }
}
@keyframes anim18 {
  0% {
       transform: translate(-40%, -18%);
  }
  100% {
        transform: translate(0vw, 0vw);
  }
}
@keyframes anim20 {
  0% {
       transform: translate(2%, -18%);
  }
  100% {
        transform: translate(0vw, 0vw);
  }
}
@keyframes anim22 {
  0% {
       transform: translate(4%, 26%);
  }
  100% {
        transform: translate(0vw, 0vw);
  }
}
@keyframes anim24 {
  0% {
       transform: translate(-30%, -2%);
  }
  100% {
        transform: translate(0vw, 0vw);
  }
}
@keyframes float-infinite {
  0% {
    transform: translatey(0px);
  }
  50% {
		transform: translatey(-20px);
	}
100% {
		transform: translatey(0px);
	}
}


/* Float-wavy1 */
@keyframes float-wavy1 {
  0% {
    transform: translateY(0px) translateX(0px);
  }
  50% {
    transform: translateY(-20px) translateX(10px); /* Slight upward and rightward movement */
  }
  100% {
    transform: translateY(0px) translateX(0px); /* Back to the original position */
  }
}

/* Float-wavy2 */
@keyframes float-wavy2 {
  0% {
    transform: translateY(0px) translateX(0px);
  }
  50% {
    transform: translateY(-25px) translateX(-15px); /* Upward and leftward movement */
  }
  100% {
    transform: translateY(0px) translateX(0px); /* Back to original */
  }
}

/* Float-wavy3 */
@keyframes float-wavy3 {
  0% {
    transform: translateY(0px) translateX(0px);
  }
  50% {
    transform: translateY(-15px) translateX(20px); /* Moderate upward and strong rightward movement */
  }
  100% {
    transform: translateY(0px) translateX(0px); /* Reset position */
  }
}

/* Float-wavy4 */
@keyframes float-wavy4 {
  0% {
    transform: translateY(0px) translateX(0px);
  }
  50% {
    transform: translateY(-30px) translateX(-20px); /* Higher upward and more leftward */
  }
  100% {
    transform: translateY(0px) translateX(0px); /* Back to original position */
  }
}

/* Float-wavy5 */
@keyframes float-wavy5 {
  0% {
    transform: translateY(0px) translateX(0px);
  }
  50% {
    transform: translateY(-18px) translateX(5px); /* Subtle upward with a small rightward move */
  }
  100% {
    transform: translateY(0px) translateX(0px); /* Back to start */
  }
}


</style>

</svg>