<svg width="202" height="202" viewBox="0 0 202 202" fill="none" xmlns="http://www.w3.org/2000/svg">
<g filter="url(#filter0_dd_440_282)">
<rect x="60" y="46" width="82" height="82" rx="27" fill="black"/>
</g>
<path d="M126.972 73.3113C126.99 73.378 127 73.4467 127 73.5157V84.2481C127 84.3859 126.963 84.5212 126.892 84.6404C126.82 84.7596 126.718 84.8584 126.595 84.927L117.322 90.1132V100.393C117.322 100.672 117.169 100.931 116.919 101.071L97.5623 111.896C97.518 111.92 97.4697 111.936 97.4213 111.953C97.4032 111.958 97.3861 111.969 97.3669 111.974C97.2316 112.009 97.0894 112.009 96.9541 111.974C96.9319 111.968 96.9118 111.956 96.8906 111.949C96.8463 111.933 96.8 111.919 96.7577 111.896L77.4048 101.071C77.2819 101.003 77.1797 100.904 77.1086 100.785C77.0376 100.666 77.0001 100.53 77 100.393V68.1955C77 68.1251 77.0101 68.0566 77.0282 67.9901C77.0342 67.9676 77.0483 67.9471 77.0564 67.9246C77.0715 67.8835 77.0856 67.8414 77.1077 67.8033C77.1229 67.7779 77.145 67.7573 77.1631 67.7338C77.1863 67.7025 77.2074 67.6703 77.2346 67.6429C77.2578 67.6204 77.288 67.6037 77.3142 67.5842C77.3434 67.5607 77.3696 67.5353 77.4028 67.5167L87.0808 62.1045C87.2033 62.036 87.3422 62 87.4835 62C87.6249 62 87.7638 62.036 87.8863 62.1045L97.5633 67.5167H97.5653C97.5975 67.5363 97.6247 67.5607 97.6539 67.5832C97.6801 67.6028 97.7093 67.6204 97.7325 67.6419C97.7607 67.6703 97.7808 67.7025 97.805 67.7338C97.8221 67.7573 97.8452 67.7779 97.8593 67.8033C97.8825 67.8424 97.8956 67.8835 97.9117 67.9246C97.9198 67.9471 97.9339 67.9676 97.9399 67.9911C97.9584 68.0578 97.9679 68.1265 97.9681 68.1955V88.3055L106.032 83.7952V73.5148C106.032 73.4463 106.042 73.3768 106.06 73.3113C106.067 73.2878 106.08 73.2673 106.088 73.2448C106.104 73.2037 106.118 73.1617 106.141 73.1235C106.156 73.0981 106.178 73.0775 106.195 73.0541C106.219 73.0228 106.239 72.9905 106.268 72.9631C106.291 72.9406 106.32 72.924 106.346 72.9044C106.376 72.8809 106.402 72.8555 106.435 72.8369L116.114 67.4247C116.236 67.3562 116.375 67.3201 116.516 67.3201C116.658 67.3201 116.797 67.3562 116.919 67.4247L126.596 72.8369C126.63 72.8565 126.657 72.8809 126.687 72.9034C126.712 72.923 126.741 72.9406 126.764 72.9621C126.793 72.9905 126.813 73.0228 126.837 73.0541C126.855 73.0775 126.877 73.0981 126.891 73.1235C126.914 73.1617 126.928 73.2037 126.944 73.2448C126.953 73.2673 126.966 73.2878 126.972 73.3113ZM125.387 83.7952V74.8705L122 76.7642L117.322 79.3808V88.3055L125.388 83.7952H125.387ZM115.71 99.9397V91.0091L111.108 93.5621L97.9671 100.847V109.862L115.71 99.9397ZM78.6132 69.5503V99.9397L96.3539 109.861V100.848L87.0858 95.7532L87.0828 95.7513L87.0787 95.7493C87.0475 95.7317 87.0213 95.7063 86.9921 95.6847C86.967 95.6652 86.9378 95.6495 86.9156 95.628L86.9136 95.6251C86.8874 95.6006 86.8693 95.5703 86.8471 95.5429C86.827 95.5165 86.8028 95.494 86.7867 95.4666L86.7857 95.4637C86.7676 95.4343 86.7565 95.3991 86.7434 95.3659C86.7303 95.3365 86.7132 95.3091 86.7052 95.2778C86.6951 95.2407 86.6931 95.2006 86.689 95.1624C86.685 95.1331 86.677 95.1037 86.677 95.0744V74.0606L81.9996 71.443L78.6132 69.5503ZM87.4846 63.6872L79.4218 68.1955L87.4825 72.7039L95.5443 68.1946L87.4825 63.6872H87.4846ZM91.6776 91.823L96.3549 89.2074V69.5503L92.9685 71.444L88.2901 74.0606V93.7177L91.6776 91.823ZM116.516 69.0074L108.455 73.5157L116.516 78.0241L124.577 73.5148L116.516 69.0074ZM115.71 79.3808L111.032 76.7642L107.645 74.8705V83.7952L112.322 86.4108L115.71 88.3055V79.3808ZM97.1595 99.4927L108.984 92.9351L114.895 89.6583L106.839 85.1529L97.5643 90.3401L89.1108 95.0675L97.1595 99.4927Z" fill="#FF2D20"/>
<defs>
<filter id="filter0_dd_440_282" x="0" y="0" width="202" height="202" filterUnits="userSpaceOnUse" color-interpolation-filters="sRGB">
<feFlood flood-opacity="0" result="BackgroundImageFix"/>
<feColorMatrix in="SourceAlpha" type="matrix" values="0 0 0 0 0 0 0 0 0 0 0 0 0 0 0 0 0 0 127 0" result="hardAlpha"/>
<feMorphology radius="4" operator="erode" in="SourceAlpha" result="effect1_dropShadow_440_282"/>
<feOffset dy="14"/>
<feGaussianBlur stdDeviation="32"/>
<feColorMatrix type="matrix" values="0 0 0 0 0.0941176 0 0 0 0 0.152941 0 0 0 0 0.294118 0 0 0 0.12 0"/>
<feBlend mode="normal" in2="BackgroundImageFix" result="effect1_dropShadow_440_282"/>
<feColorMatrix in="SourceAlpha" type="matrix" values="0 0 0 0 0 0 0 0 0 0 0 0 0 0 0 0 0 0 127 0" result="hardAlpha"/>
<feMorphology radius="6" operator="erode" in="SourceAlpha" result="effect2_dropShadow_440_282"/>
<feOffset dy="8"/>
<feGaussianBlur stdDeviation="11"/>
<feColorMatrix type="matrix" values="0 0 0 0 0.0941176 0 0 0 0 0.152941 0 0 0 0 0.294118 0 0 0 0.12 0"/>
<feBlend mode="normal" in2="effect1_dropShadow_440_282" result="effect2_dropShadow_440_282"/>
<feBlend mode="normal" in="SourceGraphic" in2="effect2_dropShadow_440_282" result="shape"/>
</filter>
</defs>
</svg>
