<svg width="202" height="202" viewBox="0 0 202 202" fill="none" xmlns="http://www.w3.org/2000/svg">
<g filter="url(#filter0_dd_440_305)">
<rect x="60" y="46" width="82" height="82" rx="27" fill="white"/>
</g>
<g clip-path="url(#clip0_440_305)">
<path d="M80.1016 95.6593L70 87.4979L102.8 61H123M123 85.4521H102.8L95.2327 91.5657L105.334 99.7271" fill="#42A5F5" fill-opacity="0.8"/>
<path d="M95.2324 107.886L102.799 114H123L105.334 99.7272" fill="#0D47A1"/>
<path d="M85.1553 99.7314L95.2409 91.5807L105.327 99.7293L95.2409 107.88L85.1553 99.7314Z" fill="#42A5F5"/>
<path d="M95.2402 107.88L105.326 99.7314L106.734 100.869L96.6481 109.017L95.2402 107.88Z" fill="url(#paint0_linear_440_305)"/>
<path d="M95.2324 107.886L110.22 103.703L105.334 99.725" fill="url(#paint1_linear_440_305)"/>
</g>
<defs>
<filter id="filter0_dd_440_305" x="0" y="0" width="202" height="202" filterUnits="userSpaceOnUse" color-interpolation-filters="sRGB">
<feFlood flood-opacity="0" result="BackgroundImageFix"/>
<feColorMatrix in="SourceAlpha" type="matrix" values="0 0 0 0 0 0 0 0 0 0 0 0 0 0 0 0 0 0 127 0" result="hardAlpha"/>
<feMorphology radius="4" operator="erode" in="SourceAlpha" result="effect1_dropShadow_440_305"/>
<feOffset dy="14"/>
<feGaussianBlur stdDeviation="32"/>
<feColorMatrix type="matrix" values="0 0 0 0 0.0941176 0 0 0 0 0.152941 0 0 0 0 0.294118 0 0 0 0.12 0"/>
<feBlend mode="normal" in2="BackgroundImageFix" result="effect1_dropShadow_440_305"/>
<feColorMatrix in="SourceAlpha" type="matrix" values="0 0 0 0 0 0 0 0 0 0 0 0 0 0 0 0 0 0 127 0" result="hardAlpha"/>
<feMorphology radius="6" operator="erode" in="SourceAlpha" result="effect2_dropShadow_440_305"/>
<feOffset dy="8"/>
<feGaussianBlur stdDeviation="11"/>
<feColorMatrix type="matrix" values="0 0 0 0 0.0941176 0 0 0 0 0.152941 0 0 0 0 0.294118 0 0 0 0.12 0"/>
<feBlend mode="normal" in2="effect1_dropShadow_440_305" result="effect2_dropShadow_440_305"/>
<feBlend mode="normal" in="SourceGraphic" in2="effect2_dropShadow_440_305" result="shape"/>
</filter>
<linearGradient id="paint0_linear_440_305" x1="100.285" y1="103.804" x2="101.397" y2="105.181" gradientUnits="userSpaceOnUse">
<stop offset="0.2" stop-opacity="0.15"/>
<stop offset="0.85" stop-color="#616161" stop-opacity="0.01"/>
</linearGradient>
<linearGradient id="paint1_linear_440_305" x1="95.236" y1="103.806" x2="110.224" y2="103.806" gradientUnits="userSpaceOnUse">
<stop offset="0.2" stop-opacity="0.55"/>
<stop offset="0.85" stop-color="#616161" stop-opacity="0.01"/>
</linearGradient>
<clipPath id="clip0_440_305">
<rect width="53" height="53" fill="white" transform="translate(70 61)"/>
</clipPath>
</defs>
</svg>
