<svg width="27" height="26" viewBox="0 0 27 26" fill="none" xmlns="http://www.w3.org/2000/svg">
<path d="M11.8163 4.25816C12.2518 2.91787 14.148 2.91787 14.5835 4.25816L15.792 7.97756C15.9867 8.57696 16.5453 8.98278 17.1755 8.98278H21.0863C22.4956 8.98278 23.0815 10.7861 21.9414 11.6145L18.7775 13.9132C18.2676 14.2836 18.0543 14.9403 18.249 15.5397L19.4575 19.2591C19.893 20.5993 18.359 21.7139 17.2189 20.8855L14.055 18.5868C13.5451 18.2164 12.8547 18.2164 12.3448 18.5868L9.18089 20.8855C8.04077 21.7139 6.50676 20.5993 6.94224 19.2591L8.15075 15.5397C8.3455 14.9403 8.13215 14.2836 7.62228 13.9132L4.45836 11.6145C3.31825 10.7861 3.90419 8.98278 5.31345 8.98278H9.22426C9.8545 8.98278 10.4131 8.57696 10.6078 7.97756L11.8163 4.25816Z" fill="#FFDF39"/>
</svg>
