<svg width="31" height="32" viewBox="0 0 31 32" fill="none" xmlns="http://www.w3.org/2000/svg">
<path d="M30.8368 7.65324C30.8481 7.69389 30.8539 7.7358 30.854 7.7779V14.322C30.854 14.406 30.8312 14.4885 30.7879 14.5612C30.7445 14.6339 30.6822 14.6942 30.6072 14.736L24.9528 17.8983V24.1662C24.9528 24.3368 24.8595 24.4943 24.7072 24.5802L12.9042 31.1804C12.8772 31.1953 12.8477 31.2048 12.8182 31.215C12.8072 31.2185 12.7967 31.2251 12.7851 31.2281C12.7026 31.2492 12.6158 31.2492 12.5333 31.2281C12.5198 31.2245 12.5075 31.2173 12.4947 31.2126C12.4676 31.203 12.4394 31.1947 12.4136 31.1804L0.613041 24.5802C0.538075 24.5383 0.475787 24.478 0.432453 24.4054C0.389118 24.3327 0.36627 24.2502 0.366211 24.1662V4.53387C0.366211 4.49093 0.372351 4.44917 0.383403 4.40862C0.387087 4.3949 0.395683 4.38237 0.400595 4.36866C0.409805 4.34361 0.418401 4.31796 0.431909 4.2947C0.44112 4.27919 0.454628 4.26666 0.46568 4.25235C0.479802 4.23326 0.492696 4.21358 0.509274 4.19688C0.523396 4.18316 0.541816 4.17302 0.557781 4.1611C0.575587 4.14678 0.591551 4.13127 0.611813 4.11994L6.51302 0.819846C6.58773 0.778083 6.67242 0.756104 6.75862 0.756104C6.84482 0.756104 6.92951 0.778083 7.00422 0.819846L12.9048 4.11994H12.906C12.9257 4.13187 12.9423 4.14678 12.9601 4.1605C12.976 4.17243 12.9938 4.18316 13.008 4.19629C13.0252 4.21358 13.0374 4.23326 13.0522 4.25235C13.0626 4.26666 13.0767 4.27919 13.0853 4.2947C13.0994 4.31855 13.1074 4.34361 13.1173 4.36866C13.1222 4.38237 13.1308 4.3949 13.1344 4.40921C13.1458 4.44986 13.1515 4.49177 13.1516 4.53387V16.7961L18.0686 14.0459V7.7773C18.0686 7.73555 18.0747 7.6932 18.0858 7.65324C18.0901 7.63893 18.0981 7.6264 18.103 7.61269C18.1128 7.58764 18.1214 7.56199 18.1349 7.53873C18.1441 7.52322 18.1576 7.51069 18.1681 7.49638C18.1828 7.47729 18.1951 7.45761 18.2123 7.44091C18.2264 7.42719 18.2442 7.41705 18.2602 7.40512C18.2786 7.39081 18.2945 7.3753 18.3142 7.36397L24.216 4.06388C24.2907 4.02205 24.3754 4.00004 24.4616 4.00004C24.5478 4.00004 24.6325 4.02205 24.7072 4.06388L30.6078 7.36397C30.6287 7.3759 30.6446 7.39081 30.6631 7.40453C30.6784 7.41646 30.6962 7.42719 30.7103 7.44031C30.7275 7.45761 30.7398 7.47729 30.7545 7.49638C30.7656 7.51069 30.7791 7.52322 30.7877 7.53873C30.8018 7.56199 30.8098 7.58764 30.8196 7.61269C30.8252 7.6264 30.8331 7.63893 30.8368 7.65324ZM29.8704 14.0459V8.60397L27.8055 9.75867L24.9528 11.3541V16.7961L29.871 14.0459H29.8704ZM23.9698 23.8901V18.4446L21.1638 20.0013L13.151 24.4436V29.9404L23.9698 23.8901ZM1.34985 5.35994V23.8901L12.1674 29.9398V24.4442L6.51609 21.3373L6.51424 21.3361L6.51179 21.3349C6.49275 21.3242 6.47679 21.3087 6.45898 21.2956C6.44363 21.2837 6.42583 21.2741 6.41232 21.261L6.41109 21.2592C6.39513 21.2443 6.38407 21.2258 6.37057 21.2091C6.35829 21.193 6.34355 21.1793 6.33373 21.1626L6.33311 21.1608C6.32206 21.1429 6.31531 21.1214 6.30732 21.1011C6.29934 21.0833 6.2889 21.0666 6.28399 21.0475C6.27785 21.0248 6.27662 21.0003 6.27417 20.9771C6.27171 20.9592 6.2668 20.9413 6.2668 20.9234V8.11012L3.41475 6.51405L1.34985 5.35994ZM6.75923 1.78488L1.84289 4.53387L6.758 7.28285L11.6737 4.53327L6.758 1.78488H6.75923ZM9.31595 18.9408L12.168 17.346V5.35994L10.1031 6.51464L7.25044 8.11012V20.0961L9.31595 18.9408ZM24.4616 5.02891L19.5459 7.7779L24.4616 10.5269L29.3767 7.7773L24.4616 5.02891ZM23.9698 11.3541L21.1171 9.75867L19.0522 8.60397V14.0459L21.9043 15.6407L23.9698 16.7961V11.3541ZM12.6586 23.6175L19.8689 19.619L23.4731 17.6209L18.561 14.8737L12.9054 18.0366L7.75085 20.9192L12.6586 23.6175Z" fill="#FF2D20"/>
</svg>
