<svg width="50" height="50" viewBox="0 0 50 50" fill="none" xmlns="http://www.w3.org/2000/svg">
<rect width="50" height="50" rx="12" fill="black"/>
<g clip-path="url(#clip0_491_499)">
<rect x="4.26855" y="3.04877" width="41.4634" height="41.4634" rx="20.7317" fill="white"/>
<path d="M23.6441 3.08115C23.555 3.08925 23.2716 3.11759 23.0166 3.13784C17.1337 3.66823 11.6233 6.84246 8.13329 11.7212C6.18989 14.4339 4.94692 17.511 4.47726 20.7702C4.31126 21.9079 4.29102 22.244 4.29102 23.7865C4.29102 25.3291 4.31126 25.6652 4.47726 26.8029C5.60282 34.5806 11.1375 41.1153 18.6439 43.5364C19.9881 43.9696 21.4051 44.2652 23.0166 44.4434C23.6441 44.5122 26.3568 44.5122 26.9843 44.4434C29.7659 44.1356 32.1222 43.4474 34.4462 42.2611C34.8025 42.0789 34.8713 42.0303 34.8228 41.9898C34.7904 41.9655 33.2721 39.929 31.4501 37.4673L28.1382 32.9934L23.9883 26.8515C21.7048 23.4748 19.8261 20.7135 19.8099 20.7135C19.7937 20.7095 19.7775 23.4384 19.7694 26.7705C19.7573 32.6048 19.7533 32.8396 19.6804 32.9772C19.5751 33.1756 19.4941 33.2566 19.3241 33.3457C19.1945 33.4105 19.0812 33.4226 18.4698 33.4226H17.7694L17.5831 33.3052C17.4616 33.2283 17.3726 33.127 17.3118 33.0096L17.2268 32.8274L17.2349 24.7097L17.2471 16.5878L17.3726 16.4299C17.4374 16.3449 17.575 16.2356 17.6722 16.183C17.8382 16.102 17.903 16.0939 18.6034 16.0939C19.4294 16.0939 19.567 16.1263 19.7816 16.3611C19.8423 16.4259 22.0894 19.8107 24.7778 23.8878C27.4662 27.9649 31.1424 33.5319 32.9482 36.2648L36.2277 41.2327L36.3937 41.1234C37.8634 40.1679 39.4181 38.8075 40.6489 37.3904C43.2685 34.3822 44.9568 30.714 45.5236 26.8029C45.6896 25.6652 45.7099 25.3291 45.7099 23.7865C45.7099 22.244 45.6896 21.9079 45.5236 20.7702C44.3981 12.9925 38.8634 6.45783 31.357 4.03666C30.0331 3.60749 28.6241 3.31193 27.0451 3.13379C26.6564 3.0933 23.9802 3.04876 23.6441 3.08115ZM32.1222 15.608C32.3166 15.7052 32.4745 15.8914 32.5312 16.0858C32.5635 16.1911 32.5716 18.4422 32.5635 23.5153L32.5514 30.795L31.2679 28.8273L29.9804 26.8596V21.5678C29.9804 18.1466 29.9966 16.2234 30.0209 16.1303C30.0857 15.9036 30.2274 15.7255 30.4218 15.6202C30.5878 15.5352 30.6485 15.5271 31.2841 15.5271C31.8834 15.5271 31.9886 15.5352 32.1222 15.608Z" fill="black"/>
<path d="M36.0252 41.3218C35.8835 41.4109 35.839 41.4716 35.9645 41.4028C36.0536 41.3501 36.1993 41.2408 36.175 41.2368C36.1629 41.2368 36.0941 41.2772 36.0252 41.3218ZM35.7459 41.504C35.673 41.5607 35.673 41.5647 35.7621 41.5202C35.8107 41.4959 35.8511 41.4675 35.8511 41.4594C35.8511 41.427 35.8309 41.4351 35.7459 41.504ZM35.5434 41.6254C35.4706 41.6821 35.4706 41.6862 35.5596 41.6416C35.6082 41.6173 35.6487 41.589 35.6487 41.5809C35.6487 41.5485 35.6285 41.5566 35.5434 41.6254ZM35.341 41.7469C35.2681 41.8036 35.2681 41.8076 35.3572 41.7631C35.4058 41.7388 35.4463 41.7105 35.4463 41.7024C35.4463 41.67 35.426 41.6781 35.341 41.7469ZM35.0333 41.9088C34.8794 41.9898 34.8875 42.0222 35.0414 41.9453C35.1102 41.9089 35.1629 41.8724 35.1629 41.8643C35.1629 41.836 35.1588 41.84 35.0333 41.9088Z" fill="black"/>
</g>
<rect x="4.76855" y="3.54877" width="40.4634" height="40.4634" rx="20.2317" stroke="black"/>
<defs>
<clipPath id="clip0_491_499">
<rect x="4.26855" y="3.04877" width="41.4634" height="41.4634" rx="20.7317" fill="white"/>
</clipPath>
</defs>
</svg>
