<svg width="36" height="36" viewBox="0 0 36 36" fill="none" xmlns="http://www.w3.org/2000/svg">
<g clip-path="url(#clip0_491_516)">
<path d="M17.8539 0.936462C9.20719 0.936462 9.74708 4.70126 9.74708 4.70126L9.75668 8.60171H18.0081V9.77273H6.47934C6.47934 9.77273 0.946289 9.1427 0.946289 17.9022C0.946289 26.6621 5.77567 26.3514 5.77567 26.3514H8.65784V22.2865C8.65784 22.2865 8.50246 17.4377 13.4101 17.4377H21.5941C21.5941 17.4377 26.1921 17.5123 26.1921 12.9761V5.47565C26.1921 5.47565 26.8904 0.936462 17.8539 0.936462ZM13.3041 3.55944C13.4991 3.55926 13.6922 3.59769 13.8724 3.67253C14.0526 3.74736 14.2163 3.85714 14.3541 3.99557C14.492 4.134 14.6014 4.29837 14.6759 4.47927C14.7504 4.66017 14.7887 4.85405 14.7885 5.04982C14.7887 5.24559 14.7504 5.43948 14.6759 5.62038C14.6014 5.80128 14.492 5.96565 14.3541 6.10408C14.2163 6.24251 14.0526 6.35229 13.8724 6.42712C13.6922 6.50196 13.4991 6.54039 13.3041 6.54021C13.1091 6.54039 12.916 6.50196 12.7358 6.42712C12.5557 6.35229 12.3919 6.24251 12.2541 6.10408C12.1162 5.96565 12.0069 5.80128 11.9323 5.62038C11.8578 5.43948 11.8195 5.24559 11.8197 5.04982C11.8195 4.85405 11.8578 4.66017 11.9323 4.47927C12.0069 4.29837 12.1162 4.134 12.2541 3.99557C12.3919 3.85714 12.5557 3.74736 12.7358 3.67253C12.916 3.59769 13.1091 3.55926 13.3041 3.55944Z" fill="url(#paint0_linear_491_516)"/>
<path d="M18.0988 34.9561C26.7456 34.9561 26.2057 31.1913 26.2057 31.1913L26.1961 27.291H17.9445V26.12H29.4733C29.4733 26.12 35.0063 26.75 35.0063 17.9902C35.0063 9.23055 30.177 9.54122 30.177 9.54122H27.2948V13.606C27.2948 13.606 27.4502 18.4548 22.5425 18.4548H14.3585C14.3585 18.4548 9.76056 18.3802 9.76056 22.9165V30.4171C9.76056 30.4171 9.06236 34.9561 18.0987 34.9561H18.0988ZM22.6487 32.3334C22.4537 32.3336 22.2606 32.2952 22.0804 32.2203C21.9002 32.1455 21.7365 32.0357 21.5986 31.8973C21.4607 31.7589 21.3514 31.5945 21.2769 31.4136C21.2023 31.2327 21.1641 31.0388 21.1642 30.843C21.164 30.6473 21.2023 30.4534 21.2768 30.2724C21.3514 30.0915 21.4607 29.9271 21.5986 29.7887C21.7364 29.6503 21.9002 29.5405 22.0804 29.4656C22.2605 29.3908 22.4537 29.3523 22.6487 29.3525C22.8436 29.3523 23.0367 29.3908 23.2169 29.4656C23.3971 29.5405 23.5608 29.6502 23.6987 29.7887C23.8366 29.9271 23.9459 30.0915 24.0204 30.2724C24.095 30.4533 24.1333 30.6471 24.1331 30.8429C24.1333 31.0387 24.095 31.2326 24.0204 31.4135C23.9459 31.5944 23.8366 31.7587 23.6987 31.8972C23.5608 32.0356 23.3971 32.1454 23.2169 32.2202C23.0367 32.295 22.8436 32.3336 22.6487 32.3334Z" fill="url(#paint1_linear_491_516)"/>
</g>
<defs>
<linearGradient id="paint0_linear_491_516" x1="328.269" y1="306.923" x2="2022.91" y2="1977.95" gradientUnits="userSpaceOnUse">
<stop stop-color="#387EB8"/>
<stop offset="1" stop-color="#366994"/>
</linearGradient>
<linearGradient id="paint1_linear_491_516" x1="492.889" y1="532.582" x2="2312.4" y2="2245.75" gradientUnits="userSpaceOnUse">
<stop stop-color="#FFE052"/>
<stop offset="1" stop-color="#FFC331"/>
</linearGradient>
<clipPath id="clip0_491_516">
<rect width="34.1463" height="34.1463" fill="white" transform="translate(0.926758 0.926819)"/>
</clipPath>
</defs>
</svg>
