<svg width="38" height="38" viewBox="0 0 38 38" fill="none" xmlns="http://www.w3.org/2000/svg">
<g clip-path="url(#clip0_491_506)">
<path d="M19.3157 37.2995L26.1596 14.4543H12.4717L19.3157 37.2995Z" fill="#E24329"/>
<path d="M19.3153 37.2993L12.4713 14.4542H2.87988L19.3153 37.2993Z" fill="#FC6D26"/>
<path d="M2.87956 14.4542L0.799832 21.3967C0.70736 21.7054 0.707348 22.0378 0.799795 22.3465C0.892243 22.6551 1.0724 22.9241 1.31446 23.1149L19.315 37.2994L2.87942 14.4543L2.87956 14.4542Z" fill="#FCA326"/>
<path d="M2.87988 14.4543H12.4713L8.34945 0.694782C8.13733 -0.0132482 7.21384 -0.0130906 7.00186 0.694782L2.87988 14.4543Z" fill="#E24329"/>
<path d="M19.3156 37.2993L26.1595 14.4542H35.751L19.3156 37.2993Z" fill="#FC6D26"/>
<path d="M35.7509 14.4542L37.8306 21.3967C37.9231 21.7054 37.9231 22.0379 37.8306 22.3465C37.7381 22.6552 37.5579 22.9241 37.3158 23.1149L19.3154 37.2994L35.7509 14.4543V14.4542Z" fill="#FCA326"/>
<path d="M35.7507 14.4543H26.1592L30.2812 0.694782C30.4933 -0.0132482 31.4168 -0.0130906 31.6288 0.694782L35.7507 14.4543Z" fill="#E24329"/>
</g>
<defs>
<clipPath id="clip0_491_506">
<rect width="37.1951" height="37.1951" fill="white" transform="translate(0.707031 0.0975342)"/>
</clipPath>
</defs>
</svg>
