<svg width="42" height="42" viewBox="0 0 42 42" fill="none" xmlns="http://www.w3.org/2000/svg">
<path d="M19.6441 0.0811549C19.555 0.0892525 19.2716 0.117594 19.0166 0.137838C13.1337 0.668226 7.62333 3.84246 4.13329 8.72122C2.18989 11.4339 0.946916 14.511 0.477259 17.7702C0.311259 18.9079 0.291016 19.244 0.291016 20.7865C0.291016 22.3291 0.311259 22.6652 0.477259 23.8029C1.60282 31.5806 7.13748 38.1153 14.6439 40.5364C15.9881 40.9696 17.4051 41.2652 19.0166 41.4434C19.6441 41.5122 22.3568 41.5122 22.9843 41.4434C25.7659 41.1356 28.1222 40.4474 30.4462 39.2611C30.8025 39.0789 30.8713 39.0303 30.8228 38.9898C30.7904 38.9655 29.2721 36.929 27.4501 34.4673L24.1382 29.9934L19.9883 23.8515C17.7048 20.4748 15.8261 17.7135 15.8099 17.7135C15.7937 17.7095 15.7775 20.4384 15.7694 23.7705C15.7573 29.6048 15.7533 29.8396 15.6804 29.9772C15.5751 30.1756 15.4941 30.2566 15.3241 30.3457C15.1945 30.4105 15.0812 30.4226 14.4698 30.4226H13.7694L13.5831 30.3052C13.4616 30.2283 13.3726 30.127 13.3118 30.0096L13.2268 29.8274L13.2349 21.7097L13.2471 13.5878L13.3726 13.4299C13.4374 13.3449 13.575 13.2356 13.6722 13.183C13.8382 13.102 13.903 13.0939 14.6034 13.0939C15.4294 13.0939 15.567 13.1263 15.7816 13.3611C15.8423 13.4259 18.0894 16.8107 20.7778 20.8878C23.4662 24.9649 27.1424 30.5319 28.9482 33.2648L32.2277 38.2327L32.3937 38.1234C33.8634 37.1679 35.4181 35.8075 36.6489 34.3904C39.2685 31.3822 40.9568 27.714 41.5236 23.8029C41.6896 22.6652 41.7099 22.3291 41.7099 20.7865C41.7099 19.244 41.6896 18.9079 41.5236 17.7702C40.3981 9.99253 34.8634 3.45783 27.357 1.03666C26.0331 0.607495 24.6241 0.311935 23.0451 0.133789C22.6564 0.0933012 19.9802 0.0487648 19.6441 0.0811549ZM28.1222 12.608C28.3166 12.7052 28.4745 12.8914 28.5312 13.0858C28.5635 13.1911 28.5716 15.4422 28.5635 20.5153L28.5514 27.795L27.2679 25.8273L25.9804 23.8596V18.5678C25.9804 15.1466 25.9966 13.2234 26.0209 13.1303C26.0857 12.9036 26.2274 12.7255 26.4218 12.6202C26.5878 12.5352 26.6485 12.5271 27.2841 12.5271C27.8834 12.5271 27.9886 12.5352 28.1222 12.608Z" fill="black"/>
</svg>
