<svg width="32" height="32" viewBox="0 0 32 32" fill="none" xmlns="http://www.w3.org/2000/svg">
<path d="M8.588 4.4665C8.198 5.188 8 5.8725 8.0005 6.5265L8.083 8.094C7.362 8.1935 6.416 8.394 6.038 9.3095C5.859 9.742 5.971 10.4055 6.005 10.569C6.104 11.292 6.3115 12.7975 7.5815 13.1935C7.8575 13.2795 8.128 13.3465 8.3625 13.397L8.5 16C8.5 18.018 9.77 19.0155 11.012 19.7255L11.0375 19.739C11.0555 19.748 11.0735 19.7555 11.0925 19.7625L11.9985 20.089L11.9935 22.654L3.303 26.033C3.19143 26.0818 3.10013 26.1677 3.0445 26.276L1.0345 30.3C0.9745 30.454 0.996 30.64 1.089 30.776C1.182 30.912 1.348 31 1.513 31H15.98C16.2565 31 16.493 30.763 16.493 30.487V30H30V29H16.493V28H29V27H16.493V26H25.5V25H16.493V24H21V23H16.493V22H19.5V21H16.5V20H20V19H16.5V18H23V17H16.5V16H23V15H16.5V14H23.5V13H16.5V12H25.5V11H16.5V10H25.5V9H16.5V8H23.5V7H16.5V6H23.5V5H16.5V4H22.5V3H16.5V2H20.52V1H16.013V1.0025C16.0085 1.0025 16.0045 1 16 1H14.5785C12.04 1 9.7445 2.328 8.588 4.4665ZM8.3075 12.358C8.16371 12.3221 8.02098 12.2821 7.8795 12.238C7.328 12.0665 7.1275 11.392 6.9905 10.402C6.938 10.139 6.924 9.7865 6.962 9.691C7.117 9.3165 7.5725 9.1835 8.136 9.097L8.2025 10.355L8.3075 12.358ZM15.493 30H2.301L3.8545 26.891L12.6555 23.4695C12.7535 23.4322 12.838 23.3664 12.8983 23.2805C12.9585 23.1947 12.9917 23.0928 12.9935 22.988L12.9985 20.452L15.4935 21.351L15.493 30ZM14.5785 2H15.5V20.288L11.472 18.837C10.0355 18.008 9.5 17.236 9.4995 15.9735L9.3405 12.9535L9.1065 8.5015L9.1055 8.4975L9 6.5C9 6.0465 9.1615 5.508 9.468 4.942C10.449 3.1275 12.4075 2 14.5785 2Z" fill="white"/>
</svg>
