<svg width="230" height="68" viewBox="0 0 230 68" fill="none" xmlns="http://www.w3.org/2000/svg">
<path d="M137.99 25.9177H131.537V56.4626H137.99V25.9177Z" fill="white"/>
<path d="M137.99 25.9177H131.537V56.4626H137.99V25.9177Z" fill="white"/>
<path d="M137.99 25.9177H131.537V56.4626H137.99V25.9177Z" stroke="white" stroke-width="0.617698" stroke-miterlimit="10"/>
<path d="M137.99 25.9177H131.537V56.4626H137.99V25.9177Z" stroke="white" stroke-width="0.617698" stroke-miterlimit="10"/>
<path d="M137.657 22.2863H131.879C131.845 22.2866 131.814 22.2804 131.783 22.2682C131.753 22.2559 131.725 22.2377 131.702 22.2146C131.678 22.1916 131.66 22.1642 131.647 22.134C131.634 22.1037 131.628 22.0713 131.628 22.0385V16.2543C131.628 16.1879 131.654 16.1242 131.702 16.0772C131.748 16.0303 131.812 16.0039 131.879 16.0039H137.657C137.724 16.0038 137.788 16.0303 137.834 16.0772C137.881 16.1242 137.907 16.1879 137.907 16.2543V22.0331C137.909 22.0664 137.903 22.0996 137.891 22.1306C137.879 22.1617 137.861 22.1899 137.837 22.2136C137.814 22.2373 137.785 22.256 137.754 22.2685C137.724 22.2809 137.691 22.287 137.657 22.2863Z" fill="#7561C1" stroke="#7561C1" stroke-width="0.617698" stroke-miterlimit="10"/>
<path fill-rule="evenodd" clip-rule="evenodd" d="M7.55469 32.2313C7.55469 27.9253 9.26524 23.7957 12.31 20.7509C15.3548 17.7062 19.4844 15.9956 23.7903 15.9956H50.389L41.9273 23.7612H14.3544V32.2313H7.55469Z" fill="white"/>
<path fill-rule="evenodd" clip-rule="evenodd" d="M7.55469 44.8473C7.55469 43.1905 7.88101 41.55 8.51511 40.0193C9.14914 38.4886 10.0786 37.0974 11.2501 35.9258C12.4217 34.7543 13.8126 33.8249 15.3434 33.191C16.8742 32.557 18.5148 32.2305 20.1717 32.2305H39.2306V39.9959H14.3544V44.8473H7.55469Z" fill="white"/>
<path d="M121.045 25.8555H121.007C119.853 25.8774 118.373 26.4058 116.691 28.3128C116.417 28.8769 116.161 29.4411 115.891 30.0049C115.891 30.0049 115.872 28.4669 115.866 28.4779V26.0481H109.419V56.3896H115.866V36.7638C115.866 36.4528 115.968 34.1493 117.916 32.7022C118.838 32.0307 119.954 31.6773 121.094 31.695H126.524L126.604 25.8555H121.045Z" fill="white" stroke="white" stroke-width="0.617698" stroke-miterlimit="10"/>
<path fill-rule="evenodd" clip-rule="evenodd" d="M7.55469 44.5974C7.55469 47.78 8.81906 50.8329 11.0696 53.0832C12.1839 54.1975 13.5069 55.0815 14.9629 55.6843C16.4188 56.2878 17.9794 56.598 19.5553 56.598H50.5463V48.8184H14.3544V44.5974H7.55469Z" fill="white"/>
<path d="M65.6175 25.9177H76.9381C77.8589 25.9174 78.7698 26.0984 79.6205 26.4503C80.4705 26.8022 81.2433 27.3182 81.8943 27.9688C82.5452 28.6194 83.0616 29.3922 83.4136 30.2422C83.7657 31.0922 83.947 32.0039 83.947 32.924V56.3854H77.4913V32.4452H61.779V56.3854H55.3311V25.9177H61.677V30.4611L65.6175 25.9177Z" fill="white" stroke="white" stroke-width="0.617698" stroke-miterlimit="10"/>
<path d="M88.7559 26.1249V15.9983H95.3873V26.1249H104.634V32.0357H95.3873V49.3361C95.3873 51.4774 97.2091 51.2323 97.2091 51.2323H103.656V56.6092H95.762C93.9033 56.6092 92.1219 55.8712 90.8079 54.5572C89.4939 53.2432 88.7559 51.4611 88.7559 49.6031V26.1249Z" fill="white"/>
<path d="M142.718 56.7048L154.55 41.0365L142.971 25.6812H150.585L158.703 36.8205H159.711L167.828 25.6812H175.506L163.857 41.0195L175.69 56.7048H167.952L159.697 45.3155H158.689L150.434 56.7048H142.718Z" fill="white"/>
<path d="M180.015 24.4223V10.1245H182.22V22.4206H189.104V24.4223H180.015ZM193.699 24.7082C192.977 24.7082 192.33 24.5857 191.758 24.3406C191.2 24.0955 190.751 23.7346 190.41 23.2581C190.084 22.7814 189.92 22.2027 189.92 21.5219C189.92 20.8274 190.084 20.2555 190.41 19.8062C190.751 19.3432 191.207 18.996 191.779 18.7645C192.364 18.533 193.025 18.4173 193.76 18.4173H196.824V17.7636C196.824 17.1781 196.647 16.7083 196.293 16.3542C195.939 16.0002 195.394 15.8232 194.659 15.8232C193.937 15.8232 193.386 15.9934 193.004 16.3338C192.623 16.6743 192.371 17.1168 192.248 17.6615L190.288 17.0283C190.451 16.4836 190.71 15.9934 191.064 15.5576C191.432 15.1083 191.915 14.7474 192.514 14.4751C193.113 14.2028 193.835 14.0666 194.679 14.0666C195.986 14.0666 197.015 14.4002 197.763 15.0675C198.512 15.7347 198.887 16.6811 198.887 17.9066V22.053C198.887 22.4615 199.077 22.6657 199.458 22.6657H200.317V24.4223H198.744C198.267 24.4223 197.879 24.2997 197.579 24.0547C197.28 23.8095 197.13 23.476 197.13 23.0538V22.9925H196.824C196.715 23.1968 196.551 23.4351 196.334 23.7074C196.116 23.9797 195.796 24.2181 195.373 24.4223C194.951 24.613 194.393 24.7082 193.699 24.7082ZM194.005 22.9721C194.849 22.9721 195.53 22.7338 196.048 22.2572C196.565 21.767 196.824 21.0998 196.824 20.2555V20.0512H193.882C193.324 20.0512 192.875 20.1738 192.534 20.4189C192.194 20.6504 192.024 20.9976 192.024 21.4606C192.024 21.9236 192.201 22.2913 192.555 22.5636C192.909 22.8359 193.392 22.9721 194.005 22.9721ZM207.571 24.7082C206.59 24.7082 205.834 24.5312 205.304 24.1772C204.786 23.8232 204.398 23.4283 204.139 22.9925H203.813V24.4223H201.749V10.1245H203.853V15.721H204.18C204.343 15.4488 204.561 15.19 204.834 14.9449C205.106 14.6862 205.466 14.4751 205.916 14.3118C206.365 14.1483 206.917 14.0666 207.571 14.0666C208.415 14.0666 209.191 14.2709 209.899 14.6794C210.607 15.0879 211.172 15.6802 211.594 16.4564C212.016 17.2326 212.228 18.1585 212.228 19.2342V19.5406C212.228 20.63 212.01 21.5627 211.574 22.3389C211.152 23.1015 210.587 23.687 209.879 24.0955C209.185 24.504 208.415 24.7082 207.571 24.7082ZM206.958 22.87C207.87 22.87 208.619 22.5772 209.204 21.9916C209.804 21.4061 210.103 20.5687 210.103 19.4793V19.2955C210.103 18.2198 209.811 17.3892 209.225 16.8036C208.64 16.2181 207.884 15.9253 206.958 15.9253C206.059 15.9253 205.31 16.2181 204.711 16.8036C204.126 17.3892 203.833 18.2198 203.833 19.2955V19.4793C203.833 20.5687 204.126 21.4061 204.711 21.9916C205.31 22.5772 206.059 22.87 206.958 22.87ZM218.348 24.7082C217.068 24.7082 216.006 24.4223 215.161 23.8504C214.317 23.2785 213.799 22.4138 213.609 21.2564L215.569 20.7866C215.679 21.3449 215.863 21.7874 216.121 22.1143C216.38 22.441 216.7 22.6725 217.081 22.8087C217.476 22.9448 217.898 23.0129 218.348 23.0129C219.015 23.0129 219.525 22.8836 219.88 22.6249C220.247 22.3661 220.431 22.0325 220.431 21.624C220.431 21.2155 220.261 20.916 219.92 20.7253C219.58 20.5347 219.076 20.3781 218.409 20.2555L217.714 20.133C217.034 20.0104 216.414 19.8334 215.856 19.6019C215.297 19.3704 214.855 19.0504 214.528 18.6419C214.201 18.2334 214.038 17.7091 214.038 17.0692C214.038 16.1159 214.391 15.3806 215.1 14.8632C215.808 14.3322 216.747 14.0666 217.918 14.0666C219.049 14.0666 219.975 14.3253 220.696 14.8428C221.432 15.3466 221.908 16.0343 222.126 16.9057L220.165 17.4572C220.043 16.8445 219.784 16.4156 219.389 16.1704C218.994 15.9117 218.504 15.7823 217.918 15.7823C217.347 15.7823 216.898 15.8913 216.57 16.1091C216.244 16.3134 216.08 16.6062 216.08 16.9875C216.08 17.396 216.237 17.6955 216.55 17.8861C216.877 18.0768 217.313 18.2198 217.857 18.3151L218.572 18.4377C219.294 18.5602 219.954 18.7304 220.553 18.9483C221.153 19.1662 221.622 19.4793 221.963 19.8879C222.317 20.2964 222.494 20.841 222.494 21.5219C222.494 22.5295 222.119 23.3125 221.371 23.8708C220.621 24.4291 219.614 24.7082 218.348 24.7082Z" fill="#7561C1"/>
</svg>
