<svg width="113" height="24" viewBox="0 0 113 24" fill="none" xmlns="http://www.w3.org/2000/svg">
<g clip-path="url(#clip0_1894_2700)">
<path fill-rule="evenodd" clip-rule="evenodd" d="M14.3421 7.65203C13.4237 7.02078 12.344 6.68384 11.2395 6.68384V0.938965C13.4485 0.938965 15.608 1.61283 17.4447 2.87534C19.2815 4.13785 20.7131 5.93231 21.5584 8.03177C22.4038 10.1312 22.625 12.4415 22.194 14.6703C21.7631 16.899 20.6993 18.9463 19.1372 20.5532C17.5752 22.1601 15.5851 23.2544 13.4185 23.6977C11.2519 24.141 9.00609 23.9135 6.96521 23.0439C4.92432 22.1742 3.17994 20.7016 1.95266 18.8121C0.725373 16.9226 0.0703125 14.7012 0.0703125 12.4287H5.65489C5.65489 13.5649 5.98243 14.6757 6.59606 15.6204C7.2097 16.5652 8.0819 17.3015 9.10237 17.7363C10.1228 18.1711 11.2457 18.2849 12.329 18.0632C13.4123 17.8416 14.4073 17.2944 15.1884 16.491C15.9694 15.6875 16.5013 14.6639 16.7167 13.5495C16.9322 12.4351 16.8217 11.28 16.399 10.2303C15.9763 9.18051 15.2605 8.28328 14.3421 7.65203Z" fill="#BAB3D6"/>
<path fill-rule="evenodd" clip-rule="evenodd" d="M5.65489 0.938968C5.65489 1.6934 5.51045 2.44044 5.22979 3.13744C4.94914 3.83444 4.53779 4.46775 4.01921 5.00121C3.50063 5.53468 2.88499 5.95784 2.20744 6.24655C1.52988 6.53525 0.803688 6.68385 0.0703127 6.68385L0.0703125 12.4287C1.53707 12.4287 2.98946 12.1315 4.34457 11.5541C5.69968 10.9767 6.93097 10.1304 7.96808 9.06343C9.00525 7.99655 9.82797 6.72992 10.3893 5.33591C10.9506 3.9419 11.2395 2.44782 11.2395 0.938965L5.65489 0.938968Z" fill="#BAB3D6"/>
<path d="M70.2214 9.2417H67.5117V18.0959H70.2214V9.2417Z" fill="#BAB3D6"/>
<path d="M67.8139 7.58391C68.0971 7.8754 68.4511 8.02115 68.8761 8.02115C69.3011 8.02115 69.6496 7.8754 69.921 7.58391C70.193 7.28029 70.3287 6.91589 70.3287 6.4908C70.3287 6.05357 70.193 5.68918 69.921 5.3977C69.6496 5.10619 69.3011 4.96045 68.8761 4.96045C68.4511 4.96045 68.0971 5.10619 67.8139 5.3977C67.542 5.68918 67.4062 6.05357 67.4062 6.4908C67.4062 6.91589 67.542 7.28029 67.8139 7.58391Z" fill="#BAB3D6"/>
<path d="M28.6367 18.0959V5.23364H31.4172V15.5818H36.9605V18.0959H28.6367Z" fill="#BAB3D6"/>
<path fill-rule="evenodd" clip-rule="evenodd" d="M41.9687 18.2963C41.0832 18.2963 40.2804 18.0959 39.5601 17.6951C38.8517 17.2821 38.2909 16.7234 37.8776 16.0189C37.4644 15.3145 37.2578 14.525 37.2578 13.6505C37.2578 12.7761 37.4644 11.9927 37.8776 11.3004C38.2909 10.6081 38.8517 10.0615 39.5601 9.66073C40.2685 9.24773 41.0714 9.04126 41.9687 9.04126C42.866 9.04126 43.6689 9.2417 44.3773 9.64246C45.0857 10.0433 45.6465 10.5959 46.0597 11.3004C46.473 11.9927 46.6796 12.7761 46.6796 13.6505C46.6796 14.525 46.473 15.3145 46.0597 16.0189C45.6465 16.7234 45.0857 17.2821 44.3773 17.6951C43.6689 18.0959 42.866 18.2963 41.9687 18.2963ZM41.9687 15.7639C42.3583 15.7639 42.7007 15.6789 42.9959 15.5088C43.2911 15.3267 43.5154 15.0777 43.6689 14.7619C43.8342 14.434 43.9168 14.0635 43.9168 13.6505C43.9168 13.2376 43.8342 12.8793 43.6689 12.5757C43.5036 12.2599 43.2734 12.017 42.9782 11.8469C42.6948 11.6647 42.3583 11.5737 41.9687 11.5737C41.5909 11.5737 41.2544 11.6647 40.9592 11.8469C40.6641 12.017 40.4338 12.2599 40.2685 12.5757C40.1032 12.8915 40.0206 13.2558 40.0206 13.6688C40.0206 14.0696 40.1032 14.434 40.2685 14.7619C40.4338 15.0777 40.6641 15.3267 40.9592 15.5088C41.2544 15.6789 41.5909 15.7639 41.9687 15.7639Z" fill="#BAB3D6"/>
<path fill-rule="evenodd" clip-rule="evenodd" d="M48.8253 21.5575C49.5455 21.8975 50.3779 22.0676 51.3224 22.0676C52.2433 22.0676 53.0639 21.8793 53.7841 21.5028C54.5044 21.1263 55.071 20.6041 55.4843 19.9361C55.8975 19.268 56.1044 18.4786 56.1044 17.5676V9.2418H53.4476V9.83668C53.25 9.6656 53.0256 9.52198 52.7747 9.40576C52.3142 9.17499 51.7888 9.05957 51.1985 9.05957C50.4074 9.05957 49.7049 9.25392 49.091 9.64256C48.4769 10.0191 47.9929 10.5413 47.6387 11.2094C47.2845 11.8653 47.1074 12.6061 47.1074 13.4321C47.1074 14.2458 47.2845 14.9867 47.6387 15.6547C47.9929 16.3227 48.4769 16.8511 49.091 17.2397C49.7049 17.6283 50.4074 17.8227 51.1985 17.8227C51.777 17.8227 52.3024 17.7073 52.7747 17.4766C53.0034 17.3648 53.21 17.233 53.3945 17.0813V17.6405C53.3945 18.2599 53.1997 18.7397 52.8101 19.0798C52.4323 19.4199 51.9069 19.5899 51.2339 19.5899C50.6908 19.5899 50.2244 19.4927 49.8348 19.2984C49.457 19.1041 49.1145 18.8186 48.8075 18.4421L47.1428 20.1547C47.556 20.7619 48.1169 21.2296 48.8253 21.5575ZM52.6861 15.0899C52.4145 15.26 52.0899 15.345 51.712 15.345C51.3342 15.345 51.0036 15.26 50.7203 15.0899C50.4487 14.9199 50.2362 14.6891 50.0827 14.3976C49.9292 14.094 49.8525 13.7721 49.8525 13.4321C49.8525 13.0677 49.9292 12.7397 50.0827 12.4482C50.2362 12.1567 50.4546 11.926 50.738 11.7559C51.0213 11.5859 51.346 11.5009 51.712 11.5009C52.0899 11.5009 52.4145 11.5859 52.6861 11.7559C52.9694 11.926 53.1819 12.1567 53.3237 12.4482C53.4771 12.7397 53.5539 13.0677 53.5539 13.4321C53.5539 13.7964 53.4771 14.1243 53.3237 14.4158C53.1819 14.6952 52.9694 14.9199 52.6861 15.0899Z" fill="#BAB3D6"/>
<path fill-rule="evenodd" clip-rule="evenodd" d="M61.8069 18.2963C60.9211 18.2963 60.1181 18.0959 59.3982 17.6951C58.6895 17.2821 58.1289 16.7234 57.7156 16.0189C57.3023 15.3145 57.0957 14.525 57.0957 13.6505C57.0957 12.7761 57.3023 11.9927 57.7156 11.3004C58.1289 10.6081 58.6895 10.0615 59.3982 9.66073C60.1064 9.24773 60.9094 9.04126 61.8069 9.04126C62.7037 9.04126 63.5068 9.2417 64.2149 9.64246C64.9236 10.0433 65.4843 10.5959 65.8976 11.3004C66.3108 11.9927 66.5175 12.7761 66.5175 13.6505C66.5175 14.525 66.3108 15.3145 65.8976 16.0189C65.4843 16.7234 64.9236 17.2821 64.2149 17.6951C63.5068 18.0959 62.7037 18.2963 61.8069 18.2963ZM61.8069 15.7639C62.1961 15.7639 62.5384 15.6789 62.8339 15.5088C63.1287 15.3267 63.3532 15.0777 63.5068 14.7619C63.6721 14.434 63.7548 14.0635 63.7548 13.6505C63.7548 13.2376 63.6721 12.8793 63.5068 12.5757C63.3415 12.2599 63.1114 12.017 62.816 11.8469C62.5329 11.6647 62.1961 11.5737 61.8069 11.5737C61.4288 11.5737 61.092 11.6647 60.7972 11.8469C60.5017 12.017 60.2717 12.2599 60.1064 12.5757C59.941 12.8915 59.8584 13.2558 59.8584 13.6688C59.8584 14.0696 59.941 14.434 60.1064 14.7619C60.2717 15.0777 60.5017 15.3267 60.7972 15.5088C61.092 15.6789 61.4288 15.7639 61.8069 15.7639Z" fill="#BAB3D6"/>
<path fill-rule="evenodd" clip-rule="evenodd" d="M76.7339 18.2781C76.1559 18.2781 75.6243 18.1628 75.1401 17.932C74.8854 17.8106 74.6554 17.6656 74.4498 17.497V21.8308H71.7754V9.2418H74.485V9.85288C74.6816 9.68749 74.9 9.5445 75.1401 9.42397C75.6243 9.18102 76.1559 9.05957 76.7339 9.05957C77.5487 9.05957 78.2691 9.26001 78.8946 9.66083C79.5324 10.0616 80.0283 10.6082 80.3823 11.3005C80.7487 11.9928 80.9313 12.7823 80.9313 13.6689C80.9313 14.5555 80.7487 15.345 80.3823 16.0373C80.0283 16.7296 79.5324 17.2761 78.8946 17.6769C78.2691 18.0778 77.5487 18.2781 76.7339 18.2781ZM76.2386 15.764C76.6278 15.764 76.9646 15.6729 77.2477 15.4907C77.5432 15.3086 77.7732 15.0595 77.9385 14.7438C78.1038 14.428 78.1865 14.0697 78.1865 13.6689C78.1865 13.2559 78.1038 12.8916 77.9385 12.5758C77.7732 12.26 77.5432 12.0171 77.2477 11.847C76.9646 11.6648 76.634 11.5738 76.2559 11.5738C75.8784 11.5738 75.5416 11.6648 75.2468 11.847C74.9631 12.0171 74.7391 12.26 74.5738 12.5758C74.4085 12.8916 74.3259 13.2559 74.3259 13.6689C74.3259 14.0697 74.4024 14.428 74.556 14.7438C74.7213 15.0595 74.9513 15.3086 75.2468 15.4907C75.5416 15.6729 75.8722 15.764 76.2386 15.764Z" fill="#BAB3D6"/>
<path d="M83.5847 18.114C84.0806 18.2477 84.5821 18.3144 85.0897 18.3144C86.1642 18.3144 87.0142 18.0594 87.6402 17.5493C88.2774 17.0392 88.5963 16.3529 88.5963 15.4906C88.5963 14.9319 88.4963 14.4825 88.2953 14.1424C88.0948 13.7902 87.8351 13.5108 87.5162 13.3044C87.1974 13.0979 86.8606 12.9339 86.5066 12.8124C86.1525 12.691 85.8157 12.5877 85.4974 12.5027C85.1785 12.4177 84.9189 12.3206 84.7178 12.2112C84.5173 12.1019 84.4168 11.9562 84.4168 11.774C84.4168 11.6039 84.4939 11.4764 84.6469 11.3914C84.8005 11.2942 85.0305 11.2457 85.3377 11.2457C85.6566 11.2457 85.981 11.3124 86.3117 11.4461C86.654 11.5796 86.9611 11.8105 87.2326 12.1384L88.7733 10.5352C88.3841 10.025 87.8765 9.64241 87.2504 9.38739C86.6367 9.1202 85.9637 8.98657 85.2316 8.98657C84.5352 8.98657 83.927 9.10802 83.4077 9.35091C82.8877 9.59386 82.4862 9.92787 82.2031 10.3529C81.9199 10.7659 81.7781 11.2578 81.7781 11.8287C81.7781 12.3631 81.8786 12.8064 82.0791 13.1586C82.2796 13.4987 82.5398 13.7659 82.8581 13.9602C83.177 14.1546 83.5138 14.3064 83.8678 14.4157C84.2219 14.525 84.5586 14.6282 84.8775 14.7254C85.1958 14.8104 85.4561 14.9137 85.6566 15.0351C85.8694 15.1445 85.9755 15.3084 85.9755 15.527C85.9755 15.6971 85.8867 15.8306 85.7096 15.9278C85.5443 16.025 85.3025 16.0736 84.9836 16.0736C84.5229 16.0736 84.0979 15.9885 83.7087 15.8185C83.3189 15.6363 82.9821 15.3873 82.699 15.0715L81.1582 16.6748C81.4536 17.0027 81.8077 17.2942 82.2209 17.5493C82.6459 17.7922 83.1005 17.9804 83.5847 18.114Z" fill="#BAB3D6"/>
<path d="M93.5377 18.2963C92.7469 18.2963 92.0443 18.1323 91.4306 17.8044C90.828 17.4643 90.3561 17.0027 90.0138 16.4198C89.6709 15.8246 89.5 15.1445 89.5 14.3793V9.2417H92.2096V14.3429C92.2096 14.6465 92.2566 14.9076 92.3515 15.1262C92.4576 15.3449 92.6112 15.5149 92.8117 15.6364C93.0127 15.7578 93.2545 15.8186 93.5377 15.8186C93.9392 15.8186 94.2581 15.691 94.4943 15.4359C94.7305 15.1687 94.8484 14.8044 94.8484 14.3429V9.2417H97.558V14.3611C97.558 15.1384 97.3871 15.8246 97.0442 16.4198C96.7019 17.0027 96.23 17.4643 95.6274 17.8044C95.0254 18.1323 94.329 18.2963 93.5377 18.2963Z" fill="#BAB3D6"/>
<path d="M101.614 9.2418H98.9043V18.096H101.614V12.9219C101.614 12.6183 101.673 12.3632 101.791 12.1568C101.921 11.9503 102.093 11.7924 102.305 11.6831C102.518 11.5616 102.759 11.5009 103.031 11.5009C103.421 11.5009 103.745 11.6284 104.005 11.8835C104.277 12.1264 104.412 12.4725 104.412 12.9219V18.096H107.122V12.9219C107.122 12.6183 107.181 12.3632 107.299 12.1568C107.429 11.9503 107.6 11.7924 107.813 11.6831C108.025 11.5616 108.267 11.5009 108.539 11.5009C108.929 11.5009 109.253 11.6284 109.513 11.8835C109.784 12.1264 109.92 12.4725 109.92 12.9219V18.096H112.63V12.6122C112.63 11.8713 112.477 11.2398 112.169 10.7175C111.874 10.183 111.467 9.77619 110.947 9.49687C110.44 9.20532 109.855 9.05957 109.194 9.05957C108.521 9.05957 107.913 9.21141 107.37 9.51508C107.017 9.70851 106.709 9.95818 106.445 10.264C106.198 9.94411 105.899 9.68232 105.545 9.4786C105.074 9.19929 104.536 9.05957 103.934 9.05957C103.297 9.05957 102.724 9.19929 102.217 9.4786C101.995 9.59482 101.795 9.73402 101.614 9.8962V9.2418Z" fill="#BAB3D6"/>
</g>
<defs>
<clipPath id="clip0_1894_2700">
<rect width="112.809" height="22.9795" fill="white" transform="translate(0.15625 0.510254)"/>
</clipPath>
</defs>
</svg>
