<svg width="131" height="32" viewBox="0 0 131 32" fill="none" xmlns="http://www.w3.org/2000/svg">
<g clip-path="url(#clip0_1894_2685)">
<path fill-rule="evenodd" clip-rule="evenodd" d="M41.3555 3.29925C41.3555 2.27276 42.1547 1.44061 43.1408 1.44061H46.2509C46.9527 1.44061 47.6328 1.6938 48.1754 2.15708L49.1215 2.96481L49.1452 2.98727C49.167 2.97961 49.1888 2.97211 49.2107 2.96481C50.9176 2.39564 52.9886 2.28739 55.1023 2.28739C57.2159 2.28739 59.2869 2.39564 60.9938 2.96481C61.0157 2.97211 61.0375 2.97961 61.0593 2.98727L61.083 2.96481L62.0291 2.15708C62.5717 1.6938 63.2519 1.44061 63.9536 1.44061H67.0637C68.0498 1.44061 68.849 2.27276 68.849 3.29925V4.44823C68.849 5.33721 68.4894 6.18506 67.8581 6.78379L67.0949 7.50781C66.7223 7.86127 66.2751 8.11851 65.7893 8.25875L65.6088 8.31088C66.316 10.0677 66.7067 11.9456 66.7067 13.4648C66.7067 19.5758 63.0748 22.215 59.8747 24.5405C57.3546 26.3718 55.1023 28.0085 55.1023 30.993C55.1023 28.0085 52.8499 26.3718 50.3298 24.5405C47.1297 22.215 43.4978 19.5758 43.4978 13.4648C43.4978 11.9456 43.8885 10.0677 44.5957 8.31088L44.4152 8.25875C43.9294 8.11851 43.4822 7.86127 43.1096 7.50781L42.3464 6.78379C41.7152 6.18506 41.3555 5.33721 41.3555 4.44823V3.29925ZM57.4232 18.4607C57.4232 18.7527 57.3009 19.0327 57.0833 19.2392C56.8657 19.4456 56.5705 19.5616 56.2627 19.5616C55.997 19.5616 55.7406 19.4751 55.5355 19.3186C55.8847 20.2916 56.7782 21.2135 58.1373 19.7309C59.3371 18.3532 58.0839 15.4476 56.8631 13.7233C56.4561 13.1486 55.7881 12.872 55.1023 12.872C54.4164 12.872 53.7484 13.1486 53.3414 13.7233C52.1206 15.4476 50.8674 18.3532 52.0672 19.7309C53.4263 21.2135 54.3198 20.2916 54.669 19.3186C54.4639 19.4751 54.2075 19.5616 53.9418 19.5616C53.634 19.5616 53.3389 19.4456 53.1212 19.2392C52.9036 19.0327 52.7814 18.7527 52.7814 18.4607H57.4232ZM50.6583 9.85945H47.4255L49.9733 11.9833C50.5339 12.4506 51.3534 12.3012 51.7003 11.6684C52.1383 10.8695 51.5566 9.85945 50.6583 9.85945ZM59.5462 9.85945H62.779L60.2312 11.9833C59.6706 12.4506 58.8511 12.3012 58.5042 11.6684C58.0662 10.8695 58.648 9.85945 59.5462 9.85945Z" fill="#BAB3D6"/>
<path d="M72.6992 22.3733H75.5632V11.003H72.6992V22.3733ZM72.6992 9.22987H75.5632V6.52582H72.6992V9.22987Z" fill="#BAB3D6"/>
<path d="M77.4082 26.097H80.2722V21.0879H80.3143C80.925 22.0631 81.9148 22.7058 83.4311 22.7058C86.2108 22.7058 88.1061 20.3786 88.1061 16.6993C88.1061 13.153 86.274 10.6928 83.41 10.6928C81.9359 10.6928 80.925 11.4242 80.2301 12.4216H80.1669V11.0031H77.4082V26.097ZM82.8204 20.2013C81.1146 20.2013 80.209 18.8493 80.209 16.788C80.209 14.7489 80.925 13.1309 82.7151 13.1309C84.484 13.1309 85.2 14.6381 85.2 16.788C85.2 18.9379 84.2734 20.2013 82.8204 20.2013Z" fill="#BAB3D6"/>
<path d="M93.8198 22.7058C96.5153 22.7058 98.3685 21.3317 98.3685 19.0487C98.3685 16.389 96.3679 15.8571 94.5568 15.4581C93.0195 15.1257 91.5875 15.037 91.5875 14.0618C91.5875 13.2417 92.3246 12.7984 93.4407 12.7984C94.6621 12.7984 95.3992 13.2417 95.5255 14.4607H98.1158C97.9052 12.1778 96.3258 10.6928 93.4828 10.6928C91.0189 10.6928 89.0815 11.8675 89.0815 14.3278C89.0815 16.8102 90.9768 17.3643 92.9142 17.7632C94.3884 18.0735 95.7572 18.1843 95.7572 19.2704C95.7572 20.0683 95.0412 20.5781 93.7777 20.5781C92.4931 20.5781 91.6086 20.0018 91.4191 18.6941H88.7656C88.9341 21.11 90.682 22.7058 93.8198 22.7058Z" fill="#BAB3D6"/>
<path d="M109.242 22.3734V11.0031H106.378V17.5637C106.378 19.0709 105.557 20.1348 104.209 20.1348C102.988 20.1348 102.419 19.4034 102.419 18.0735V11.0031H99.5762V18.5833C99.5762 21.0657 100.924 22.6837 103.325 22.6837C104.841 22.6837 105.683 22.0853 106.42 21.0435H106.484V22.3734H109.242Z" fill="#BAB3D6"/>
<path d="M111.096 22.3734H113.96V15.7684C113.96 14.2613 114.739 13.286 115.897 13.286C116.95 13.286 117.561 13.951 117.561 15.2365V22.3734H120.425V15.7684C120.425 14.2613 121.162 13.286 122.362 13.286C123.415 13.286 124.026 13.951 124.026 15.2365V22.3734H126.89V14.7267C126.89 12.2443 125.605 10.6928 123.331 10.6928C121.962 10.6928 120.825 11.4464 120.088 12.6876H120.046C119.519 11.4907 118.424 10.6928 117.055 10.6928C115.56 10.6928 114.507 11.4907 113.918 12.5324H113.854V11.0031H111.096V22.3734Z" fill="#BAB3D6"/>
<path d="M0.394531 22.3733H3.25855V6.52582H0.394531V22.3733Z" fill="#BAB3D6"/>
<path d="M10.261 22.7058C13.6094 22.7058 15.9048 20.0905 15.9048 16.6993C15.9048 13.3082 13.6094 10.6928 10.261 10.6928C6.91261 10.6928 4.61719 13.3082 4.61719 16.6993C4.61719 20.0905 6.91261 22.7058 10.261 22.7058ZM10.261 20.4008C8.49207 20.4008 7.52336 18.9158 7.52336 16.6993C7.52336 14.4829 8.49207 12.9757 10.261 12.9757C12.0089 12.9757 12.9987 14.4829 12.9987 16.6993C12.9987 18.9158 12.0089 20.4008 10.261 20.4008Z" fill="#BAB3D6"/>
<path d="M21.9948 26.2521C23.5953 26.2521 24.9852 25.8532 25.8907 24.9666C26.6909 24.1909 27.1753 23.1048 27.1753 21.509V11.0031H24.4166V12.2H24.3744C23.7216 11.2469 22.7318 10.6928 21.3841 10.6928C18.6464 10.6928 16.709 12.8649 16.709 16.256C16.709 19.6915 19.0676 21.6863 21.4683 21.6863C22.8371 21.6863 23.6584 21.11 24.2902 20.3564H24.3534V21.5976C24.3534 23.1491 23.5742 23.9692 21.9527 23.9692C20.6259 23.9692 20.0152 23.4151 19.7836 22.7058H16.9406C17.2355 24.9223 19.0465 26.2521 21.9948 26.2521ZM21.9527 19.2704C20.4785 19.2704 19.5098 18.14 19.5098 16.2117C19.5098 14.3056 20.4785 13.1087 21.9316 13.1087C23.6584 13.1087 24.5008 14.5272 24.5008 16.1896C24.5008 17.874 23.7637 19.2704 21.9527 19.2704Z" fill="#BAB3D6"/>
<path d="M34.136 22.7058C37.4844 22.7058 39.7798 20.0905 39.7798 16.6993C39.7798 13.3082 37.4844 10.6928 34.136 10.6928C30.7876 10.6928 28.4922 13.3082 28.4922 16.6993C28.4922 20.0905 30.7876 22.7058 34.136 22.7058ZM34.136 20.4008C32.367 20.4008 31.3983 18.9158 31.3983 16.6993C31.3983 14.4829 32.367 12.9757 34.136 12.9757C35.8839 12.9757 36.8736 14.4829 36.8736 16.6993C36.8736 18.9158 35.8839 20.4008 34.136 20.4008Z" fill="#BAB3D6"/>
<path d="M126.76 8.52062C126.76 8.01057 127.152 7.59711 127.637 7.59711H129.392C129.876 7.59711 130.27 8.01057 130.27 8.52062C130.27 9.03063 129.876 9.44414 129.392 9.44414H127.637C127.152 9.44414 126.76 9.03063 126.76 8.52062Z" fill="#BAB3D6"/>
</g>
<defs>
<clipPath id="clip0_1894_2685">
<rect width="130.565" height="30.2912" fill="white" transform="translate(0 0.854431)"/>
</clipPath>
</defs>
</svg>
