<svg width="83" height="34" viewBox="0 0 83 34" fill="none" xmlns="http://www.w3.org/2000/svg">
<g clip-path="url(#clip0_1894_2713)">
<path d="M38.0234 29.764H40.1723V21.4145H38.0234V29.764ZM38.0234 20.1124H40.1723V18.1268H38.0234V20.1124Z" fill="#BAB3D6"/>
<path d="M41.5566 32.4983H43.7055V28.82H43.7372C44.1954 29.5361 44.938 30.0081 46.0757 30.0081C48.1614 30.0081 49.5835 28.2991 49.5835 25.5973C49.5835 22.9932 48.2088 21.1866 46.0599 21.1866C44.9538 21.1866 44.1954 21.7237 43.674 22.4561H43.6266V21.4145H41.5566V32.4983ZM45.6175 28.1689C44.3376 28.1689 43.6582 27.1761 43.6582 25.6624C43.6582 24.1651 44.1954 22.9769 45.5385 22.9769C46.8657 22.9769 47.403 24.0836 47.403 25.6624C47.403 27.2412 46.7078 28.1689 45.6175 28.1689Z" fill="#BAB3D6"/>
<path d="M53.8704 30.0081C55.8928 30.0081 57.2833 28.999 57.2833 27.3226C57.2833 25.3695 55.7823 24.9789 54.4234 24.6859C53.2699 24.4418 52.1954 24.3766 52.1954 23.6605C52.1954 23.0583 52.7485 22.7327 53.586 22.7327C54.5024 22.7327 55.0554 23.0583 55.1502 23.9535H57.0937C56.9357 22.2771 55.7507 21.1866 53.6176 21.1866C51.7689 21.1866 50.3151 22.0492 50.3151 23.8558C50.3151 25.6787 51.7373 26.0856 53.1909 26.3786C54.297 26.6064 55.324 26.6878 55.324 27.4854C55.324 28.0713 54.7868 28.4456 53.8387 28.4456C52.8749 28.4456 52.2112 28.0225 52.0691 27.0621H50.0781C50.2046 28.8363 51.516 30.0081 53.8704 30.0081Z" fill="#BAB3D6"/>
<path d="M65.442 29.7641V21.4146H63.2931V26.2322C63.2931 27.339 62.6769 28.1202 61.6656 28.1202C60.7492 28.1202 60.3226 27.5831 60.3226 26.6065V21.4146H58.1895V26.9809C58.1895 28.8038 59.2007 29.992 61.002 29.992C62.1397 29.992 62.7717 29.5525 63.3248 28.7875H63.3722V29.7641H65.442Z" fill="#BAB3D6"/>
<path d="M66.832 29.7639H68.981V24.9137C68.981 23.807 69.5656 23.0909 70.4347 23.0909C71.2247 23.0909 71.683 23.5791 71.683 24.5231V29.7639H73.8319V24.9137C73.8319 23.807 74.3849 23.0909 75.2855 23.0909C76.0755 23.0909 76.5338 23.5791 76.5338 24.5231V29.7639H78.6827V24.1488C78.6827 22.3259 77.7188 21.1866 76.0124 21.1866C74.9853 21.1866 74.1321 21.74 73.579 22.6514H73.5475C73.1524 21.7725 72.3308 21.1866 71.3037 21.1866C70.1818 21.1866 69.3918 21.7725 68.9493 22.5375H68.902V21.4145H66.832V29.7639Z" fill="#BAB3D6"/>
<path d="M38.0547 15.4632H40.2036V3.82599H38.0547V15.4632Z" fill="#BAB3D6"/>
<path d="M45.4573 15.7073C47.9697 15.7073 49.6919 13.7868 49.6919 11.2965C49.6919 8.80635 47.9697 6.8858 45.4573 6.8858C42.945 6.8858 41.2227 8.80635 41.2227 11.2965C41.2227 13.7868 42.945 15.7073 45.4573 15.7073ZM45.4573 14.0146C44.13 14.0146 43.4032 12.9241 43.4032 11.2965C43.4032 9.66896 44.13 8.56222 45.4573 8.56222C46.7688 8.56222 47.5114 9.66896 47.5114 11.2965C47.5114 12.9241 46.7688 14.0146 45.4573 14.0146Z" fill="#BAB3D6"/>
<path d="M54.2629 18.3115C55.4638 18.3115 56.5067 18.0185 57.1861 17.3674C57.7865 16.7978 58.1499 16.0003 58.1499 14.8284V7.11366H56.08V7.99256H56.0484C55.5586 7.29269 54.8159 6.8858 53.8047 6.8858C51.7506 6.8858 50.2969 8.48084 50.2969 10.971C50.2969 13.4938 52.0666 14.9586 53.8679 14.9586C54.895 14.9586 55.5112 14.5355 55.9852 13.9821H56.0326V14.8935C56.0326 16.0328 55.448 16.635 54.2313 16.635C53.2358 16.635 52.7777 16.2281 52.6038 15.7073H50.4707C50.6919 17.3349 52.0508 18.3115 54.2629 18.3115ZM54.2313 13.1846C53.1253 13.1846 52.3984 12.3545 52.3984 10.9385C52.3984 9.53879 53.1253 8.65987 54.2155 8.65987C55.5112 8.65987 56.1432 9.7015 56.1432 10.9222C56.1432 12.1592 55.5902 13.1846 54.2313 13.1846Z" fill="#BAB3D6"/>
<path d="M63.3733 15.7073C65.8856 15.7073 67.6079 13.7868 67.6079 11.2965C67.6079 8.80635 65.8856 6.8858 63.3733 6.8858C60.861 6.8858 59.1387 8.80635 59.1387 11.2965C59.1387 13.7868 60.861 15.7073 63.3733 15.7073ZM63.3733 14.0146C62.046 14.0146 61.3192 12.9241 61.3192 11.2965C61.3192 9.66896 62.046 8.56222 63.3733 8.56222C64.6848 8.56222 65.4274 9.66896 65.4274 11.2965C65.4274 12.9241 64.6848 14.0146 63.3733 14.0146Z" fill="#BAB3D6"/>
<path d="M69.4922 12.2732H78.7829V10.369H69.4922V12.2732Z" fill="#BAB3D6"/>
<path d="M79.4648 19.9961C79.4648 19.6216 79.7596 19.3179 80.1234 19.3179H81.4398C81.8036 19.3179 82.0983 19.6216 82.0983 19.9961C82.0983 20.3706 81.8036 20.6743 81.4398 20.6743H80.1234C79.7596 20.6743 79.4648 20.3706 79.4648 19.9961Z" fill="#BAB3D6"/>
<path fill-rule="evenodd" clip-rule="evenodd" d="M16.3231 1.23859C25.0037 1.23859 32.0407 8.48714 32.0407 17.4287C32.0407 26.3703 25.0037 33.6188 16.3231 33.6188C7.64248 33.6188 0.605469 26.3703 0.605469 17.4287C0.605469 8.48714 7.64248 1.23859 16.3231 1.23859ZM15.7549 2.45008C13.9619 2.71002 12.2545 4.19416 10.9291 6.67636C10.5446 7.39636 10.1978 8.1918 9.89543 9.05067C11.6976 8.58418 13.6773 8.30915 15.7549 8.26661V2.45008ZM8.56705 9.43953C8.94294 8.22428 9.40284 7.10621 9.93354 6.11234C10.5905 4.88184 11.3703 3.81925 12.2488 3.00312C7.47154 4.43227 3.70594 8.31107 2.31851 13.232C3.11081 12.327 4.14239 11.5238 5.33698 10.8471C6.30184 10.3004 7.38728 9.82671 8.56705 9.43953ZM8.18952 10.8078C7.73667 12.6642 7.46968 14.7034 7.42838 16.8435H1.7816C2.03396 14.9965 3.47478 13.2377 5.88454 11.8726C6.58353 11.4766 7.35575 11.1193 8.18952 10.8078ZM8.56485 16.8435C8.61177 14.508 8.93815 12.3154 9.4782 10.3781C11.359 9.82178 13.4877 9.48551 15.7549 9.43718V11.9652C14.9091 14.1957 13.1839 15.9726 11.0184 16.8435H8.56485ZM7.42838 18.0139H1.7816C2.03396 19.8609 3.47478 21.6196 5.88454 22.9848C6.58353 23.3808 7.35575 23.7382 8.18952 24.0496C7.73667 22.1932 7.46968 20.154 7.42838 18.0139ZM9.4782 24.4793C8.93815 22.542 8.61177 20.3494 8.56485 18.0139H11.0184C13.1839 18.8848 14.9092 20.6617 15.7549 22.8922V25.4202C13.4877 25.3719 11.359 25.0356 9.4782 24.4793ZM8.56705 25.4179C7.38728 25.0307 6.30184 24.557 5.33698 24.0103C4.14239 23.3336 3.11081 22.5304 2.31851 21.6254C3.70594 26.5463 7.47154 30.4252 12.2488 31.8543C11.3703 31.0381 10.5905 29.9756 9.93354 28.745C9.40284 27.7512 8.94294 26.6331 8.56705 25.4179ZM15.7549 32.4073C13.9619 32.1474 12.2545 30.6632 10.9291 28.181C10.5446 27.4611 10.1978 26.6656 9.89543 25.8068C11.6976 26.2732 13.6773 26.5483 15.7549 26.5908V32.4073ZM20.3973 31.8543C21.2758 31.0381 22.0556 29.9756 22.7127 28.745C23.2433 27.7512 23.7032 26.6331 24.0791 25.4179C25.2588 25.0307 26.3443 24.557 27.3092 24.0103C28.5037 23.3336 29.5353 22.5304 30.3276 21.6254C28.9402 26.5463 25.1746 30.4252 20.3973 31.8543ZM22.7507 25.8068C22.4484 26.6656 22.1015 27.4611 21.717 28.181C20.3917 30.6632 18.6843 32.1474 16.8912 32.4073V26.5908C18.9688 26.5483 20.9485 26.2732 22.7507 25.8068ZM24.4566 24.0496C25.2903 23.7382 26.0626 23.3808 26.7616 22.9848C29.1713 21.6196 30.6122 19.8609 30.8645 18.0139H25.2177C25.1765 20.154 24.9094 22.1932 24.4566 24.0496ZM24.0813 18.0139C24.0344 20.3494 23.708 22.542 23.1679 24.4793C21.2871 25.0356 19.1585 25.3719 16.8912 25.4202V22.8941C17.7367 20.6628 19.4623 18.8851 21.6284 18.0139H24.0813ZM25.2177 16.8435H30.8645C30.6122 14.9965 29.1713 13.2377 26.7616 11.8726C26.0626 11.4766 25.2903 11.1193 24.4566 10.8078C24.9094 12.6642 25.1765 14.7034 25.2177 16.8435ZM23.1679 10.3781C23.708 12.3154 24.0344 14.508 24.0813 16.8435H21.6284C19.4623 15.9723 17.7367 14.1946 16.8912 11.9633V9.43718C19.1585 9.48551 21.2871 9.82178 23.1679 10.3781ZM24.0791 9.43953C25.2588 9.82671 26.3443 10.3004 27.3092 10.8471C28.5037 11.5238 29.5353 12.327 30.3276 13.232C28.9402 8.31107 25.1746 4.43227 20.3973 3.00312C21.2758 3.81925 22.0556 4.88184 22.7127 6.11234C23.2433 7.10621 23.7032 8.22428 24.0791 9.43953ZM16.8912 2.45008C18.6843 2.71002 20.3917 4.19416 21.717 6.67636C22.1015 7.39637 22.4484 8.1918 22.7507 9.05067C20.9485 8.58418 18.9688 8.30915 16.8912 8.26661V2.45008Z" fill="#BAB3D6"/>
</g>
<defs>
<clipPath id="clip0_1894_2713">
<rect width="82.5174" height="32.3802" fill="white" transform="translate(0.28125 0.809875)"/>
</clipPath>
</defs>
</svg>
