<svg width="101" height="32" viewBox="0 0 101 32" fill="none" xmlns="http://www.w3.org/2000/svg">
<g clip-path="url(#clip0_1894_2697)">
<path d="M71.8511 29.9566C72.458 29.9566 72.817 29.505 72.817 28.7989C72.817 28.067 72.4316 27.6413 71.8639 27.6413C71.5392 27.6413 71.3137 27.7827 71.145 28.0073H71.137V26.8505H70.7852V29.8922H71.137V29.6031H71.145C71.3273 29.8497 71.548 29.9566 71.8511 29.9566ZM71.8255 29.6668C71.3489 29.6668 71.1146 29.2969 71.1146 28.8029C71.1146 28.3269 71.3401 27.935 71.8295 27.935C72.2541 27.935 72.458 28.3097 72.458 28.8029C72.458 29.3008 72.2541 29.6668 71.8255 29.6668ZM73.4112 30.6202C73.6838 30.6202 73.8574 30.5259 74.0389 30.0704L74.9968 27.6924H74.6242L74.1124 29.0628C74.0437 29.2458 73.9653 29.4924 73.9653 29.4924H73.9573C73.9573 29.4924 73.8742 29.2458 73.8054 29.0628L73.2768 27.6924H72.8954L73.7702 29.8285L73.6838 30.0453C73.5975 30.2581 73.4975 30.3139 73.3504 30.3139C73.2682 30.318 73.1863 30.3018 73.1121 30.2668H73.0945V30.5731C73.1905 30.6115 73.2768 30.6202 73.4112 30.6202ZM75.8948 29.8922H76.4842V26.8505H75.8948V29.8922ZM77.9251 29.9566C78.6136 29.9566 79.0862 29.4539 79.0862 28.8029C79.0862 28.1518 78.6144 27.65 77.9251 27.65C77.2366 27.65 76.764 28.1526 76.764 28.8029C76.764 29.4547 77.2358 29.9566 77.9251 29.9566ZM77.9251 29.5136C77.5613 29.5136 77.3622 29.2285 77.3622 28.8029C77.3622 28.378 77.5613 28.0882 77.9251 28.0882C78.285 28.0882 78.4881 28.378 78.4881 28.8029C78.4881 29.2285 78.285 29.5136 77.9251 29.5136ZM80.3392 30.6367C80.6687 30.6367 80.9541 30.5605 81.1405 30.3901C81.3052 30.2409 81.4051 30.0327 81.4051 29.7264V27.7096H80.8374V27.9398H80.8286C80.6943 27.7568 80.4912 27.65 80.2129 27.65C79.6507 27.65 79.2517 28.067 79.2517 28.718C79.2517 29.3777 79.7371 29.7602 80.2313 29.7602C80.5127 29.7602 80.6815 29.6503 80.811 29.505H80.8246V29.7437C80.8246 30.0414 80.6647 30.1992 80.3304 30.1992C80.0577 30.1992 79.9322 30.0924 79.8842 29.9558H79.2997C79.3597 30.3814 79.7323 30.6367 80.3392 30.6367ZM80.3312 29.2969C80.0274 29.2969 79.8275 29.0801 79.8275 28.7094C79.8275 28.3434 80.0274 28.1141 80.3264 28.1141C80.6815 28.1141 80.855 28.3858 80.855 28.7055C80.855 29.029 80.7031 29.2969 80.3304 29.2969H80.3312ZM82.8373 29.9566C83.5258 29.9566 83.9984 29.4539 83.9984 28.8029C83.9984 28.1518 83.5258 27.65 82.8373 27.65C82.148 27.65 81.6762 28.1526 81.6762 28.8029C81.6762 29.4547 82.148 29.9566 82.8373 29.9566ZM82.8373 29.5136C82.4734 29.5136 82.2735 29.2285 82.2735 28.8029C82.2735 28.378 82.4734 28.0882 82.8373 28.0882C83.1963 28.0882 83.4002 28.378 83.4002 28.8029C83.4002 29.2285 83.1963 29.5136 82.8373 29.5136ZM84.2718 29.8922H84.8612V27.7096H84.2718V29.8922ZM84.2718 27.3696H84.8612V26.8505H84.2718V27.3696ZM85.241 30.6068H85.8303V29.6463H85.8383C85.9647 29.834 86.1678 29.9573 86.4796 29.9573C87.0514 29.9573 87.4416 29.5097 87.4416 28.8036C87.4416 28.1227 87.065 27.6507 86.4756 27.6507C86.3471 27.6487 86.2201 27.678 86.106 27.7359C85.9918 27.7939 85.8941 27.8788 85.8215 27.983H85.8087V27.7104H85.241V30.6084V30.6068ZM86.3541 29.4759C86.003 29.4759 85.8167 29.216 85.8167 28.8201C85.8167 28.429 85.9647 28.118 86.3325 28.118C86.6963 28.118 86.8435 28.407 86.8435 28.8201C86.8435 29.2332 86.6532 29.4759 86.3541 29.4759ZM88.6171 29.9566C89.1712 29.9566 89.5526 29.6927 89.5526 29.2544C89.5526 28.744 89.1408 28.6419 88.7682 28.5649C88.4523 28.5013 88.1581 28.484 88.1581 28.2971C88.1581 28.14 88.3092 28.0536 88.5387 28.0536C88.7906 28.0536 88.9417 28.14 88.9681 28.3733H89.5007C89.4575 27.935 89.1328 27.6507 88.5475 27.6507C88.0405 27.6507 87.6423 27.8754 87.6423 28.3481C87.6423 28.8241 88.0317 28.9309 88.4307 29.0078C88.7338 29.0667 89.0153 29.0879 89.0153 29.2969C89.0153 29.45 88.8681 29.5482 88.6083 29.5482C88.3444 29.5482 88.1621 29.4374 88.1229 29.1861H87.5775C87.6119 29.6495 87.9718 29.9566 88.6171 29.9566ZM91.79 29.8922V27.7096H91.2007V28.9694C91.2007 29.2584 91.0312 29.4626 90.7545 29.4626C90.5034 29.4626 90.3859 29.322 90.3859 29.0667V27.7096H89.8013V29.1649C89.8013 29.6416 90.0788 29.9518 90.5722 29.9518C90.884 29.9518 91.0576 29.8372 91.2095 29.6377H91.2223V29.8922H91.79ZM92.1707 29.8922H92.76V28.6254C92.76 28.3356 92.9199 28.1487 93.1582 28.1487C93.3749 28.1487 93.5004 28.2767 93.5004 28.5233V29.8929H94.0898V28.6254C94.0898 28.3356 94.2417 28.1487 94.4888 28.1487C94.7055 28.1487 94.831 28.2767 94.831 28.5233V29.8929H95.4204V28.4251C95.4204 27.9484 95.1557 27.6507 94.6879 27.6507C94.4064 27.6507 94.1721 27.7952 94.021 28.034H94.0122C93.9589 27.9181 93.8721 27.82 93.7627 27.7519C93.6533 27.6838 93.526 27.6486 93.3965 27.6507C93.2666 27.6475 93.1382 27.6786 93.0246 27.7408C92.9111 27.803 92.8167 27.8939 92.7512 28.0042H92.7384V27.7104H92.1707V29.8937V29.8922Z" fill="#BAB3D6"/>
<path d="M95.5383 2.4093C95.5383 1.48022 96.3052 0.726274 97.2512 0.726274H98.3938C98.8483 0.726274 99.2842 0.903592 99.6056 1.21922C99.9269 1.53485 100.107 1.96293 100.107 2.4093C100.107 2.85566 99.9269 3.28374 99.6056 3.59937C99.2842 3.915 98.8483 4.09232 98.3938 4.09232H97.2512C97.0262 4.09232 96.8034 4.04878 96.5955 3.96419C96.3876 3.8796 96.1988 3.75562 96.0397 3.59932C95.8807 3.44303 95.7545 3.25749 95.6685 3.0533C95.5825 2.84911 95.5382 2.63028 95.5383 2.4093ZM47.5673 11.9443C47.5673 18.1392 42.4544 23.1616 36.1461 23.1616C29.8386 23.1616 24.7249 18.1392 24.7249 11.9443C24.7249 5.74785 29.8386 0.727059 36.1461 0.727059C42.4544 0.727059 47.5673 5.74785 47.5673 11.9443ZM22.4971 11.8886C23.1288 11.8886 23.6454 12.3912 23.5822 13.0085C23.3663 15.121 22.5445 17.1299 21.2122 18.8018C19.8798 20.4737 18.0918 21.7399 16.0558 22.4533C14.0198 23.1667 11.8195 23.2979 9.71051 22.8318C7.60157 22.3657 5.67062 21.3213 4.14207 19.8201C2.61353 18.3188 1.55016 16.4223 1.07555 14.3511C0.600944 12.2798 0.734584 10.1187 1.46094 8.11908C2.1873 6.11944 3.47655 4.36331 5.17885 3.05479C6.88115 1.74627 8.92661 0.939086 11.0775 0.727059C11.7052 0.664231 12.2178 1.17314 12.2178 1.792V10.7663C12.2178 11.3867 12.7295 11.8886 13.3604 11.8886H22.4971ZM63.5577 25.4054C64.4664 25.4054 65.3379 25.7599 65.9805 26.391C66.6231 27.0221 66.9841 27.8781 66.9841 28.7706C66.9841 29.6631 66.6231 30.5191 65.9805 31.1502C65.3379 31.7813 64.4664 32.1359 63.5577 32.1359H57.8475C56.9387 32.1359 56.0672 31.7813 55.4246 31.1502C54.782 30.5191 54.421 29.6631 54.421 28.7706C54.421 27.8781 54.782 27.0221 55.4246 26.391C56.0672 25.7599 56.9387 25.4054 57.8475 25.4054H63.5577ZM60.1312 23.1616C66.4396 23.1616 71.5532 18.1392 71.5532 11.9443C71.556 10.0414 71.0635 8.16928 70.1227 6.50572L72.0098 4.65228C72.2272 4.43869 72.3996 4.18514 72.5172 3.9061C72.6348 3.62707 72.6953 3.32802 72.6952 3.02603C72.6951 2.72404 72.6345 2.42502 72.5168 2.14604C72.399 1.86707 72.2265 1.6136 72.009 1.40011C71.7915 1.18662 71.5334 1.01729 71.2493 0.901794C70.9652 0.786294 70.6607 0.726885 70.3532 0.726958C70.0457 0.727031 69.7413 0.786585 69.4572 0.902219C69.1732 1.01785 68.9151 1.1873 68.6977 1.4009L67.0505 3.01873C65.0632 1.52805 62.631 0.722322 60.1304 0.726274C53.8237 0.727059 48.7108 5.74785 48.7108 11.9443C48.7108 18.1392 53.8237 23.1616 60.1312 23.1616ZM95.5383 11.9443C95.5383 18.1392 90.4247 23.1616 84.1163 23.1616C77.8088 23.1616 72.6951 18.1392 72.6951 11.9443C72.6951 5.74785 77.8088 0.727059 84.1163 0.727059C90.4247 0.727059 95.5383 5.74864 95.5383 11.9443Z" fill="#BAB3D6"/>
</g>
<defs>
<clipPath id="clip0_1894_2697">
<rect width="99.9546" height="31.4143" fill="white" transform="translate(0.882812 0.292847)"/>
</clipPath>
</defs>
</svg>
