<svg width="89" height="44" viewBox="0 0 89 44" fill="none" xmlns="http://www.w3.org/2000/svg">
<g clip-path="url(#clip0_1894_2740)">
<path d="M0.582031 39.3294H8.68031V37.0045H3.05146V26.1487H0.582031V39.3294Z" fill="#BAB3D6"/>
<path d="M13.5469 39.6042C14.5274 39.6042 15.3899 39.3844 16.1343 38.9451C16.8848 38.4996 17.4689 37.8864 17.8866 37.1054C18.3102 36.3181 18.5221 35.412 18.5221 34.3869C18.5221 33.3678 18.3132 32.4677 17.8956 31.6866C17.478 30.8995 16.8939 30.2831 16.1434 29.8377C15.399 29.3922 14.5335 29.1695 13.5469 29.1695C12.5784 29.1695 11.722 29.3892 10.9776 29.8286C10.2331 30.2679 9.64907 30.8811 9.22535 31.6684C8.8017 32.4494 8.58984 33.3556 8.58984 34.3869C8.58984 35.4059 8.79564 36.309 9.20723 37.0962C9.62482 37.8773 10.2059 38.4905 10.9503 38.936C11.6948 39.3814 12.5603 39.6042 13.5469 39.6042ZM13.5469 37.2793C12.7782 37.2793 12.1942 37.0199 11.7947 36.5012C11.4012 35.9765 11.2046 35.2717 11.2046 34.3869C11.2046 33.5264 11.3922 32.8308 11.7675 32.2999C12.1487 31.7629 12.7419 31.4944 13.5469 31.4944C14.3277 31.4944 14.9148 31.7568 15.3082 32.2816C15.7076 32.8064 15.9074 33.5081 15.9074 34.3869C15.9074 35.2351 15.7107 35.9307 15.3172 36.4738C14.9299 37.0107 14.3397 37.2793 13.5469 37.2793Z" fill="#BAB3D6"/>
<path d="M23.4059 39.6042C23.866 39.6042 24.2896 39.5492 24.677 39.4394C25.0704 39.3296 25.4275 39.1739 25.7483 38.9726V39.9703C25.7604 40.3364 25.6666 40.6415 25.4668 40.8856C25.2732 41.1358 25.0129 41.3219 24.6861 41.444C24.3592 41.5721 24.0112 41.6362 23.6421 41.6362C23.297 41.6362 22.9762 41.5599 22.6797 41.4074C22.3892 41.2548 22.1652 41.0321 22.0078 40.7392L19.72 41.8558C20.0952 42.4965 20.6309 43.0122 21.3269 43.4027C22.023 43.7993 22.7886 43.9977 23.6239 43.9977C24.3441 43.9977 25.0129 43.9 25.6303 43.7048C26.2476 43.5156 26.7682 43.2258 27.1918 42.8352C27.6215 42.4447 27.9151 41.9474 28.0725 41.3433C28.1269 41.1297 28.1632 40.9131 28.1814 40.6934C28.2056 40.4798 28.2177 40.251 28.2177 40.0069V29.4441H26.057V29.9933C25.7241 29.7309 25.3458 29.5295 24.9221 29.3892C24.5045 29.2427 24.0415 29.1695 23.5331 29.1695C22.595 29.1695 21.7778 29.3953 21.0818 29.8468C20.3858 30.2984 19.8441 30.9178 19.4567 31.705C19.0754 32.486 18.8848 33.38 18.8848 34.3869C18.8848 35.3754 19.0724 36.2632 19.4477 37.0504C19.8289 37.8376 20.3585 38.46 21.0364 38.9177C21.7143 39.3753 22.5041 39.6042 23.4059 39.6042ZM23.8054 37.3891C23.2728 37.3891 22.8371 37.2548 22.4981 36.9863C22.1592 36.7179 21.9079 36.3578 21.7446 35.9063C21.5812 35.4486 21.4994 34.9421 21.4994 34.3869C21.4994 33.8376 21.5842 33.3373 21.7536 32.8857C21.9231 32.428 22.1834 32.065 22.5344 31.7964C22.8915 31.5219 23.3455 31.3846 23.8962 31.3846C24.671 31.3846 25.2247 31.6622 25.5576 32.2175C25.8906 32.7667 26.057 33.4898 26.057 34.3869C26.057 35.2838 25.8875 36.01 25.5486 36.5653C25.2157 37.1145 24.6347 37.3891 23.8054 37.3891Z" fill="#BAB3D6"/>
<path d="M34.084 39.6042C35.0645 39.6042 35.927 39.3844 36.6715 38.9451C37.4219 38.4996 38.006 37.8864 38.4237 37.1054C38.8473 36.3181 39.0592 35.412 39.0592 34.3869C39.0592 33.3678 38.8503 32.4677 38.4327 31.6866C38.0151 30.8995 37.431 30.2831 36.6805 29.8377C35.9361 29.3922 35.0705 29.1695 34.084 29.1695C33.1156 29.1695 32.2591 29.3892 31.5147 29.8286C30.7703 30.2679 30.1862 30.8811 29.7625 31.6684C29.3388 32.4494 29.127 33.3556 29.127 34.3869C29.127 35.4059 29.3327 36.309 29.7443 37.0962C30.1619 37.8773 30.743 38.4905 31.4874 38.936C32.2319 39.3814 33.0974 39.6042 34.084 39.6042ZM34.084 37.2793C33.3153 37.2793 32.7312 37.0199 32.3317 36.5012C31.9383 35.9765 31.7417 35.2717 31.7417 34.3869C31.7417 33.5264 31.9293 32.8308 32.3046 32.2999C32.6858 31.7629 33.279 31.4944 34.084 31.4944C34.8648 31.4944 35.4519 31.7568 35.8453 32.2816C36.2447 32.8064 36.4445 33.5081 36.4445 34.3869C36.4445 35.2351 36.2477 35.9307 35.8543 36.4738C35.467 37.0107 34.8768 37.2793 34.084 37.2793Z" fill="#BAB3D6"/>
<path d="M40.1465 28.0711H42.6159V25.8743H40.1465V28.0711ZM40.1465 39.3295H42.6159V29.4441H40.1465V39.3295Z" fill="#BAB3D6"/>
<path d="M44.2305 43.7231H46.7181V38.9726C47.0389 39.1739 47.393 39.3296 47.7803 39.4394C48.1737 39.5492 48.6004 39.6042 49.0604 39.6042C49.9622 39.6042 50.7521 39.3753 51.43 38.9177C52.1079 38.46 52.6344 37.8376 53.0097 37.0504C53.391 36.2632 53.5816 35.3754 53.5816 34.3869C53.5816 33.38 53.388 32.486 53.0006 31.705C52.6193 30.9178 52.0806 30.2984 51.3846 29.8468C50.6886 29.3953 49.8714 29.1695 48.9333 29.1695C48.4249 29.1695 47.9588 29.2427 47.5351 29.3892C47.1175 29.5295 46.7423 29.7309 46.4094 29.9933V29.4441H44.2305V43.7231ZM48.6609 37.3891C47.8378 37.3891 47.2568 37.1145 46.9178 36.5653C46.5788 36.01 46.4094 35.2838 46.4094 34.3869C46.4094 33.4898 46.5758 32.7667 46.9087 32.2175C47.2477 31.6622 47.8015 31.3846 48.5702 31.3846C49.1209 31.3846 49.5718 31.5219 49.9229 31.7964C50.28 32.065 50.5433 32.428 50.7127 32.8857C50.8822 33.3373 50.967 33.8376 50.967 34.3869C50.967 34.9421 50.8852 35.4486 50.7218 35.9063C50.5584 36.3578 50.3072 36.7179 49.9683 36.9863C49.6293 37.2548 49.1936 37.3891 48.6609 37.3891Z" fill="#BAB3D6"/>
<path d="M58.0557 39.6042C59.3388 39.6042 60.3435 39.3143 61.0698 38.7346C61.7961 38.1549 62.1593 37.3586 62.1593 36.3456C62.1593 35.5767 61.9233 34.9696 61.4512 34.5242C60.9851 34.0787 60.1922 33.7095 59.0725 33.4166C58.3099 33.2213 57.741 33.0626 57.3657 32.9406C56.9965 32.8186 56.7514 32.6996 56.6303 32.5837C56.5153 32.4677 56.4578 32.3243 56.4578 32.1534C56.4578 31.8666 56.594 31.647 56.8664 31.4944C57.1448 31.3419 57.5109 31.2809 57.9649 31.3114C58.9273 31.3846 59.4538 31.7995 59.5446 32.5562L62.0685 32.0985C61.9414 31.2015 61.5056 30.4906 60.7612 29.9658C60.0167 29.4349 59.0664 29.1695 57.9104 29.1695C56.7241 29.1695 55.7769 29.4502 55.0688 30.0116C54.3606 30.573 54.0065 31.3296 54.0065 32.2816C54.0065 33.0383 54.2516 33.6363 54.7419 34.0756C55.2322 34.5089 56.0765 34.8811 57.2749 35.1923C57.9831 35.3815 58.5036 35.534 58.8364 35.65C59.1754 35.7659 59.3933 35.8849 59.4901 36.007C59.5869 36.1229 59.6354 36.2785 59.6354 36.4738C59.6354 36.785 59.5143 37.0291 59.2722 37.206C59.0301 37.3769 58.6851 37.4623 58.2372 37.4623C57.6925 37.4623 57.2416 37.3311 56.8845 37.0687C56.5334 36.8063 56.3065 36.4433 56.2036 35.9795L53.6797 36.3639C53.8431 37.3952 54.3031 38.1946 55.0597 38.7621C55.8223 39.3235 56.821 39.6042 58.0557 39.6042Z" fill="#BAB3D6"/>
<path d="M66.7141 39.6223C67.4222 39.6223 68.0396 39.5033 68.5662 39.2653C69.0927 39.0273 69.5346 38.71 69.8917 38.3134V39.3294H72.0703V29.4439H69.5829V34.4599C69.5829 35.0701 69.5134 35.5643 69.3741 35.9427C69.241 36.315 69.0685 36.5987 68.8566 36.7939C68.6448 36.9831 68.4178 37.1112 68.1757 37.1784C67.9336 37.2455 67.7067 37.2791 67.4949 37.2791C66.9683 37.2791 66.5597 37.1601 66.2692 36.9221C65.9847 36.6841 65.7789 36.3882 65.6518 36.0343C65.5247 35.6803 65.4491 35.3295 65.4248 34.9816C65.4007 34.6277 65.3885 34.3379 65.3885 34.112V29.4439H62.8828V34.9908C62.8828 35.1555 62.8949 35.4179 62.9191 35.7779C62.9433 36.138 63.0129 36.5377 63.1279 36.977C63.243 37.4103 63.4336 37.8283 63.6999 38.231C63.9723 38.6337 64.3506 38.9663 64.8348 39.2287C65.319 39.4911 65.9454 39.6223 66.7141 39.6223Z" fill="#BAB3D6"/>
<path d="M73.5 39.3293H75.9874V33.3431C75.9874 32.7757 76.1415 32.315 76.4503 31.961C76.7649 31.601 77.1794 31.4209 77.6944 31.4209C78.233 31.4209 78.6538 31.6041 78.9563 31.9702C79.2644 32.3302 79.4192 32.8367 79.4192 33.4896V39.3293H81.8888V33.3431C81.8888 32.7757 82.0429 32.315 82.3517 31.961C82.6663 31.601 83.0808 31.4209 83.5951 31.4209C84.1344 31.4209 84.5545 31.6041 84.857 31.9702C85.1658 32.3302 85.3206 32.8367 85.3206 33.4896V39.3293H87.7895V32.8305C87.7895 31.7505 87.502 30.8779 86.9271 30.2127C86.3585 29.5415 85.514 29.2059 84.394 29.2059C83.7649 29.2059 83.1871 29.3432 82.6599 29.6177C82.1335 29.8924 81.7133 30.2677 81.398 30.7436C81.1441 30.2799 80.781 29.9076 80.3088 29.627C79.8365 29.3463 79.2495 29.2059 78.5475 29.2059C77.9541 29.2059 77.4098 29.3249 76.9133 29.5629C76.4168 29.7947 76.0052 30.1151 75.6785 30.5239V29.4438H73.5V39.3293Z" fill="#BAB3D6"/>
<path d="M0.558594 10.9218C0.558594 5.16254 5.18946 0.493713 10.9019 0.493713C13.999 0.493714 16.7782 1.86608 18.6738 4.04054C22.1132 7.93363 24.9573 7.72881 27.9776 4.85478C29.4596 3.4441 31.4583 2.57933 33.6573 2.57933C38.2272 2.57934 41.9319 6.3144 41.9319 10.9218C41.9319 15.5293 38.2272 19.2643 33.6573 19.2643C31.4583 19.2643 29.4596 18.3995 27.9776 16.9888C24.958 14.1155 22.1146 13.91 18.6763 17.8002C16.7806 19.9764 14.0004 21.3499 10.9019 21.3499C5.18946 21.3499 0.558593 16.6811 0.558594 10.9218Z" fill="#BAB3D6"/>
<path d="M0.558594 10.9218C0.558594 5.16254 5.18946 0.493713 10.9019 0.493713C13.999 0.493714 16.7782 1.86608 18.6738 4.04054C22.1132 7.93363 24.9573 7.72881 27.9776 4.85478C29.4596 3.4441 31.4583 2.57933 33.6573 2.57933C38.2272 2.57934 41.9319 6.3144 41.9319 10.9218C41.9319 15.5293 38.2272 19.2643 33.6573 19.2643C31.4583 19.2643 29.4596 18.3995 27.9776 16.9888C24.958 14.1155 22.1146 13.91 18.6763 17.8002C16.7806 19.9764 14.0004 21.3499 10.9019 21.3499C5.18946 21.3499 0.558593 16.6811 0.558594 10.9218Z" fill="#BAB3D6"/>
<path d="M0.558594 10.9218C0.558594 5.16254 5.18946 0.493713 10.9019 0.493713C13.999 0.493714 16.7782 1.86608 18.6738 4.04054C22.1132 7.93363 24.9573 7.72881 27.9776 4.85478C29.4596 3.4441 31.4583 2.57933 33.6573 2.57933C38.2272 2.57934 41.9319 6.3144 41.9319 10.9218C41.9319 15.5293 38.2272 19.2643 33.6573 19.2643C31.4583 19.2643 29.4596 18.3995 27.9776 16.9888C24.958 14.1155 22.1146 13.91 18.6763 17.8002C16.7806 19.9764 14.0004 21.3499 10.9019 21.3499C5.18946 21.3499 0.558593 16.6811 0.558594 10.9218Z" fill="#BAB3D6"/>
<path d="M0.558594 10.9218C0.558594 5.16254 5.18946 0.493713 10.9019 0.493713C13.999 0.493714 16.7782 1.86608 18.6738 4.04054C22.1132 7.93363 24.9573 7.72881 27.9776 4.85478C29.4596 3.4441 31.4583 2.57933 33.6573 2.57933C38.2272 2.57934 41.9319 6.3144 41.9319 10.9218C41.9319 15.5293 38.2272 19.2643 33.6573 19.2643C31.4583 19.2643 29.4596 18.3995 27.9776 16.9888C24.958 14.1155 22.1146 13.91 18.6763 17.8002C16.7806 19.9764 14.0004 21.3499 10.9019 21.3499C5.18946 21.3499 0.558593 16.6811 0.558594 10.9218Z" fill="#BAB3D6"/>
<path d="M0.558594 10.9218C0.558594 5.16254 5.18946 0.493713 10.9019 0.493713C13.999 0.493714 16.7782 1.86608 18.6738 4.04054C22.1132 7.93363 24.9573 7.72881 27.9776 4.85478C29.4596 3.4441 31.4583 2.57933 33.6573 2.57933C38.2272 2.57934 41.9319 6.3144 41.9319 10.9218C41.9319 15.5293 38.2272 19.2643 33.6573 19.2643C31.4583 19.2643 29.4596 18.3995 27.9776 16.9888C24.958 14.1155 22.1146 13.91 18.6763 17.8002C16.7806 19.9764 14.0004 21.3499 10.9019 21.3499C5.18946 21.3499 0.558593 16.6811 0.558594 10.9218Z" fill="#BAB3D6"/>
<path d="M0.558594 10.9218C0.558594 5.16254 5.18946 0.493713 10.9019 0.493713C13.999 0.493714 16.7782 1.86608 18.6738 4.04054C22.1132 7.93363 24.9573 7.72881 27.9776 4.85478C29.4596 3.4441 31.4583 2.57933 33.6573 2.57933C38.2272 2.57934 41.9319 6.3144 41.9319 10.9218C41.9319 15.5293 38.2272 19.2643 33.6573 19.2643C31.4583 19.2643 29.4596 18.3995 27.9776 16.9888C24.958 14.1155 22.1146 13.91 18.6763 17.8002C16.7806 19.9764 14.0004 21.3499 10.9019 21.3499C5.18946 21.3499 0.558593 16.6811 0.558594 10.9218Z" fill="#BAB3D6"/>
</g>
<defs>
<clipPath id="clip0_1894_2740">
<rect width="87.74" height="43.87" fill="white" transform="translate(0.644531 0.0650024)"/>
</clipPath>
</defs>
</svg>
