<svg width="125" height="26" viewBox="0 0 125 26" fill="none" xmlns="http://www.w3.org/2000/svg">
<g clip-path="url(#clip0_1894_2756)">
<path d="M30.5742 2.43744H33.6776V19.8861H38.7839V22.7943H30.5742V2.43744Z" fill="#BAB3D6"/>
<path d="M44.6489 23.0851C43.1254 23.0851 41.9594 22.6393 41.1506 21.7474C40.3419 20.8556 39.9375 19.5954 39.9375 17.9668V7.26497C39.9375 5.63642 40.3419 4.37623 41.1506 3.48441C41.9594 2.59258 43.1254 2.14667 44.6489 2.14667C46.1723 2.14667 47.3384 2.59258 48.1472 3.48441C48.9559 4.37623 49.3602 5.63642 49.3602 7.26497V17.9668C49.3602 19.5954 48.9559 20.8556 48.1472 21.7474C47.3384 22.6393 46.1723 23.0851 44.6489 23.0851ZM44.6489 20.177C45.7209 20.177 46.257 19.5081 46.257 18.1704V7.06139C46.257 5.72366 45.7209 5.05479 44.6489 5.05479C43.5768 5.05479 43.0408 5.72366 43.0408 7.06139V18.1704C43.0408 19.5081 43.5768 20.177 44.6489 20.177Z" fill="#BAB3D6"/>
<path d="M55.8592 23.0851C54.3546 23.0851 53.2073 22.6489 52.4173 21.7765C51.6274 20.8847 51.2324 19.6148 51.2324 17.9668V7.26497C51.2324 5.61703 51.6274 4.35684 52.4173 3.48441C53.2073 2.59258 54.3546 2.14667 55.8592 2.14667C57.3638 2.14667 58.5111 2.59258 59.301 3.48441C60.091 4.35684 60.486 5.61703 60.486 7.26497V9.00983H57.5519V7.06139C57.5519 5.72366 57.0159 5.05479 55.9438 5.05479C54.8718 5.05479 54.3358 5.72366 54.3358 7.06139V18.1995C54.3358 19.5179 54.8718 20.177 55.9438 20.177C57.0159 20.177 57.5519 19.5179 57.5519 18.1995V14.2154H56.0003V11.3073H60.486V17.9668C60.486 19.6148 60.091 20.8847 59.301 21.7765C58.5111 22.6489 57.3638 23.0851 55.8592 23.0851Z" fill="#BAB3D6"/>
<path d="M66.9633 23.0851C65.4399 23.0851 64.2738 22.6393 63.4651 21.7474C62.6563 20.8556 62.252 19.5954 62.252 17.9668V7.26497C62.252 5.63642 62.6563 4.37623 63.4651 3.48441C64.2738 2.59258 65.4399 2.14667 66.9633 2.14667C68.4868 2.14667 69.6529 2.59258 70.4616 3.48441C71.2704 4.37623 71.6748 5.63642 71.6748 7.26497V17.9668C71.6748 19.5954 71.2704 20.8556 70.4616 21.7474C69.6529 22.6393 68.4868 23.0851 66.9633 23.0851ZM66.9633 20.177C68.0354 20.177 68.5714 19.5081 68.5714 18.1704V7.06139C68.5714 5.72366 68.0354 5.05479 66.9633 5.05479C65.8913 5.05479 65.3553 5.72366 65.3553 7.06139V18.1704C65.3553 19.5081 65.8913 20.177 66.9633 20.177Z" fill="#BAB3D6"/>
<path d="M73.7793 2.43744H76.8826V22.7943H73.7793V2.43744Z" fill="#BAB3D6"/>
<path d="M79.207 2.43744H83.7773C85.3194 2.43744 86.4761 2.86396 87.2476 3.71702C88.019 4.57006 88.4043 5.82055 88.4043 7.46849V9.47508C88.4043 11.1231 88.019 12.3735 87.2476 13.2266C86.4761 14.0796 85.3194 14.5061 83.7773 14.5061H82.3106V22.7943H79.207V2.43744ZM83.7773 11.598C84.2854 11.598 84.6614 11.4526 84.9061 11.1618C85.1695 10.871 85.3008 10.3766 85.3008 9.67865V7.26493C85.3008 6.56697 85.1695 6.07259 84.9061 5.78178C84.6614 5.49097 84.2854 5.34557 83.7773 5.34557H82.3106V11.598H83.7773Z" fill="#BAB3D6"/>
<path d="M94.2344 23.0851C92.7303 23.0851 91.5922 22.6489 90.8208 21.7765C90.0502 20.8847 89.6641 19.6148 89.6641 17.9668V16.8036H92.5983V18.1995C92.5983 19.5179 93.1343 20.177 94.2064 20.177C94.7331 20.177 95.1278 20.0219 95.3911 19.7118C95.6731 19.3822 95.8145 18.8587 95.8145 18.1413C95.8145 17.2883 95.6265 16.5419 95.2505 15.9021C94.8745 15.2429 94.1784 14.4577 93.1623 13.5465C91.8836 12.3832 90.9902 11.3363 90.4821 10.4057C89.9748 9.45574 89.7208 8.38944 89.7208 7.2068C89.7208 5.59764 90.1154 4.35684 90.9055 3.48441C91.6956 2.59258 92.843 2.14667 94.3478 2.14667C95.8331 2.14667 96.9526 2.59258 97.7046 3.48441C98.476 4.35684 98.8614 5.61703 98.8614 7.26497V8.10832H95.9271V7.06139C95.9271 6.36345 95.7959 5.85937 95.5325 5.54917C95.2691 5.21958 94.8838 5.05479 94.3757 5.05479C93.341 5.05479 92.8243 5.70427 92.8243 7.00323C92.8243 7.73995 93.0123 8.42821 93.3883 9.06799C93.783 9.70775 94.4884 10.4833 95.5045 11.3945C96.8019 12.5577 97.6953 13.6144 98.1847 14.5644C98.6734 15.5144 98.9181 16.6291 98.9181 17.9087C98.9181 19.576 98.5133 20.8556 97.7046 21.7474C96.9145 22.6393 95.7578 23.0851 94.2344 23.0851Z" fill="#BAB3D6"/>
<path d="M105.211 23.0851C103.706 23.0851 102.559 22.6489 101.769 21.7764C100.979 20.8847 100.584 19.6147 100.584 17.9668V2.43744H103.688V18.1995C103.688 18.8974 103.819 19.4015 104.082 19.7117C104.364 20.0219 104.76 20.177 105.267 20.177C105.775 20.177 106.16 20.0219 106.424 19.7117C106.706 19.4015 106.847 18.8974 106.847 18.1995V2.43744H109.837V17.9668C109.837 19.6147 109.443 20.8847 108.652 21.7764C107.862 22.6489 106.715 23.0851 105.211 23.0851Z" fill="#BAB3D6"/>
<path d="M112.047 2.43744H116.477L118.451 17.0071H118.507L120.483 2.43744H124.912V22.7943H121.978V7.38125H121.922L119.664 22.7943H117.069L114.812 7.38125H114.756V22.7943H112.047V2.43744Z" fill="#BAB3D6"/>
<path d="M0.613281 22.7944C4.43117 22.7944 7.52614 19.604 7.52614 15.6686C7.52614 11.733 4.43117 8.54266 0.613281 8.54266V13.5307C1.75864 13.5307 2.68713 14.4879 2.68713 15.6686C2.68713 16.8492 1.75864 17.8063 0.613281 17.8063V22.7944Z" fill="#BAB3D6"/>
<path d="M23.6573 10.9178C22.476 10.532 21.2181 10.3239 19.9129 10.3239C13.0725 10.3239 7.52734 16.04 7.52734 23.0911C7.52734 23.7988 7.58322 24.4931 7.69062 25.1695H15.3862C15.1115 24.5346 14.9587 23.8313 14.9587 23.0911C14.9587 20.2707 17.1767 17.9842 19.9129 17.9842C21.4083 17.9842 22.749 18.6672 23.6573 19.7471V10.9178Z" fill="#BAB3D6"/>
<path d="M1.83008 1.41669C2.4032 6.76103 6.79874 10.9179 12.1361 10.9179C17.4734 10.9179 21.869 6.76103 22.4421 1.41669H15.0265C14.5687 2.59971 13.4471 3.43568 12.1361 3.43568C10.8251 3.43568 9.70351 2.59971 9.24563 1.41669H1.83008Z" fill="#BAB3D6"/>
</g>
<defs>
<clipPath id="clip0_1894_2756">
<rect width="124.298" height="24.024" fill="white" transform="translate(0.701172 0.987976)"/>
</clipPath>
</defs>
</svg>
