<svg width="123" height="26" viewBox="0 0 123 26" fill="none" xmlns="http://www.w3.org/2000/svg">
<g clip-path="url(#clip0_1894_2726)">
<path d="M36.748 19.8823V7.12244H39.094V17.6949H44.7812V19.8823H36.748Z" fill="#BAB3D6"/>
<path d="M49.8474 20.1377C48.9707 20.1377 48.1827 19.9554 47.4837 19.5908C46.7846 19.2263 46.2336 18.6977 45.8308 18.005C45.428 17.3123 45.2266 16.4799 45.2266 15.5077V15.2161C45.2266 14.2439 45.428 13.4114 45.8308 12.7188C46.2336 12.0261 46.7846 11.4975 47.4837 11.1329C48.1827 10.7684 48.9707 10.5861 49.8474 10.5861C50.7242 10.5861 51.5122 10.7684 52.2112 11.1329C52.9102 11.4975 53.4612 12.0261 53.8641 12.7188C54.2669 13.4114 54.4683 14.2439 54.4683 15.2161V15.5077C54.4683 16.4799 54.2669 17.3123 53.8641 18.005C53.4612 18.6977 52.9102 19.2263 52.2112 19.5908C51.5122 19.9554 50.7242 20.1377 49.8474 20.1377ZM49.8474 18.0961C50.5346 18.0961 51.1034 17.8713 51.5536 17.4217C52.0038 16.9599 52.229 16.3037 52.229 15.453V15.2707C52.229 14.4201 52.0038 13.7699 51.5536 13.3203C51.1152 12.8585 50.5465 12.6276 49.8474 12.6276C49.1602 12.6276 48.5915 12.8585 48.1413 13.3203C47.691 13.7699 47.4659 14.4201 47.4659 15.2707V15.453C47.4659 16.3037 47.691 16.9599 48.1413 17.4217C48.5915 17.8713 49.1602 18.0961 49.8474 18.0961Z" fill="#BAB3D6"/>
<path d="M55.3086 15.3984V15.1067C55.3086 14.1588 55.4922 13.3507 55.8595 12.6823C56.2268 12.0018 56.7126 11.4853 57.3169 11.1329C57.933 10.7684 58.6024 10.5861 59.3252 10.5861C60.1309 10.5861 60.7411 10.7318 61.1558 11.0235C61.5705 11.3152 61.8726 11.619 62.0622 11.9349H62.3821V10.8412H64.586V21.4866C64.586 22.1064 64.4082 22.5985 64.0527 22.9631C63.6973 23.3398 63.2234 23.5282 62.6309 23.5282H56.7304V21.5231H61.8489C62.1807 21.5231 62.3466 21.3408 62.3466 20.9762V18.6248H62.0267C61.9082 18.8192 61.7423 19.0197 61.529 19.2263C61.3158 19.4207 61.0314 19.5848 60.6759 19.7185C60.3205 19.8521 59.8703 19.919 59.3252 19.919C58.6024 19.919 57.933 19.7427 57.3169 19.3904C56.7126 19.0258 56.2268 18.5093 55.8595 17.8409C55.4922 17.1604 55.3086 16.3462 55.3086 15.3984ZM59.9651 17.9138C60.6523 17.9138 61.2269 17.689 61.689 17.2394C62.1511 16.7897 62.3821 16.1579 62.3821 15.3437V15.1614C62.3821 14.335 62.1511 13.7031 61.689 13.2656C61.2387 12.816 60.6641 12.5912 59.9651 12.5912C59.2778 12.5912 58.7032 12.816 58.2411 13.2656C57.779 13.7031 57.5479 14.335 57.5479 15.1614V15.3437C57.5479 16.1579 57.779 16.7897 58.2411 17.2394C58.7032 17.689 59.2778 17.9138 59.9651 17.9138Z" fill="#BAB3D6"/>
<path d="M70.4628 20.1377C69.586 20.1377 68.798 19.9554 68.0989 19.5908C67.3999 19.2263 66.849 18.6977 66.4461 18.005C66.0433 17.3123 65.8418 16.4799 65.8418 15.5077V15.2161C65.8418 14.2439 66.0433 13.4114 66.4461 12.7188C66.849 12.0261 67.3999 11.4975 68.0989 11.1329C68.798 10.7684 69.586 10.5861 70.4628 10.5861C71.3395 10.5861 72.1274 10.7684 72.8265 11.1329C73.5256 11.4975 74.0765 12.0261 74.4794 12.7188C74.8822 13.4114 75.0836 14.2439 75.0836 15.2161V15.5077C75.0836 16.4799 74.8822 17.3123 74.4794 18.005C74.0765 18.6977 73.5256 19.2263 72.8265 19.5908C72.1274 19.9554 71.3395 20.1377 70.4628 20.1377ZM70.4628 18.0961C71.15 18.0961 71.7187 17.8713 72.1689 17.4217C72.6191 16.9599 72.8442 16.3037 72.8442 15.453V15.2707C72.8442 14.4201 72.6191 13.7699 72.1689 13.3203C71.7305 12.8585 71.1618 12.6276 70.4628 12.6276C69.7755 12.6276 69.2068 12.8585 68.7566 13.3203C68.3063 13.7699 68.0812 14.4201 68.0812 15.2707V15.453C68.0812 16.3037 68.3063 16.9599 68.7566 17.4217C69.2068 17.8713 69.7755 18.0961 70.4628 18.0961Z" fill="#BAB3D6"/>
<path d="M76.3511 19.8824V10.8411H78.5907V19.8824H76.3511ZM77.471 9.78389C77.0677 9.78389 76.7247 9.65016 76.4398 9.38279C76.1675 9.1155 76.0312 8.76305 76.0312 8.32558C76.0312 7.8881 76.1675 7.53568 76.4398 7.26834C76.7247 7.00099 77.0677 6.86731 77.471 6.86731C77.8857 6.86731 78.2294 7.00099 78.5013 7.26834C78.774 7.53568 78.9107 7.8881 78.9107 8.32558C78.9107 8.76305 78.774 9.1155 78.5013 9.38279C78.2294 9.65016 77.8857 9.78389 77.471 9.78389Z" fill="#BAB3D6"/>
<path d="M80.2734 23.5282V10.8412H82.477V11.9349H82.7971C82.9979 11.5825 83.3119 11.2726 83.7388 11.0053C84.165 10.7258 84.7753 10.5861 85.5697 10.5861C86.28 10.5861 86.9377 10.7684 87.5418 11.1329C88.1468 11.4853 88.6326 12.0078 88.9992 12.7005C89.3666 13.3932 89.5507 14.2317 89.5507 15.2161V15.5077C89.5507 16.4921 89.3666 17.3305 88.9992 18.0232C88.6326 18.7159 88.1468 19.2445 87.5418 19.6091C86.9377 19.9615 86.28 20.1377 85.5697 20.1377C85.0365 20.1377 84.5859 20.0709 84.2185 19.9372C83.8633 19.8157 83.5731 19.6577 83.3478 19.4632C83.1347 19.2566 82.9628 19.0501 82.8322 18.8435H82.5122V23.5282H80.2734ZM84.8937 18.1326C85.5934 18.1326 86.1677 17.9078 86.6176 17.4581C87.0797 16.9963 87.3112 16.328 87.3112 15.453V15.2707C87.3112 14.3958 87.0797 13.7335 86.6176 13.2838C86.1555 12.822 85.5811 12.5912 84.8937 12.5912C84.2071 12.5912 83.6319 12.822 83.1698 13.2838C82.7077 13.7335 82.477 14.3958 82.477 15.2707V15.453C82.477 16.328 82.7077 16.9963 83.1698 17.4581C83.6319 17.9078 84.2071 18.1326 84.8937 18.1326Z" fill="#BAB3D6"/>
<path d="M94.4675 20.1375C93.318 20.1375 92.3762 19.8823 91.6414 19.3719C90.9074 18.8615 90.4629 18.1323 90.3086 17.1845L92.3701 16.6376C92.4534 17.063 92.5893 17.3971 92.7795 17.6402C92.9804 17.8832 93.2233 18.0595 93.5082 18.1688C93.8038 18.266 94.1238 18.3146 94.4675 18.3146C94.9892 18.3146 95.3742 18.2235 95.6224 18.0412C95.8714 17.8468 95.9959 17.6098 95.9959 17.3303C95.9959 17.0508 95.8775 16.8382 95.6407 16.6923C95.4032 16.5344 95.0243 16.4067 94.5034 16.3095L94.0054 16.2183C93.389 16.0968 92.8269 15.9328 92.3174 15.7262C91.8072 15.5075 91.3985 15.2097 91.0907 14.833C90.7829 14.4563 90.6286 13.9702 90.6286 13.3748C90.6286 12.4754 90.9487 11.7889 91.5887 11.3149C92.228 10.8288 93.0698 10.5858 94.1124 10.5858C95.0954 10.5858 95.9134 10.8106 96.5649 11.2602C97.2165 11.7099 97.6427 12.2993 97.8443 13.0284L95.7652 13.6846C95.6705 13.2229 95.475 12.8947 95.1786 12.7003C94.8937 12.5058 94.5386 12.4086 94.1124 12.4086C93.6854 12.4086 93.36 12.4877 93.1347 12.6456C92.9094 12.7915 92.7971 12.998 92.7971 13.2653C92.7971 13.557 92.9155 13.7758 93.1523 13.9216C93.389 14.0552 93.7091 14.1586 94.1124 14.2315L94.6096 14.3226C95.2733 14.4441 95.8714 14.6082 96.4045 14.8148C96.9499 15.0092 97.3761 15.2948 97.6847 15.6715C98.004 16.0361 98.1644 16.5344 98.1644 17.1662C98.1644 18.1141 97.8268 18.8494 97.1515 19.3719C96.4878 19.8823 95.5934 20.1375 94.4675 20.1375Z" fill="#BAB3D6"/>
<path d="M102.686 20.0283C101.999 20.0283 101.395 19.8703 100.873 19.5544C100.363 19.2263 99.967 18.7766 99.6821 18.2055C99.3979 17.6343 99.2559 16.9781 99.2559 16.2368V10.8412H101.495V16.0545C101.495 16.735 101.655 17.2454 101.975 17.5857C102.307 17.926 102.775 18.0961 103.379 18.0961C104.066 18.0961 104.599 17.8652 104.978 17.4034C105.358 16.9295 105.547 16.2732 105.547 15.4348V10.8412H107.787V19.8825H105.582V18.6977H105.263C105.121 19.0015 104.854 19.2992 104.464 19.5908C104.072 19.8825 103.48 20.0283 102.686 20.0283Z" fill="#BAB3D6"/>
<path d="M109.479 19.8823V10.841H111.682V11.8253H112.002C112.156 11.5215 112.412 11.2603 112.767 11.0415C113.122 10.8106 113.59 10.6952 114.171 10.6952C114.798 10.6952 115.303 10.8228 115.681 11.078C116.06 11.321 116.35 11.643 116.552 12.0441H116.872C117.074 11.6552 117.358 11.3332 117.725 11.078C118.093 10.8228 118.614 10.6952 119.289 10.6952C119.834 10.6952 120.326 10.8167 120.765 11.0598C121.214 11.2906 121.57 11.6491 121.831 12.1352C122.103 12.6092 122.239 13.2107 122.239 13.9398V19.8823H120V14.1039C120 13.6057 119.875 13.235 119.627 12.9919C119.378 12.7368 119.028 12.6092 118.579 12.6092C118.069 12.6092 117.672 12.7792 117.388 13.1196C117.115 13.4476 116.979 13.9216 116.979 14.5413V19.8823H114.74V14.1039C114.74 13.6057 114.615 13.235 114.366 12.9919C114.117 12.7368 113.768 12.6092 113.317 12.6092C112.808 12.6092 112.411 12.7792 112.127 13.1196C111.854 13.4476 111.718 13.9216 111.718 14.5413V19.8823H109.479Z" fill="#BAB3D6"/>
<path d="M29.6506 13.0469C29.6506 9.82391 28.4022 6.73284 26.1801 4.4538C23.958 2.17476 20.9443 0.89441 17.8018 0.894409C14.6594 0.894409 11.6456 2.17476 9.42355 4.4538C7.20147 6.73284 5.95312 9.82391 5.95312 13.0469H9.6559C10.8829 13.0469 11.8398 11.9923 12.2892 10.8213C12.5843 10.0525 13.032 9.34596 13.6127 8.75035C14.7237 7.61084 16.2306 6.97067 17.8018 6.97067C19.3731 6.97067 20.88 7.61084 21.991 8.75035C23.102 9.88987 23.7262 11.4354 23.7262 13.0469H29.6506Z" fill="#BAB3D6"/>
<path d="M22.8246 17.6975C23.4201 16.2231 23.7266 14.6428 23.7266 13.047H29.6503C29.6503 19.7586 24.3455 25.1995 17.8016 25.1995C16.7768 25.1995 15.7823 25.066 14.834 24.8152C15.3706 24.6734 15.898 24.4928 16.4122 24.2744C17.8497 23.6637 19.1559 22.7686 20.2562 21.6401C21.3564 20.5116 22.2292 19.172 22.8246 17.6975Z" fill="#BAB3D6"/>
<path d="M0.03125 13.0468C0.0312498 14.6427 0.337726 16.2229 0.933177 17.6974C1.52863 19.1718 2.4014 20.5115 3.50166 21.6399C4.60191 22.7683 5.9081 23.6635 7.34565 24.2743C8.78319 24.885 10.3239 25.1993 11.88 25.1993C13.4359 25.1993 14.9767 24.885 16.4142 24.2743C17.8518 23.6635 19.158 22.7683 20.2583 21.6399C21.3585 20.5115 22.2312 19.1718 22.8267 17.6974C23.4222 16.2229 23.7287 14.6427 23.7287 13.0468H20.0259C18.7989 13.0468 17.842 14.1014 17.3926 15.2723C17.3798 15.3057 17.3667 15.3389 17.3533 15.3721C17.0556 16.1093 16.6192 16.7791 16.0691 17.3433C15.519 17.9075 14.8659 18.3552 14.1471 18.6605C13.4284 18.9659 12.658 19.1231 11.88 19.1231C11.102 19.1231 10.3316 18.9659 9.61284 18.6605C8.89402 18.3552 8.24096 17.9075 7.69079 17.3433C7.14067 16.7791 6.7043 16.1093 6.40657 15.3721C6.10884 14.6348 5.9556 13.8447 5.9556 13.0468H0.03125Z" fill="#BAB3D6"/>
<path d="M0.03125 13.0469C0.03125 6.33526 5.33608 0.894409 11.8799 0.894409C12.9045 0.894409 13.8987 1.02778 14.8469 1.27852C12.8122 1.81613 10.9352 2.90409 9.42419 4.45381C7.20213 6.73282 5.9538 9.82391 5.9538 13.0469H0.03125Z" fill="#BAB3D6"/>
</g>
<defs>
<clipPath id="clip0_1894_2726">
<rect width="122.209" height="25.0686" fill="white" transform="translate(0.117188 0.465698)"/>
</clipPath>
</defs>
</svg>
