<svg width="36" height="36" viewBox="0 0 36 36" fill="none" xmlns="http://www.w3.org/2000/svg">
<path d="M16.3035 24.945C16.2165 24.861 15.8445 24.54 15.5385 24.243C13.614 22.4955 10.464 17.937 9.5025 15.5505C9.348 15.1875 9.021 14.271 9 13.782C9 13.3125 9.108 12.867 9.327 12.4395C9.633 11.907 10.1145 11.4795 10.683 11.247C11.0775 11.097 12.258 10.863 12.279 10.863C13.5705 10.629 15.669 10.5 17.988 10.5C20.1975 10.5 22.2105 10.629 23.5215 10.8195C23.5425 10.842 25.0095 11.0745 25.512 11.331C26.43 11.8005 27 12.717 27 13.698V13.782C26.9775 14.421 26.4075 15.7635 26.3865 15.7635C25.4235 18.021 22.428 22.4745 20.4375 24.2655C20.4375 24.2655 19.926 24.7695 19.6065 24.9885C19.143 25.3256 18.5836 25.5049 18.0105 25.5C17.376 25.5 16.785 25.308 16.3035 24.945Z" fill="black"/>
</svg>
