<svg width="32" height="32" viewBox="0 0 32 32" fill="none" xmlns="http://www.w3.org/2000/svg">
<path d="M8.58715 4.4665C8.19715 5.188 7.99915 5.8725 7.99965 6.5265L8.08215 8.094C7.36115 8.1935 6.41515 8.394 6.03715 9.3095C5.85815 9.742 5.97015 10.4055 6.00415 10.569C6.10315 11.292 6.31065 12.7975 7.58065 13.1935C7.85665 13.2795 8.12715 13.3465 8.36165 13.397L8.49915 16C8.49915 18.018 9.76915 19.0155 11.0111 19.7255L11.0366 19.739C11.0546 19.748 11.0726 19.7555 11.0916 19.7625L11.9976 20.089L11.9926 22.654L3.30215 26.033C3.19058 26.0818 3.09927 26.1677 3.04365 26.276L1.03365 30.3C0.973645 30.454 0.995145 30.64 1.08815 30.776C1.18115 30.912 1.34715 31 1.51215 31H15.9791C16.2556 31 16.4921 30.763 16.4921 30.487V30H29.9991V29H16.4921V28H28.9991V27H16.4921V26H25.4991V25H16.4921V24H20.9991V23H16.4921V22H19.4991V21H16.4991V20H19.9991V19H16.4991V18H22.9991V17H16.4991V16H22.9991V15H16.4991V14H23.4991V13H16.4991V12H25.4991V11H16.4991V10H25.4991V9H16.4991V8H23.4991V7H16.4991V6H23.4991V5H16.4991V4H22.4991V3H16.4991V2H20.5191V1H16.0121V1.0025C16.0076 1.0025 16.0036 1 15.9991 1H14.5776C12.0391 1 9.74365 2.328 8.58715 4.4665ZM8.30665 12.358C8.16285 12.3221 8.02013 12.2821 7.87865 12.238C7.32715 12.0665 7.12665 11.392 6.98965 10.402C6.93715 10.139 6.92315 9.7865 6.96115 9.691C7.11615 9.3165 7.57165 9.1835 8.13515 9.097L8.20165 10.355L8.30665 12.358ZM15.4921 30H2.30015L3.85365 26.891L12.6546 23.4695C12.7526 23.4322 12.8372 23.3664 12.8974 23.2805C12.9577 23.1947 12.9908 23.0928 12.9926 22.988L12.9976 20.452L15.4926 21.351L15.4921 30ZM14.5776 2H15.4991V20.288L11.4711 18.837C10.0346 18.008 9.49915 17.236 9.49865 15.9735L9.33965 12.9535L9.10565 8.5015L9.10465 8.4975L8.99915 6.5C8.99915 6.0465 9.16065 5.508 9.46715 4.942C10.4481 3.1275 12.4066 2 14.5776 2Z" fill="white"/>
</svg>
